{
.appVersion = "1141";
DisplayStrings = (
"jÇ/ydieresis ý½/Scedilla/dcaron/Lcaron/lcaron/tcaron/ij/hcircumflex/jcircumflex/lcommaaccent/wcircumflex/ycircumflex/wgrave/wacute/wdieresis/ygrave µ/uni1E6B/uni1E1F/i.uc/Tcedilla/tcedilla/Tcommaaccent/Scommaaccent"
);
classes = (
{
code = "onesuperior twosuperior threesuperior";
name = sups2;
},
{
code = "one two three";
name = sups1;
},
{
code = "zero one two three four five six seven eight nine";
name = ordn1;
}
);
copyright = "Copyright (c) 2013, Sorkin Type Co (www.sorkintype.com) with Reserved Font Name 'Gelasio'";
customParameters = (
{
name = macintoshFONDFamilyID;
value = 128;
},
{
name = macintoshFONDName;
value = Gelasio;
},
{
name = openTypeHeadFlags;
value = (
0,
1,
3,
4
);
},
{
name = description;
value = "Gelasio's metrics match Georgia's. Gelasio is a general purpose screen oriented text face based on the Romain du Roi style cold metal type seen in a \"OEuvres de Jean Racine\" printed in 1789. This pre-Baskerville style is sometimes called Reale or Transitional style. This and and a large x height offer a nobel, cheerful and simple feeling hence the name Gelasio.";
},
{
name = openTypeNameLicense;
value = "This Font Software is licensed under the SIL Open Font License, Version 1.1. This license is available with a FAQ at: http://scripts.sil.org/OFL";
},
{
name = openTypeNameLicenseURL;
value = "http://scripts.sil.org/OFL";
},
{
name = openTypeNameSampleText;
value = "";
},
{
name = openTypeNameUniqueID;
value = "EbenSorkin: Gelasio Italic: 2013";
},
{
name = openTypeNameVersion;
value = "Version 1.000";
},
{
name = codePageRanges;
value = (
1252,
1250,
1254,
1257
);
},
{
name = openTypeOS2FamilyClass;
value = (
4,
3
);
},
{
name = openTypeOS2Panose;
value = (
2,
4,
5,
2,
5,
4,
5,
9,
3,
3
);
},
{
name = openTypeOS2Selection;
value = (
);
},
{
name = openTypeOS2StrikeoutPosition;
value = 559;
},
{
name = openTypeOS2StrikeoutSize;
value = 126;
},
{
name = openTypeOS2SubscriptXOffset;
value = 35;
},
{

glyphs = (
{
glyphname = A;
layers = (
{
anchors = (
{
name = btm;
position = "{655, -170}";
},
{
name = top;
position = "{826, 1700}";
}
);
layerId = "D92FDD0B-F694-41DD-AE46-0E4F694F0F38";
paths = (
{
closed = 1;
nodes = (
"987 85 OFFCURVE",
"919 93 OFFCURVE",
"827 88 CURVE",
"800 85 OFFCURVE",
"792 72 OFFCURVE",
"793 51 CURVE",
"791 36 OFFCURVE",
"801 0 OFFCURVE",
"824 0 CURVE SMOOTH",
"1340 0 LINE SMOOTH",
"1362 0 OFFCURVE",
"1375 36 OFFCURVE",
"1377 51 CURVE",
"1377 81 OFFCURVE",
"1369 85 OFFCURVE",
"1342 88 CURVE SMOOTH",
"1294 93 OFFCURVE",
"1222 77 OFFCURVE",
"1198 165 CURVE",
"833 1472 LINE",
"797 1472 LINE",
"125 165 LINE",
"83 77 OFFCURVE",
"-11 93 OFFCURVE",
"-61 88 CURVE SMOOTH",
"-89 85 OFFCURVE",
"-97 81 OFFCURVE",
"-97 51 CURVE",
"-99 36 OFFCURVE",
"-93 0 OFFCURVE",
"-71 0 CURVE SMOOTH",
"382 0 LINE SMOOTH",
"405 0 OFFCURVE",
"417 36 OFFCURVE",
"419 51 CURVE",
"418 72 OFFCURVE",
"412 85 OFFCURVE",
"387 88 CURVE",
"297 93 OFFCURVE",
"226 85 OFFCURVE",
"245 132 CURVE SMOOTH",
"745 1126 LINE",
"973 132 LINE {name = hr00;}"
);
},
{
closed = 1;
nodes = (
"933 447 LINE",
"929 535 LINE",
"383 535 LINE",
"357 447 LINE"
);
}
);
width = 1374;
}
);
unicode = 0041;
userData = {
com.typemytype.robofont.mark = (
0.6,
0.609,
1,
1
);
};
},
{
glyphname = Aogonek;
layers = (
{
components = (
{
name = A;
}
);
layerId = "D92FDD0B-F694-41DD-AE46-0E4F694F0F38";
paths = (
{
closed = 1;
nodes = (
"789 -385 OFFCURVE",
"874 -448 OFFCURVE",
"1039 -448 CURVE SMOOTH",
"1090 -448 OFFCURVE",
"1143 -438 OFFCURVE",
"1200 -422 CURVE SMOOTH",
"1215 -418 OFFCURVE",
"1227 -408 OFFCURVE",
"1230 -393 CURVE SMOOTH",
"1235 -367 OFFCURVE",
"1231 -350 OFFCURVE",
"1214 -349 CURVE SMOOTH",
"1166 -346 OFFCURVE",
"967 -381 OFFCURVE",
"967 -238 CURVE SMOOTH",
"967 -176 OFFCURVE",
"994 -69 OFFCURVE",
"1260 31 CURVE",
"1260 31 OFFCURVE",
"1089 15 OFFCURVE",
"1089 15 CURVE",
"970 -1 OFFCURVE",
"789 -145 OFFCURVE",
"789 -278 CURVE SMOOTH {name = hr00;}"
);
}
);
width = 1374;
}
);
unicode = 0104;
},
{
glyphname = AE;
layers = (
{
anchors = (
{
name = btm;
position = "{954, -170}";
},
{
name = top;
position = "{1501, 1700}";
}
);
layerId = "D92FDD0B-F694-41DD-AE46-0E4F694F0F38";
paths = (
{
closed = 1;
nodes = (
"1470 657 LINE SMOOTH",
"1526 657 OFFCURVE",
"1538 516 OFFCURVE",
"1537 473 CURVE SMOOTH",
"1537 447 OFFCURVE",
"1570 440 OFFCURVE",
"1591 440 CURVE SMOOTH",
"1606 440 OFFCURVE",
"1633 451 OFFCURVE",
"1635 474 CURVE SMOOTH",
"1683 917 LINE",
"1687 940 OFFCURVE",
"1661 951 OFFCURVE",
"1646 951 CURVE SMOOTH",
"1625 951 OFFCURVE",
"1592 944 OFFCURVE",
"1586 918 CURVE SMOOTH",
"1576 878 OFFCURVE",
"1537 743 OFFCURVE",
"1485 743 CURVE SMOOTH",
"1136 743 LINE",
"1136 657 LINE {name = hr00;}"
);
},
{
closed = 1;
nodes = (
"1685 1331 LINE SMOOTH",
"1833 1331 OFFCURVE",
"1864 1102 OFFCURVE",
"1863 1053 CURVE SMOOTH",
"1863 1027 OFFCURVE",
"1885 1020 OFFCURVE",
"1906 1020 CURVE SMOOTH",
"1921 1020 OFFCURVE",
"1949 1031 OFFCURVE",
"1952 1054 CURVE",
"1963 1418 LINE",
"663 1419 LINE SMOOTH",
"640 1419 OFFCURVE",
"629 1393 OFFCURVE",
"627 1378 CURVE SMOOTH",
"623 1348 OFFCURVE",
"640 1331 OFFCURVE",
"668 1331 CURVE SMOOTH",
"876 1331 LINE",
"179 165 LINE SMOOTH",
"131 83 OFFCURVE",
"52 93 OFFCURVE",
"10 88 CURVE SMOOTH",
"-17 85 OFFCURVE",
"-24 81 OFFCURVE",
"-27 51 CURVE SMOOTH",
"-29 36 OFFCURVE",
"-25 0 OFFCURVE",
"-3 0 CURVE SMOOTH",
"470 0 LINE SMOOTH",
"493 0 OFFCURVE",
"507 36 OFFCURVE",
"508 51 CURVE SMOOTH",
"510 72 OFFCURVE",
"505 85 OFFCURVE",
"479 88 CURVE",
"343 93 OFFCURVE",
"276 98 OFFCURVE",
"308 142 CURVE",
"1002 1331 LINE",
"1083 1331 LINE",
"926 152 LINE SMOOTH",
"921 108 OFFCURVE",
"852 93 OFFCURVE",
"803 88 CURVE SMOOTH",
"777 85 OFFCURVE",
"768 72 OFFCURVE",
"766 51 CURVE SMOOTH",
"764 36 OFFCURVE",
"773 0 OFFCURVE",
"796 0 CURVE SMOOTH",
"1244 0 LINE",
"1863 1 LINE",
"1921 372 LINE",
"1921 395 OFFCURVE",
"1907 406 OFFCURVE",
"1882 406 CURVE SMOOTH",
"1861 406 OFFCURVE",
"1831 398 OFFCURVE",
"1824 373 CURVE",
"1810 332 OFFCURVE",
"1754 101 OFFCURVE",
"1580 101 CURVE SMOOTH",
"1231 101 LINE",
"1177 102 OFFCURVE",
"1134 117 OFFCURVE",
"1144 197 CURVE SMOOTH",
"1296 1331 LINE"
);
},
{
closed = 1;
nodes = (
"993 495 LINE",
"1011 581 LINE",
"497 581 LINE",
"459 495 LINE"
);
}
);
width = 1988;
}
);
unicode = 00C6;
},
{
glyphname = B;
layers = (
{
anchors = (
{
name = btm;
position = "{642, -170}";
},
{
name = top;
position = "{822, 1700}";
}
);
layerId = "D92FDD0B-F694-41DD-AE46-0E4F694F0F38";
paths = (
{
closed = 1;
nodes = (
"25 35 OFFCURVE",
"31 0 OFFCURVE",
"55 0 CURVE SMOOTH",
"663 0 LINE SMOOTH",
"1021 0 OFFCURVE",
"1244 178 OFFCURVE",
"1239 460 CURVE SMOOTH",
"1236 678 OFFCURVE",
"1049 745 OFFCURVE",
"898 765 CURVE",
"1086 791 OFFCURVE",
"1257 963 OFFCURVE",
"1253 1134 CURVE SMOOTH",
"1248 1355 OFFCURVE",
"1050 1419 OFFCURVE",
"760 1419 CURVE SMOOTH",
"227 1419 LINE SMOOTH",
"204 1419 OFFCURVE",
"187 1383 OFFCURVE",
"187 1368 CURVE",
"186 1363 OFFCURVE",
"186 1359 OFFCURVE",
"186 1355 CURVE SMOOTH",
"185 1337 OFFCURVE",
"194 1333 OFFCURVE",
"217 1331 CURVE SMOOTH",
"281 1326 OFFCURVE",
"366 1321 OFFCURVE",
"369 1248 CURVE SMOOTH",
"369 1243 OFFCURVE",
"369 1239 OFFCURVE",
"368 1234 CURVE SMOOTH",
"219 152 LINE SMOOTH",
"214 107 OFFCURVE",
"137 94 OFFCURVE",
"62 88 CURVE SMOOTH",
"35 86 OFFCURVE",
"26 71 OFFCURVE",
"26 51 CURVE {name = hr00;}"
);
},
{
closed = 1;
nodes = (
"677 715 LINE SMOOTH",
"781 715 OFFCURVE",
"1015 696 OFFCURVE",
"1020 458 CURVE SMOOTH",
"1027 131 OFFCURVE",
"811 96 OFFCURVE",
"623 96 CURVE SMOOTH",
"574 96 OFFCURVE",
"415 100 OFFCURVE",
"413 133 CURVE",
"576 1331 LINE",
"697 1331 LINE SMOOTH",
"905 1331 OFFCURVE",
"1033 1287 OFFCURVE",
"1037 1128 CURVE SMOOTH",
"1043 854 OFFCURVE",
"816 801 OFFCURVE",
"686 801 CURVE SMOOTH",
"439 801 LINE",
"433 715 LINE"
);
}
);
width = 1339;
}
);
unicode = 0042;
},
{
glyphname = C;
layers = (
{
anchors = (
{
name = btm;
position = "{681, -170}";
},
{
name = top;
position = "{912, 1700}";
}
);
layerId = "D92FDD0B-F694-41DD-AE46-0E4F694F0F38";
paths = (
{
closed = 1;
nodes = (
"983 -30 OFFCURVE",
"1167 80 OFFCURVE",
"1176 108 CURVE",
"1203 372 LINE",
"1203 375 LINE SMOOTH",
"1203 396 OFFCURVE",
"1150 406 OFFCURVE",
"1135 406 CURVE SMOOTH",
"1113 406 OFFCURVE",
"1105 399 OFFCURVE",
"1095 373 CURVE",
"1046 200 OFFCURVE",
"952 65 OFFCURVE",
"734 65 CURVE SMOOTH",
"432 65 OFFCURVE",
"368 372 OFFCURVE",
"360 597 CURVE SMOOTH",
"340 1175 OFFCURVE",
"670 1353 OFFCURVE",
"892 1353 CURVE SMOOTH",
"1092 1353 OFFCURVE",
"1178 1256 OFFCURVE",
"1175 1039 CURVE",
"1179 1017 OFFCURVE",
"1200 1010 OFFCURVE",
"1218 1010 CURVE SMOOTH",
"1233 1010 OFFCURVE",
"1280 1020 OFFCURVE",
"1279 1051 CURVE",
"1307 1361 LINE",
"1245 1392 OFFCURVE",
"1137 1449 OFFCURVE",
"902 1449 CURVE SMOOTH",
"551 1449 OFFCURVE",
"95 1173 OFFCURVE",
"113 609 CURVE SMOOTH",
"126 189 OFFCURVE",
"354 -30 OFFCURVE",
"754 -30 CURVE SMOOTH {name = hr00;}"
);
}
);
width = 1315;
}
);
unicode = 0043;
},
{
glyphname = D;
layers = (
{
anchors = (
{
name = btm;
position = "{784, -170}";
},
{
name = top;
position = "{891, 1700}";
}
);
layerId = "D92FDD0B-F694-41DD-AE46-0E4F694F0F38";
paths = (
{
closed = 1;
nodes = (
"8 36 OFFCURVE",
"17 0 OFFCURVE",
"40 0 CURVE SMOOTH",
"613 0 LINE SMOOTH",
"1173 0 OFFCURVE",
"1475 322 OFFCURVE",
"1475 824 CURVE SMOOTH",
"1475 1095 OFFCURVE",
"1343 1419 OFFCURVE",
"732 1419 CURVE SMOOTH",
"212 1419 LINE SMOOTH",
"189 1419 OFFCURVE",
"171 1383 OFFCURVE",
"172 1368 CURVE",
"167 1338 OFFCURVE",
"173 1334 OFFCURVE",
"201 1331 CURVE SMOOTH",
"261 1326 OFFCURVE",
"371 1320 OFFCURVE",
"362 1234 CURVE",
"220 152 LINE",
"216 108 OFFCURVE",
"112 93 OFFCURVE",
"47 88 CURVE",
"20 85 OFFCURVE",
"11 72 OFFCURVE",
"11 51 CURVE {name = hr00;}"
);
},
{
closed = 1;
nodes = (
"580 1331 LINE",
"717 1331 LINE SMOOTH",
"1072 1331 OFFCURVE",
"1245 1192 OFFCURVE",
"1245 827 CURVE SMOOTH",
"1245 318 OFFCURVE",
"1025 101 OFFCURVE",
"655 101 CURVE SMOOTH",
"506 101 OFFCURVE",
"439 115 OFFCURVE",
"427 153 CURVE"
);
}
);
width = 1534;
}
);
unicode = 0044;
},
{
glyphname = Eth;
layers = (
{
components = (
{
name = D;
}
);
layerId = "D92FDD0B-F694-41DD-AE46-0E4F694F0F38";
paths = (
{
closed = 1;
nodes = (
"848 687 LINE",
"860 773 LINE",
"146 773 LINE",
"130 687 LINE {name = hr00;}"
);
}
);
width = 1534;
}
);
unicode = 00D0;
},
{
glyphname = Dcroat;
layers = (
{
components = (
{
name = D;
}
);
layerId = "D92FDD0B-F694-41DD-AE46-0E4F694F0F38";
paths = (
{
closed = 1;
nodes = (
"848 687 LINE",
"860 773 LINE",
"146 773 LINE",
"130 687 LINE {name = hr00;}"
);
}
);
width = 1534;
}
);
unicode = 0110;
},
{
glyphname = E;
layers = (
{
anchors = (
{
name = btm;
position = "{652, -170}";
},
{
name = top;
position = "{845, 1700}";
}
);
layerId = "D92FDD0B-F694-41DD-AE46-0E4F694F0F38";
paths = (
{
closed = 1;
nodes = (
"773 687 LINE SMOOTH",
"829 687 OFFCURVE",
"844 546 OFFCURVE",
"845 503 CURVE",
"843 477 OFFCURVE",
"874 470 OFFCURVE",
"895 470 CURVE SMOOTH",
"910 470 OFFCURVE",
"938 481 OFFCURVE",
"942 504 CURVE",
"992 947 LINE",
"996 970 OFFCURVE",
"968 981 OFFCURVE",
"953 981 CURVE SMOOTH",
"932 981 OFFCURVE",
"903 974 OFFCURVE",
"899 948 CURVE",
"890 908 OFFCURVE",
"840 780 OFFCURVE",
"787 773 CURVE",
"408 773 LINE",
"408 687 LINE {name = hr00;}"
);
},
{
closed = 1;
nodes = (
"991 1331 LINE SMOOTH",
"1129 1331 OFFCURVE",
"1161 1136 OFFCURVE",
"1159 1095 CURVE",
"1161 1069 OFFCURVE",
"1181 1062 OFFCURVE",
"1202 1062 CURVE SMOOTH",
"1217 1062 OFFCURVE",
"1244 1073 OFFCURVE",
"1245 1096 CURVE SMOOTH",
"1259 1419 LINE",
"220 1419 LINE SMOOTH",
"197 1419 OFFCURVE",
"179 1383 OFFCURVE",
"180 1368 CURVE",
"175 1338 OFFCURVE",
"181 1334 OFFCURVE",
"209 1331 CURVE SMOOTH",
"269 1326 OFFCURVE",
"379 1320 OFFCURVE",
"370 1234 CURVE",
"220 152 LINE",
"216 108 OFFCURVE",
"112 93 OFFCURVE",
"47 88 CURVE",
"22 85 OFFCURVE",
"13 72 OFFCURVE",
"13 51 CURVE",
"10 36 OFFCURVE",
"17 0 OFFCURVE",
"40 0 CURVE SMOOTH",
"1169 0 LINE",
"1264 372 LINE",
"1265 395 OFFCURVE",
"1248 406 OFFCURVE",
"1223 406 CURVE SMOOTH",
"1202 406 OFFCURVE",
"1183 398 OFFCURVE",
"1174 373 CURVE",
"1161 332 OFFCURVE",
"1056 97 OFFCURVE",
"892 97 CURVE SMOOTH",
"511 97 LINE",
"467 101 OFFCURVE",
"422 120 OFFCURVE",
"432 193 CURVE",
"588 1331 LINE"
);
}
);
width = 1338;
}
);
unicode = 0045;
},
{
glyphname = Eogonek;
layers = (
{
components = (
{
name = E;
}
);
layerId = "D92FDD0B-F694-41DD-AE46-0E4F694F0F38";
paths = (
{
closed = 1;
nodes = (
"650 -385 OFFCURVE",
"735 -448 OFFCURVE",
"900 -448 CURVE SMOOTH",
"951 -448 OFFCURVE",
"1004 -438 OFFCURVE",
"1061 -422 CURVE SMOOTH",
"1076 -418 OFFCURVE",
"1088 -408 OFFCURVE",
"1091 -393 CURVE SMOOTH",
"1096 -367 OFFCURVE",
"1092 -350 OFFCURVE",
"1075 -349 CURVE SMOOTH",
"1027 -346 OFFCURVE",
"828 -381 OFFCURVE",
"828 -238 CURVE SMOOTH",
"828 -176 OFFCURVE",
"855 -69 OFFCURVE",
"1121 31 CURVE",
"1121 31 OFFCURVE",
"950 15 OFFCURVE",
"950 15 CURVE",
"831 -1 OFFCURVE",
"650 -145 OFFCURVE",
"650 -278 CURVE SMOOTH {name = hr00;}"
);
}
);
width = 1338;
}
);
unicode = 0118;
},
{
glyphname = F;
layers = (
{
anchors = (
{
name = btm;
position = "{640, -170}";
},
{
name = top;
position = "{824, 1700}";
}
);
layerId = "D92FDD0B-F694-41DD-AE46-0E4F694F0F38";
paths = (
{
closed = 1;
nodes = (
"750 655 LINE SMOOTH",
"806 655 OFFCURVE",
"823 514 OFFCURVE",
"820 471 CURVE",
"822 445 OFFCURVE",
"848 438 OFFCURVE",
"869 438 CURVE SMOOTH",
"884 438 OFFCURVE",
"919 449 OFFCURVE",
"919 472 CURVE",
"969 915 LINE",
"970 938 OFFCURVE",
"946 949 OFFCURVE",
"931 949 CURVE SMOOTH",
"910 949 OFFCURVE",
"881 942 OFFCURVE",
"877 916 CURVE",
"864 876 OFFCURVE",
"818 748 OFFCURVE",
"768 741 CURVE",
"386 741 LINE",
"384 655 LINE {name = hr00;}"
);
},
{
closed = 1;
nodes = (
"974 1332 LINE SMOOTH",
"1112 1332 OFFCURVE",
"1150 1108 OFFCURVE",
"1152 1069 CURVE",
"1149 1043 OFFCURVE",
"1167 1036 OFFCURVE",
"1188 1036 CURVE SMOOTH",
"1203 1036 OFFCURVE",
"1231 1047 OFFCURVE",
"1236 1070 CURVE",
"1242 1419 LINE",
"228 1419 LINE SMOOTH",
"205 1419 OFFCURVE",
"187 1383 OFFCURVE",
"188 1368 CURVE",
"183 1338 OFFCURVE",
"189 1334 OFFCURVE",
"217 1331 CURVE",
"289 1326 OFFCURVE",
"387 1320 OFFCURVE",
"378 1234 CURVE",
"220 152 LINE",
"216 108 OFFCURVE",
"127 93 OFFCURVE",
"47 88 CURVE",
"22 85 OFFCURVE",
"13 72 OFFCURVE",
"13 51 CURVE",
"10 36 OFFCURVE",
"17 0 OFFCURVE",
"40 0 CURVE SMOOTH",
"672 0 LINE SMOOTH",
"695 0 OFFCURVE",
"701 36 OFFCURVE",
"704 51 CURVE",
"706 81 OFFCURVE",
"693 88 OFFCURVE",
"671 88 CURVE SMOOTH",
"586 88 OFFCURVE",
"423 111 OFFCURVE",
"432 197 CURVE",
"595 1332 LINE"
);
}
);
width = 1227;
}
);
unicode = 0046;
},
{
glyphname = G;
layers = (
{
anchors = (
{
name = btm;
position = "{814, -170}";
},
{
name = top;
position = "{957, 1700}";
}
);
layerId = "D92FDD0B-F694-41DD-AE46-0E4F694F0F38";
paths = (
{
closed = 1;
nodes = (
"1008 -30 OFFCURVE",
"1206 79 OFFCURVE",
"1235 123 CURVE",
"1280 489 LINE",
"1284 533 OFFCURVE",
"1345 548 OFFCURVE",
"1404 553 CURVE SMOOTH",
"1435 556 OFFCURVE",
"1443 576 OFFCURVE",
"1442 603 CURVE SMOOTH",
"1442 620 OFFCURVE",
"1432 641 OFFCURVE",
"1415 641 CURVE SMOOTH",
"903 641 LINE SMOOTH",
"861 641 OFFCURVE",
"865 569 OFFCURVE",
"860 574 CURVE",
"863 559 OFFCURVE",
"872 554 OFFCURVE",
"893 553 CURVE",
"964 547 OFFCURVE",
"1066 543 OFFCURVE",
"1071 475 CURVE",
"1027 170 LINE",
"1007 129 OFFCURVE",
"919 65 OFFCURVE",
"711 65 CURVE SMOOTH",
"517 65 OFFCURVE",
"336 260 OFFCURVE",
"336 648 CURVE SMOOTH",
"339 973 OFFCURVE",
"515 1353 OFFCURVE",
"911 1353 CURVE SMOOTH",
"1138 1353 OFFCURVE",
"1235 1216 OFFCURVE",
"1248 1039 CURVE SMOOTH",
"1248 1035 LINE",
"1252 1016 OFFCURVE",
"1265 1010 OFFCURVE",
"1282 1010 CURVE SMOOTH",
"1298 1010 OFFCURVE",
"1339 1020 OFFCURVE",
"1338 1051 CURVE",
"1377 1361 LINE",
"1309 1392 OFFCURVE",
"1166 1449 OFFCURVE",
"913 1449 CURVE SMOOTH",
"549 1449 OFFCURVE",
"97 1178 OFFCURVE",
"96 651 CURVE SMOOTH",
"96 177 OFFCURVE",
"400 -30 OFFCURVE",
"732 -30 CURVE SMOOTH {name = hr00;}"
);
}
);
width = 1485;
}
);
unicode = 0047;
},
{
glyphname = H;
layers = (
{
anchors = (
{
name = btm;
position = "{888, -170}";
},
{
name = top;
position = "{1005, 1700}";
}
);
layerId = "D92FDD0B-F694-41DD-AE46-0E4F694F0F38";
paths = (
{
closed = 1;
nodes = (
"1142 108 OFFCURVE",
"1059 93 OFFCURVE",
"994 88 CURVE",
"967 85 OFFCURVE",
"959 72 OFFCURVE",
"957 51 CURVE SMOOTH",
"955 36 OFFCURVE",
"966 0 OFFCURVE",
"989 0 CURVE SMOOTH",
"1494 0 LINE SMOOTH",
"1517 0 OFFCURVE",
"1528 36 OFFCURVE",
"1530 51 CURVE SMOOTH",
"1533 81 OFFCURVE",
"1525 85 OFFCURVE",
"1498 88 CURVE SMOOTH",
"1438 93 OFFCURVE",
"1347 99 OFFCURVE",
"1358 185 CURVE SMOOTH",
"1516 1267 LINE",
"1521 1311 OFFCURVE",
"1604 1326 OFFCURVE",
"1668 1331 CURVE",
"1694 1334 OFFCURVE",
"1703 1347 OFFCURVE",
"1706 1368 CURVE",
"1707 1383 OFFCURVE",
"1701 1419 OFFCURVE",
"1678 1419 CURVE SMOOTH",
"1173 1419 LINE SMOOTH",
"1150 1419 OFFCURVE",
"1134 1383 OFFCURVE",
"1133 1368 CURVE",
"1129 1338 OFFCURVE",
"1136 1334 OFFCURVE",
"1164 1331 CURVE SMOOTH",
"1225 1326 OFFCURVE",
"1315 1320 OFFCURVE",
"1304 1234 CURVE",
"1147 152 LINE {name = hr00;}"
);
},
{
closed = 1;
nodes = (
"403 773 LINE",
"397 687 LINE",
"1319 687 LINE",
"1341 773 LINE"
);
},
{
closed = 1;
nodes = (
"596 1311 OFFCURVE",
"679 1326 OFFCURVE",
"743 1331 CURVE",
"769 1334 OFFCURVE",
"778 1347 OFFCURVE",
"781 1368 CURVE",
"782 1383 OFFCURVE",
"776 1419 OFFCURVE",
"753 1419 CURVE SMOOTH",
"258 1419 LINE SMOOTH",
"235 1419 OFFCURVE",
"219 1383 OFFCURVE",
"218 1368 CURVE",
"214 1338 OFFCURVE",
"221 1334 OFFCURVE",
"249 1331 CURVE SMOOTH",
"310 1326 OFFCURVE",
"390 1320 OFFCURVE",
"379 1234 CURVE SMOOTH",
"222 152 LINE",
"217 108 OFFCURVE",
"144 93 OFFCURVE",
"79 88 CURVE",
"52 85 OFFCURVE",
"44 72 OFFCURVE",
"42 51 CURVE SMOOTH",
"40 36 OFFCURVE",
"51 0 OFFCURVE",
"74 0 CURVE SMOOTH",
"569 0 LINE SMOOTH",
"592 0 OFFCURVE",
"603 36 OFFCURVE",
"605 51 CURVE SMOOTH",
"608 81 OFFCURVE",
"600 85 OFFCURVE",
"573 88 CURVE SMOOTH",
"513 93 OFFCURVE",
"422 99 OFFCURVE",
"433 185 CURVE SMOOTH",
"591 1267 LINE"
);
}
);
width = 1669;
}
);
unicode = 0048;
},
{
glyphname = Hbar;
layers = (
{
layerId = "D92FDD0B-F694-41DD-AE46-0E4F694F0F38";
paths = (
{
closed = 1;
nodes = (
"116 990 OFFCURVE",
"102 953 OFFCURVE",
"99 928 CURVE",
"95 912 OFFCURVE",
"102 895 OFFCURVE",
"118 894 CURVE",
"1647 894 LINE",
"1662 900 OFFCURVE",
"1676 937 OFFCURVE",
"1679 962 CURVE",
"1683 978 OFFCURVE",
"1676 995 OFFCURVE",
"1660 996 CURVE",
"130 996 LINE",
"131 996 LINE {name = hr00;}"
);
},
{
closed = 1;
nodes = (
"1142 108 OFFCURVE",
"1059 93 OFFCURVE",
"994 88 CURVE",
"967 85 OFFCURVE",
"959 72 OFFCURVE",
"957 51 CURVE SMOOTH",
"955 36 OFFCURVE",
"966 0 OFFCURVE",
"989 0 CURVE SMOOTH",
"1494 0 LINE SMOOTH",
"1517 0 OFFCURVE",
"1528 36 OFFCURVE",
"1530 51 CURVE SMOOTH",
"1533 81 OFFCURVE",
"1525 85 OFFCURVE",
"1498 88 CURVE SMOOTH",
"1438 93 OFFCURVE",
"1347 99 OFFCURVE",
"1358 185 CURVE SMOOTH",
"1499 1267 LINE",
"1504 1311 OFFCURVE",
"1587 1326 OFFCURVE",
"1651 1331 CURVE",
"1677 1334 OFFCURVE",
"1686 1347 OFFCURVE",
"1689 1368 CURVE",
"1690 1383 OFFCURVE",
"1684 1419 OFFCURVE",
"1661 1419 CURVE SMOOTH",
"1156 1419 LINE SMOOTH",
"1133 1419 OFFCURVE",
"1117 1383 OFFCURVE",
"1116 1368 CURVE",
"1112 1338 OFFCURVE",
"1119 1334 OFFCURVE",
"1147 1331 CURVE SMOOTH",
"1208 1326 OFFCURVE",
"1298 1320 OFFCURVE",
"1287 1234 CURVE",
"1147 152 LINE"
);
},
{
closed = 1;
nodes = (
"370 652 LINE",
"369 566 LINE",
"1283 566 LINE",
"1282 652 LINE"
);
},
{
closed = 1;
nodes = (
"579 1311 OFFCURVE",
"662 1326 OFFCURVE",
"726 1331 CURVE",
"752 1334 OFFCURVE",
"761 1347 OFFCURVE",
"764 1368 CURVE",
"765 1383 OFFCURVE",
"759 1419 OFFCURVE",
"736 1419 CURVE SMOOTH",
"241 1419 LINE SMOOTH",
"218 1419 OFFCURVE",
"202 1383 OFFCURVE",
"201 1368 CURVE",
"197 1338 OFFCURVE",
"204 1334 OFFCURVE",
"232 1331 CURVE SMOOTH",
"293 1326 OFFCURVE",
"373 1320 OFFCURVE",
"362 1234 CURVE SMOOTH",
"222 152 LINE",
"217 108 OFFCURVE",
"144 93 OFFCURVE",
"79 88 CURVE",
"52 85 OFFCURVE",
"44 72 OFFCURVE",
"42 51 CURVE SMOOTH",
"40 36 OFFCURVE",
"51 0 OFFCURVE",
"74 0 CURVE SMOOTH",
"569 0 LINE SMOOTH",
"592 0 OFFCURVE",
"603 36 OFFCURVE",
"605 51 CURVE SMOOTH",
"608 81 OFFCURVE",
"600 85 OFFCURVE",
"573 88 CURVE SMOOTH",
"513 93 OFFCURVE",
"422 99 OFFCURVE",
"433 185 CURVE SMOOTH",
"574 1267 LINE"
);
}
);
width = 1669;
}
);
unicode = 0126;
},
{
glyphname = I;
layers = (
{
anchors = (
{
name = btm;
position = "{466, -170}";
},
{
name = top;
position = "{569, 1700}";
}
);
layerId = "D92FDD0B-F694-41DD-AE46-0E4F694F0F38";
paths = (
{
closed = 1;
nodes = (
"63 36 OFFCURVE",
"67 0 OFFCURVE",
"90 0 CURVE SMOOTH",
"595 0 LINE SMOOTH",
"618 0 OFFCURVE",
"634 36 OFFCURVE",
"636 51 CURVE SMOOTH",
"640 81 OFFCURVE",
"632 85 OFFCURVE",
"605 88 CURVE SMOOTH",
"545 93 OFFCURVE",
"454 99 OFFCURVE",
"467 185 CURVE SMOOTH",
"614 1267 LINE SMOOTH",
"624 1311 OFFCURVE",
"705 1326 OFFCURVE",
"770 1331 CURVE SMOOTH",
"796 1334 OFFCURVE",
"807 1347 OFFCURVE",
"810 1368 CURVE SMOOTH",
"810 1383 OFFCURVE",
"808 1419 OFFCURVE",
"785 1419 CURVE SMOOTH",
"280 1419 LINE SMOOTH",
"257 1419 OFFCURVE",
"237 1383 OFFCURVE",
"237 1368 CURVE SMOOTH",
"231 1338 OFFCURVE",
"238 1334 OFFCURVE",
"266 1331 CURVE SMOOTH",
"326 1326 OFFCURVE",
"416 1320 OFFCURVE",
"404 1234 CURVE SMOOTH",
"255 152 LINE SMOOTH",
"251 108 OFFCURVE",
"166 93 OFFCURVE",
"101 88 CURVE SMOOTH",
"75 85 OFFCURVE",
"66 72 OFFCURVE",
"65 51 CURVE SMOOTH {name = hr00;}"
);
}
);
width = 798;
}
);
unicode = 0049;
},
{
glyphname = Iogonek;
layers = (
{
components = (
{
name = I;
}
);
layerId = "D92FDD0B-F694-41DD-AE46-0E4F694F0F38";
paths = (
{
closed = 1;
nodes = (
"32 -385 OFFCURVE",
"117 -448 OFFCURVE",
"282 -448 CURVE SMOOTH",
"333 -448 OFFCURVE",
"386 -438 OFFCURVE",
"443 -422 CURVE SMOOTH",
"458 -418 OFFCURVE",
"470 -408 OFFCURVE",
"473 -393 CURVE SMOOTH",
"478 -367 OFFCURVE",
"474 -350 OFFCURVE",
"457 -349 CURVE SMOOTH",
"409 -346 OFFCURVE",
"210 -381 OFFCURVE",
"210 -238 CURVE SMOOTH",
"210 -176 OFFCURVE",
"237 -69 OFFCURVE",
"503 31 CURVE",
"503 31 OFFCURVE",
"332 15 OFFCURVE",
"332 15 CURVE",
"213 -1 OFFCURVE",
"32 -145 OFFCURVE",
"32 -278 CURVE SMOOTH {name = hr00;}"
);
}
);
width = 798;
}
);
unicode = 012E;
},
{
glyphname = J;
layers = (
{
anchors = (
{
name = btm;
position = "{639, -170}";
},
{
name = top;
position = "{915, 1700}";
}
);
layerId = "D92FDD0B-F694-41DD-AE46-0E4F694F0F38";
paths = (
{
closed = 1;
nodes = (
"599 -30 OFFCURVE",
"832 48 OFFCURVE",
"880 439 CURVE SMOOTH",
"988 1267 LINE SMOOTH",
"995 1311 OFFCURVE",
"1092 1325 OFFCURVE",
"1152 1331 CURVE SMOOTH",
"1178 1333 OFFCURVE",
"1192 1350 OFFCURVE",
"1192 1372 CURVE SMOOTH",
"1190 1389 OFFCURVE",
"1185 1419 OFFCURVE",
"1164 1419 CURVE SMOOTH",
"619 1419 LINE SMOOTH",
"596 1419 OFFCURVE",
"578 1383 OFFCURVE",
"579 1368 CURVE SMOOTH",
"578 1362 OFFCURVE",
"577 1357 OFFCURVE",
"577 1352 CURVE SMOOTH",
"577 1337 OFFCURVE",
"586 1333 OFFCURVE",
"608 1331 CURVE SMOOTH",
"676 1326 OFFCURVE",
"787 1320 OFFCURVE",
"780 1248 CURVE SMOOTH",
"667 406 LINE SMOOTH",
"638 161 OFFCURVE",
"541 59 OFFCURVE",
"400 59 CURVE SMOOTH",
"331 59 OFFCURVE",
"279 82 OFFCURVE",
"245 113 CURVE",
"282 378 LINE",
"282 418 OFFCURVE",
"237 433 OFFCURVE",
"213 433 CURVE SMOOTH",
"152 433 OFFCURVE",
"45 397 OFFCURVE",
"45 260 CURVE SMOOTH",
"45 69 OFFCURVE",
"217 -30 OFFCURVE",
"399 -30 CURVE SMOOTH {name = hr01;}"
);
}
);
width = 1060;
}
);
unicode = 004A;
},
{
glyphname = K;
layers = (
{
anchors = (
{
name = btm;
position = "{705, -170}";
},
{
name = top;
position = "{972, 1700}";
}
);
layerId = "D92FDD0B-F694-41DD-AE46-0E4F694F0F38";
paths = (
{
closed = 1;
nodes = (
"42 36 OFFCURVE",
"51 0 OFFCURVE",
"74 0 CURVE SMOOTH",
"569 0 LINE SMOOTH",
"592 0 OFFCURVE",
"605 36 OFFCURVE",
"608 51 CURVE SMOOTH",
"610 81 OFFCURVE",
"602 85 OFFCURVE",
"575 88 CURVE SMOOTH",
"515 93 OFFCURVE",
"421 99 OFFCURVE",
"430 185 CURVE SMOOTH",
"580 1267 LINE SMOOTH",
"588 1311 OFFCURVE",
"658 1326 OFFCURVE",
"723 1331 CURVE",
"749 1334 OFFCURVE",
"759 1347 OFFCURVE",
"763 1368 CURVE SMOOTH",
"762 1383 OFFCURVE",
"758 1419 OFFCURVE",
"735 1419 CURVE SMOOTH",
"240 1419 LINE SMOOTH",
"217 1419 OFFCURVE",
"199 1383 OFFCURVE",
"200 1368 CURVE SMOOTH",
"195 1338 OFFCURVE",
"201 1334 OFFCURVE",
"229 1331 CURVE SMOOTH",
"289 1326 OFFCURVE",
"379 1320 OFFCURVE",
"370 1234 CURVE SMOOTH",
"220 152 LINE SMOOTH",
"216 108 OFFCURVE",
"146 94 OFFCURVE",
"81 88 CURVE SMOOTH",
"54 85 OFFCURVE",
"45 72 OFFCURVE",
"45 51 CURVE SMOOTH {name = hr00;}"
);
},
{
closed = 1;
nodes = (
"683 674 OFFCURVE",
"885 237 OFFCURVE",
"1021 70 CURVE SMOOTH",
"1050 37 OFFCURVE",
"1084 0 OFFCURVE",
"1155 0 CURVE SMOOTH",
"1387 0 LINE SMOOTH",
"1409 0 OFFCURVE",
"1419 17 OFFCURVE",
"1422 32 CURVE SMOOTH",
"1424 62 OFFCURVE",
"1421 86 OFFCURVE",
"1393 89 CURVE SMOOTH",
"1302 99 OFFCURVE",
"1179 245 OFFCURVE",
"1124 317 CURVE SMOOTH",
"1015 464 OFFCURVE",
"870 684 OFFCURVE",
"755 767 CURVE",
"1262 1263 LINE SMOOTH",
"1314 1313 OFFCURVE",
"1389 1330 OFFCURVE",
"1457 1330 CURVE SMOOTH",
"1479 1330 OFFCURVE",
"1493 1343 OFFCURVE",
"1498 1367 CURVE SMOOTH",
"1497 1382 OFFCURVE",
"1493 1418 OFFCURVE",
"1470 1418 CURVE SMOOTH",
"1038 1418 LINE SMOOTH",
"1015 1418 OFFCURVE",
"997 1382 OFFCURVE",
"998 1367 CURVE SMOOTH",
"994 1346 OFFCURVE",
"996 1333 OFFCURVE",
"1021 1330 CURVE SMOOTH",
"1063 1326 OFFCURVE",
"1163 1320 OFFCURVE",
"1121 1276 CURVE SMOOTH",
"540 692 LINE"
);
}
);
width = 1422;
}
);
unicode = 004B;
},
{
glyphname = L;
layers = (
{
anchors = (
{
name = btm;
position = "{570, -170}";
},
{
name = top;
position = "{580, 1700}";
}
);
layerId = "D92FDD0B-F694-41DD-AE46-0E4F694F0F38";
paths = (
{
closed = 1;
nodes = (
"28 36 OFFCURVE",
"37 0 OFFCURVE",
"60 0 CURVE SMOOTH",
"1071 0 LINE",
"1172 439 LINE SMOOTH",
"1175 462 OFFCURVE",
"1149 473 OFFCURVE",
"1124 473 CURVE SMOOTH",
"1103 473 OFFCURVE",
"1083 464 OFFCURVE",
"1074 440 CURVE SMOOTH",
"1004 296 OFFCURVE",
"956 101 OFFCURVE",
"773 101 CURVE SMOOTH",
"503 101 LINE SMOOTH",
"458 102 OFFCURVE",
"421 116 OFFCURVE",
"428 177 CURVE SMOOTH",
"569 1237 LINE SMOOTH",
"582 1311 OFFCURVE",
"681 1331 OFFCURVE",
"755 1331 CURVE SMOOTH",
"780 1331 OFFCURVE",
"791 1347 OFFCURVE",
"795 1368 CURVE SMOOTH",
"794 1383 OFFCURVE",
"790 1419 OFFCURVE",
"767 1419 CURVE SMOOTH",
"232 1419 LINE SMOOTH",
"209 1419 OFFCURVE",
"191 1383 OFFCURVE",
"192 1368 CURVE SMOOTH",
"187 1338 OFFCURVE",
"193 1334 OFFCURVE",
"221 1331 CURVE SMOOTH",
"281 1326 OFFCURVE",
"371 1320 OFFCURVE",
"362 1234 CURVE SMOOTH",
"220 152 LINE SMOOTH",
"216 108 OFFCURVE",
"132 94 OFFCURVE",
"67 88 CURVE SMOOTH",
"40 85 OFFCURVE",
"31 72 OFFCURVE",
"31 51 CURVE SMOOTH {name = hr00;}"
);
}
);
width = 1236;
}
);
unicode = 004C;
},
{
glyphname = Lslash;
layers = (
{
components = (
{
name = L;
}
);
layerId = "D92FDD0B-F694-41DD-AE46-0E4F694F0F38";
paths = (
{
closed = 1;
nodes = (
"833 853 LINE",
"794 941 LINE",
"72 640 LINE",
"111 552 LINE {name = hr00;}"
);
}
);
width = 1236;
}
);
unicode = 0141;
},
{
glyphname = M;
layers = (
{
anchors = (
{
name = btm;
position = "{825, -170}";
},
{
name = top;
position = "{1126, 1700}";
}
);
layerId = "D92FDD0B-F694-41DD-AE46-0E4F694F0F38";
paths = (
{
closed = 1;
nodes = (
"829 1 LINE",
"833 0 LINE",
"883 0 LINE",
"1484 1281 LINE",
"1513 1281 LINE",
"1436 152 LINE SMOOTH",
"1433 108 OFFCURVE",
"1309 93 OFFCURVE",
"1244 88 CURVE",
"1217 85 OFFCURVE",
"1209 72 OFFCURVE",
"1208 51 CURVE SMOOTH",
"1206 36 OFFCURVE",
"1214 0 OFFCURVE",
"1237 0 CURVE SMOOTH",
"1812 0 LINE SMOOTH",
"1835 0 OFFCURVE",
"1849 36 OFFCURVE",
"1851 51 CURVE SMOOTH",
"1853 81 OFFCURVE",
"1845 85 OFFCURVE",
"1818 88 CURVE SMOOTH",
"1758 93 OFFCURVE",
"1641 99 OFFCURVE",
"1646 175 CURVE SMOOTH",
"1716 1267 LINE SMOOTH",
"1721 1311 OFFCURVE",
"1825 1326 OFFCURVE",
"1890 1331 CURVE",
"1916 1334 OFFCURVE",
"1925 1347 OFFCURVE",
"1928 1368 CURVE SMOOTH",
"1928 1383 OFFCURVE",
"1924 1419 OFFCURVE",
"1901 1419 CURVE SMOOTH",
"1443 1419 LINE",
"1428 1373 OFFCURVE",
"1403 1326 OFFCURVE",
"1370 1246 CURVE",
"959 376 LINE",
"947 376 LINE",
"734 1419 LINE",
"220 1419 LINE",
"195 1418 OFFCURVE",
"179 1383 OFFCURVE",
"179 1368 CURVE SMOOTH",
"175 1338 OFFCURVE",
"182 1334 OFFCURVE",
"210 1331 CURVE",
"282 1326 OFFCURVE",
"414 1319 OFFCURVE",
"401 1234 CURVE SMOOTH",
"197 184 LINE SMOOTH",
"184 101 OFFCURVE",
"71 93 OFFCURVE",
"-5 88 CURVE",
"-32 85 OFFCURVE",
"-39 72 OFFCURVE",
"-40 51 CURVE SMOOTH",
"-42 36 OFFCURVE",
"-38 0 OFFCURVE",
"-16 0 CURVE SMOOTH",
"479 0 LINE SMOOTH",
"502 0 OFFCURVE",
"516 36 OFFCURVE",
"518 51 CURVE SMOOTH",
"520 81 OFFCURVE",
"512 85 OFFCURVE",
"485 88 CURVE",
"413 93 OFFCURVE",
"290 100 OFFCURVE",
"303 185 CURVE SMOOTH",
"503 1281 LINE",
"534 1281 LINE",
"829 2 LINE",
"832 0 LINE {name = hr00;}"
);
}
);
width = 1899;
}
);
unicode = 004D;
},
{
glyphname = N;
layers = (
{
anchors = (
{
name = btm;
position = "{710, -170}";
},
{
name = top;
position = "{1037, 1700}";
}
);
layerId = "D92FDD0B-F694-41DD-AE46-0E4F694F0F38";
paths = (
{
closed = 1;
nodes = (
"12 36 OFFCURVE",
"17 0 OFFCURVE",
"40 0 CURVE SMOOTH",
"515 0 LINE SMOOTH",
"538 0 OFFCURVE",
"551 36 OFFCURVE",
"554 51 CURVE SMOOTH",
"558 81 OFFCURVE",
"550 85 OFFCURVE",
"523 88 CURVE SMOOTH",
"463 93 OFFCURVE",
"326 99 OFFCURVE",
"336 165 CURVE SMOOTH",
"501 1188 LINE {name = hr02;}",
"518 1188 LINE",
"1143 -8 LINE",
"1151 -20 OFFCURVE",
"1182 -30 OFFCURVE",
"1203 -30 CURVE SMOOTH",
"1231 -30 OFFCURVE",
"1271 -16 OFFCURVE",
"1275 40 CURVE SMOOTH",
"1277 78 OFFCURVE",
"1276 88 OFFCURVE",
"1280 113 CURVE SMOOTH",
"1454 1234 LINE SMOOTH",
"1467 1320 OFFCURVE",
"1582 1325 OFFCURVE",
"1644 1331 CURVE SMOOTH",
"1670 1334 OFFCURVE",
"1680 1347 OFFCURVE",
"1684 1368 CURVE SMOOTH",
"1685 1383 OFFCURVE",
"1681 1419 OFFCURVE",
"1658 1419 CURVE SMOOTH",
"1183 1419 LINE SMOOTH",
"1160 1419 OFFCURVE",
"1142 1383 OFFCURVE",
"1141 1368 CURVE SMOOTH",
"1136 1338 OFFCURVE",
"1142 1334 OFFCURVE",
"1170 1331 CURVE SMOOTH",
"1230 1326 OFFCURVE",
"1363 1320 OFFCURVE",
"1350 1234 CURVE SMOOTH",
"1214 318 LINE",
"1202 318 LINE",
"616 1419 LINE",
"257 1419 LINE SMOOTH",
"234 1419 OFFCURVE",
"216 1383 OFFCURVE",
"215 1368 CURVE SMOOTH",
"210 1338 OFFCURVE",
"216 1334 OFFCURVE",
"244 1331 CURVE SMOOTH",
"304 1326 OFFCURVE",
"420 1290 OFFCURVE",
"405 1204 CURVE SMOOTH",
"227 172 LINE SMOOTH",
"218 108 OFFCURVE",
"114 93 OFFCURVE",
"51 88 CURVE {name = hr03;}",
"26 85 OFFCURVE",
"17 72 OFFCURVE",
"15 51 CURVE SMOOTH {name = hr01;}"
);
}
);
width = 1571;
}
);
unicode = 004E;
},
{
glyphname = Eng;
layers = (
{
anchors = (
{
name = btm;
position = "{885, -170}";
},
{
name = top;
position = "{885, 1700}";
}
);
layerId = "D92FDD0B-F694-41DD-AE46-0E4F694F0F38";
paths = (
{
closed = 1;
nodes = (
"1164 -21 OFFCURVE",
"1058 -332 OFFCURVE",
"869 -332 CURVE",
"842 -256 OFFCURVE",
"829 -204 OFFCURVE",
"815 -181 CURVE",
"796 -167 OFFCURVE",
"682 -189 OFFCURVE",
"664 -279 CURVE SMOOTH",
"651 -348 OFFCURVE",
"693 -449 OFFCURVE",
"821 -449 CURVE SMOOTH",
"1009 -449 OFFCURVE",
"1207 -279 OFFCURVE",
"1269 41 CURVE",
"1247 58 OFFCURVE",
"1204 75 OFFCURVE",
"1141 26 CURVE {name = hr00;}"
);
},
{
closed = 1;
nodes = (
"12 36 OFFCURVE",
"17 0 OFFCURVE",
"40 0 CURVE SMOOTH",
"515 0 LINE SMOOTH",
"538 0 OFFCURVE",
"551 36 OFFCURVE",
"554 51 CURVE",
"558 81 OFFCURVE",
"550 85 OFFCURVE",
"523 88 CURVE SMOOTH",
"463 93 OFFCURVE",
"326 99 OFFCURVE",
"336 165 CURVE SMOOTH",
"504 1188 LINE",
"521 1188 LINE",
"1141 26 LINE",
"1149 14 OFFCURVE",
"1182 -30 OFFCURVE",
"1203 -30 CURVE SMOOTH",
"1231 -30 OFFCURVE",
"1259 -14 OFFCURVE",
"1269 41 CURVE SMOOTH",
"1276 78 OFFCURVE",
"1284 88 OFFCURVE",
"1465 1234 CURVE",
"1478 1320 OFFCURVE",
"1593 1325 OFFCURVE",
"1655 1331 CURVE SMOOTH",
"1681 1334 OFFCURVE",
"1691 1347 OFFCURVE",
"1695 1368 CURVE",
"1696 1383 OFFCURVE",
"1692 1419 OFFCURVE",
"1669 1419 CURVE SMOOTH",
"1194 1419 LINE SMOOTH",
"1171 1419 OFFCURVE",
"1153 1383 OFFCURVE",
"1152 1368 CURVE",
"1147 1338 OFFCURVE",
"1153 1334 OFFCURVE",
"1181 1331 CURVE SMOOTH",
"1241 1326 OFFCURVE",
"1374 1320 OFFCURVE",
"1361 1234 CURVE SMOOTH",
"1214 318 LINE",
"1202 318 LINE",
"619 1419 LINE",
"260 1419 LINE SMOOTH",
"237 1419 OFFCURVE",
"219 1383 OFFCURVE",
"218 1368 CURVE",
"213 1338 OFFCURVE",
"219 1334 OFFCURVE",
"247 1331 CURVE SMOOTH",
"307 1326 OFFCURVE",
"423 1290 OFFCURVE",
"408 1204 CURVE SMOOTH",
"227 172 LINE",
"218 108 OFFCURVE",
"114 93 OFFCURVE",
"51 88 CURVE",
"26 85 OFFCURVE",
"17 72 OFFCURVE",
"15 51 CURVE"
);
}
);
width = 1571;
}
);
unicode = 014A;
},
{
glyphname = O;
layers = (
{
anchors = (
{
name = btm;
position = "{618, -170}";
},
{
name = top;
position = "{922, 1700}";
}
);
layerId = "D92FDD0B-F694-41DD-AE46-0E4F694F0F38";
paths = (
{
closed = 1;
nodes = (
"136 245 OFFCURVE",
"338 -29 OFFCURVE",
"717 -29 CURVE SMOOTH",
"1155 -29 OFFCURVE",
"1445 395 OFFCURVE",
"1429 848 CURVE SMOOTH",
"1417 1186 OFFCURVE",
"1224 1449 OFFCURVE",
"845 1449 CURVE SMOOTH",
"407 1449 OFFCURVE",
"108 1040 OFFCURVE",
"124 586 CURVE SMOOTH {name = hr00;}"
);
},
{
closed = 1;
nodes = (
"469 65 OFFCURVE",
"374 231 OFFCURVE",
"366 499 CURVE SMOOTH",
"352 905 OFFCURVE",
"454 1356 OFFCURVE",
"837 1356 CURVE SMOOTH",
"1087 1356 OFFCURVE",
"1175 1194 OFFCURVE",
"1183 925 CURVE SMOOTH",
"1197 520 OFFCURVE",
"1100 65 OFFCURVE",
"719 65 CURVE SMOOTH"
);
}
);
width = 1496;
}
);
unicode = 004F;
},
{
glyphname = Oslash;
layers = (
{
components = (
{
name = O;
}
);
layerId = "D92FDD0B-F694-41DD-AE46-0E4F694F0F38";
paths = (
{
closed = 1;
nodes = (
"1318 1537 LINE",
"1234 1585 LINE",
"215 -124 LINE",
"298 -173 LINE {name = hr00;}"
);
}
);
width = 1496;
}
);
unicode = 00D8;
},
{
glyphname = OE;
layers = (
{
anchors = (
{
name = btm;
position = "{1111, -170}";
},
{
name = top;
position = "{1398, 1700}";
}
);
layerId = "D92FDD0B-F694-41DD-AE46-0E4F694F0F38";
paths = (
{
closed = 1;
nodes = (
"1456 687 LINE SMOOTH",
"1512 687 OFFCURVE",
"1529 545 OFFCURVE",
"1528 502 CURVE SMOOTH",
"1527 476 OFFCURVE",
"1557 470 OFFCURVE",
"1578 470 CURVE SMOOTH",
"1593 470 OFFCURVE",
"1622 481 OFFCURVE",
"1625 504 CURVE SMOOTH",
"1675 948 LINE",
"1676 971 OFFCURVE",
"1652 981 OFFCURVE",
"1636 981 CURVE SMOOTH",
"1614 981 OFFCURVE",
"1587 974 OFFCURVE",
"1582 948 CURVE",
"1572 908 OFFCURVE",
"1516 773 OFFCURVE",
"1471 773 CURVE SMOOTH",
"1076 773 LINE",
"1076 687 LINE {name = hr00;}"
);
},
{
closed = 1;
nodes = (
"1269 1297 OFFCURVE",
"1296 1325 OFFCURVE",
"1359 1331 CURVE",
"1673 1332 LINE SMOOTH",
"1811 1332 OFFCURVE",
"1842 1143 OFFCURVE",
"1842 1094 CURVE",
"1843 1068 OFFCURVE",
"1865 1062 OFFCURVE",
"1886 1062 CURVE SMOOTH",
"1901 1062 OFFCURVE",
"1925 1072 OFFCURVE",
"1928 1095 CURVE",
"1942 1418 LINE",
"1393 1419 LINE",
"1085 1419 LINE",
"1021 1421 OFFCURVE",
"983 1449 OFFCURVE",
"826 1449 CURVE SMOOTH",
"418 1449 OFFCURVE",
"116 1126 OFFCURVE",
"64 716 CURVE SMOOTH",
"13 306 OFFCURVE",
"210 -29 OFFCURVE",
"615 -29 CURVE SMOOTH",
"785 -29 OFFCURVE",
"832 -2 OFFCURVE",
"993 0 CURVE",
"1210 0 LINE",
"1852 0 LINE",
"1947 372 LINE",
"1947 395 OFFCURVE",
"1932 406 OFFCURVE",
"1907 406 CURVE SMOOTH",
"1886 406 OFFCURVE",
"1865 398 OFFCURVE",
"1857 373 CURVE",
"1817 263 OFFCURVE",
"1709 97 OFFCURVE",
"1575 97 CURVE SMOOTH",
"1194 97 LINE SMOOTH",
"1152 97 OFFCURVE",
"1107 124 OFFCURVE",
"1115 193 CURVE",
"1264 1257 LINE"
);
},
{
closed = 1;
nodes = (
"314 65 OFFCURVE",
"255 312 OFFCURVE",
"306 714 CURVE SMOOTH",
"356 1116 OFFCURVE",
"489 1360 OFFCURVE",
"806 1360 CURVE SMOOTH",
"971 1360 OFFCURVE",
"1035 1313 OFFCURVE",
"1059 1275 CURVE",
"1059 1274 LINE",
"899 141 LINE",
"851 78 OFFCURVE",
"767 65 OFFCURVE",
"631 65 CURVE SMOOTH"
);
}
);
width = 2044;
}
);
unicode = 0152;
},
{
glyphname = P;
layers = (
{
anchors = (
{
name = btm;
position = "{684, -170}";
},
{
name = top;
position = "{811, 1700}";
}
);
layerId = "D92FDD0B-F694-41DD-AE46-0E4F694F0F38";
paths = (
{
closed = 1;
nodes = (
"710 1331 LINE SMOOTH",
"983 1331 OFFCURVE",
"1044 1229 OFFCURVE",
"1049 1071 CURVE SMOOTH",
"1059 767 OFFCURVE",
"888 635 OFFCURVE",
"642 635 CURVE SMOOTH",
"372 635 LINE",
"353 555 LINE",
"637 555 LINE SMOOTH",
"970 555 OFFCURVE",
"1288 721 OFFCURVE",
"1276 1063 CURVE SMOOTH",
"1268 1285 OFFCURVE",
"1134 1419 OFFCURVE",
"751 1419 CURVE SMOOTH",
"240 1419 LINE SMOOTH",
"217 1419 OFFCURVE",
"199 1383 OFFCURVE",
"200 1368 CURVE",
"195 1338 OFFCURVE",
"201 1334 OFFCURVE",
"229 1331 CURVE SMOOTH",
"289 1326 OFFCURVE",
"380 1320 OFFCURVE",
"370 1234 CURVE",
"220 152 LINE",
"215 108 OFFCURVE",
"132 93 OFFCURVE",
"67 88 CURVE",
"40 85 OFFCURVE",
"31 72 OFFCURVE",
"31 51 CURVE",
"28 36 OFFCURVE",
"37 0 OFFCURVE",
"60 0 CURVE SMOOTH",
"625 0 LINE SMOOTH",
"648 0 OFFCURVE",
"661 36 OFFCURVE",
"664 51 CURVE",
"666 81 OFFCURVE",
"658 85 OFFCURVE",
"631 88 CURVE",
"555 93 OFFCURVE",
"420 99 OFFCURVE",
"430 185 CURVE",
"587 1331 LINE {name = hr00;}"
);
}
);
width = 1249;
}
);
unicode = 0050;
userData = {
com.typemytype.robofont.mark = (
0.6,
0.609,
1,
1
);
};
},
{
glyphname = Thorn;
layers = (
{
anchors = (
{
name = btm;
position = "{614, -170}";
},
{
name = top;
position = "{614, 1700}";
}
);
layerId = "D92FDD0B-F694-41DD-AE46-0E4F694F0F38";
paths = (
{
closed = 1;
nodes = (
"35 36 OFFCURVE",
"40 0 OFFCURVE",
"63 0 CURVE SMOOTH",
"568 0 LINE SMOOTH",
"591 0 OFFCURVE",
"606 36 OFFCURVE",
"607 51 CURVE",
"610 81 OFFCURVE",
"602 85 OFFCURVE",
"575 88 CURVE SMOOTH",
"515 93 OFFCURVE",
"424 99 OFFCURVE",
"434 185 CURVE",
"448 300 LINE",
"611 300 LINE SMOOTH",
"944 300 OFFCURVE",
"1229 478 OFFCURVE",
"1207 817 CURVE SMOOTH",
"1192 1043 OFFCURVE",
"1063 1164 OFFCURVE",
"702 1164 CURVE SMOOTH",
"559 1164 LINE",
"571 1267 LINE",
"580 1311 OFFCURVE",
"661 1326 OFFCURVE",
"726 1331 CURVE",
"751 1334 OFFCURVE",
"762 1347 OFFCURVE",
"764 1368 CURVE SMOOTH",
"764 1383 OFFCURVE",
"761 1419 OFFCURVE",
"738 1419 CURVE SMOOTH",
"233 1419 LINE SMOOTH",
"210 1419 OFFCURVE",
"191 1383 OFFCURVE",
"191 1368 CURVE",
"186 1338 OFFCURVE",
"193 1334 OFFCURVE",
"222 1331 CURVE SMOOTH",
"282 1326 OFFCURVE",
"372 1320 OFFCURVE",
"362 1234 CURVE SMOOTH",
"223 152 LINE",
"220 108 OFFCURVE",
"136 93 OFFCURVE",
"71 88 CURVE",
"45 85 OFFCURVE",
"36 72 OFFCURVE",
"36 51 CURVE SMOOTH {name = hr00;}"
);
},
{
closed = 1;
nodes = (
"910 1076 OFFCURVE",
"971 970 OFFCURVE",
"981 806 CURVE SMOOTH",
"999 519 OFFCURVE",
"835 386 OFFCURVE",
"595 386 CURVE SMOOTH",
"459 386 LINE",
"550 1076 LINE",
"685 1076 LINE SMOOTH"
);
}
);
width = 1258;
}
);
unicode = 00DE;
},
{
glyphname = Q;
layers = (
{
anchors = (
{
name = btm;
position = "{795, -170}";
},
{
name = top;
position = "{795, 1700}";
}
);
components = (
{
name = O;
transform = "{1, 0, 0, 1, 25, 0}";
}
);
layerId = "D92FDD0B-F694-41DD-AE46-0E4F694F0F38";
paths = (
{
closed = 1;
nodes = (
"723 -369 OFFCURVE",
"970 -419 OFFCURVE",
"1192 -419 CURVE SMOOTH",
"1301 -419 OFFCURVE",
"1355 -393 OFFCURVE",
"1355 -393 CURVE",
"1355 -393 OFFCURVE",
"1355 -323 OFFCURVE",
"1355 -323 CURVE",
"983 -330 OFFCURVE",
"898 -76 OFFCURVE",
"895 29 CURVE",
"895 29 OFFCURVE",
"663 0 OFFCURVE",
"663 0 CURVE {name = hr00;}"
);
}
);
width = 1496;
}
);
unicode = 0051;
userData = {
com.typemytype.robofont.mark = (
0.6,
0.609,
1,
1
);
};
},
{
glyphname = R;
layers = (
{
anchors = (
{
name = btm;
position = "{665, -170}";
},
{
name = top;
position = "{894, 1700}";
}
);
layerId = "D92FDD0B-F694-41DD-AE46-0E4F694F0F38";
paths = (
{
closed = 1;
nodes = (
"698 1332 LINE SMOOTH",
"966 1332 OFFCURVE",
"1057 1265 OFFCURVE",
"1057 1054 CURVE SMOOTH",
"1057 833 OFFCURVE",
"924 701 OFFCURVE",
"682 701 CURVE SMOOTH",
"423 701 LINE",
"423 625 LINE",
"685 625 LINE SMOOTH",
"942 625 OFFCURVE",
"814 0 OFFCURVE",
"1118 0 CURVE SMOOTH",
"1330 0 LINE SMOOTH",
"1369 0 OFFCURVE",
"1366 63 OFFCURVE",
"1366 63 CURVE",
"1366 80 OFFCURVE",
"1358 88 OFFCURVE",
"1336 89 CURVE SMOOTH",
"1253 94 OFFCURVE",
"1187 125 OFFCURVE",
"1150 209 CURVE SMOOTH",
"1072 376 OFFCURVE",
"1026 578 OFFCURVE",
"882 636 CURVE",
"1072 659 OFFCURVE",
"1272 838 OFFCURVE",
"1272 1057 CURVE SMOOTH",
"1272 1281 OFFCURVE",
"1140 1419 OFFCURVE",
"738 1419 CURVE SMOOTH",
"224 1419 LINE SMOOTH",
"201 1419 OFFCURVE",
"183 1383 OFFCURVE",
"184 1368 CURVE",
"183 1362 OFFCURVE",
"182 1357 OFFCURVE",
"182 1352 CURVE SMOOTH",
"186 1309 OFFCURVE",
"367 1348 OFFCURVE",
"356 1251 CURVE",
"220 152 LINE SMOOTH",
"215 107 OFFCURVE",
"142 94 OFFCURVE",
"77 88 CURVE SMOOTH",
"54 86 OFFCURVE",
"45 71 OFFCURVE",
"45 51 CURVE",
"44 48 OFFCURVE",
"44 45 OFFCURVE",
"44 42 CURVE SMOOTH",
"44 25 OFFCURVE",
"51 0 OFFCURVE",
"70 0 CURVE SMOOTH",
"575 0 LINE SMOOTH",
"612 0 OFFCURVE",
"611 60 OFFCURVE",
"612 66 CURVE",
"612 82 OFFCURVE",
"602 86 OFFCURVE",
"581 88 CURVE SMOOTH",
"519 93 OFFCURVE",
"419 98 OFFCURVE",
"430 185 CURVE SMOOTH",
"572 1332 LINE {name = hr00;}"
);
}
);
width = 1437;
}
);
unicode = 0052;
userData = {
com.typemytype.robofont.mark = (
0.6,
0.609,
1,
1
);
};
},
{
glyphname = S;
layers = (
{
anchors = (
{
name = btm;
position = "{501, -170}";
},
{
name = top;
position = "{783, 1700}";
}
);
layerId = "D92FDD0B-F694-41DD-AE46-0E4F694F0F38";
paths = (
{
closed = 1;
nodes = (
"67 48 OFFCURVE",
"85 20 OFFCURVE",
"112 20 CURVE SMOOTH",
"132 20 OFFCURVE",
"164 32 OFFCURVE",
"185 61 CURVE SMOOTH",
"196 76 OFFCURVE",
"211 83 OFFCURVE",
"218 78 CURVE SMOOTH",
"278 38 OFFCURVE",
"389 -30 OFFCURVE",
"571 -30 CURVE SMOOTH",
"854 -30 OFFCURVE",
"1041 123 OFFCURVE",
"1041 371 CURVE SMOOTH",
"1041 606 OFFCURVE",
"859 714 OFFCURVE",
"701 816 CURVE SMOOTH",
"570 901 OFFCURVE",
"434 993 OFFCURVE",
"434 1145 CURVE SMOOTH",
"434 1302 OFFCURVE",
"555 1366 OFFCURVE",
"693 1366 CURVE SMOOTH",
"834 1366 OFFCURVE",
"963 1265 OFFCURVE",
"979 1050 CURVE",
"979 1038 OFFCURVE",
"1002 1028 OFFCURVE",
"1023 1028 CURVE SMOOTH",
"1051 1028 OFFCURVE",
"1073 1032 OFFCURVE",
"1075 1087 CURVE",
"1072 1208 OFFCURVE",
"1094 1360 OFFCURVE",
"1091 1398 CURVE",
"1091 1416 OFFCURVE",
"1068 1432 OFFCURVE",
"1043 1432 CURVE SMOOTH",
"1005 1432 OFFCURVE",
"995 1388 OFFCURVE",
"954 1388 CURVE SMOOTH",
"947 1388 OFFCURVE",
"937 1386 OFFCURVE",
"929 1391 CURVE",
"875 1417 OFFCURVE",
"788 1449 OFFCURVE",
"687 1449 CURVE SMOOTH",
"409 1449 OFFCURVE",
"241 1295 OFFCURVE",
"241 1092 CURVE SMOOTH",
"241 863 OFFCURVE",
"373 774 OFFCURVE",
"556 655 CURVE SMOOTH",
"696 564 OFFCURVE",
"839 462 OFFCURVE",
"839 301 CURVE SMOOTH",
"843 127 OFFCURVE",
"724 54 OFFCURVE",
"566 54 CURVE SMOOTH",
"436 54 OFFCURVE",
"307 114 OFFCURVE",
"256 257 CURVE",
"214 371 OFFCURVE",
"217 444 OFFCURVE",
"213 478 CURVE",
"213 505 OFFCURVE",
"185 520 OFFCURVE",
"162 520 CURVE SMOOTH",
"135 520 OFFCURVE",
"116 513 OFFCURVE",
"115 471 CURVE",
"115 391 OFFCURVE",
"98 214 OFFCURVE",
"70 72 CURVE {name = hr00;}"
);
}
);
width = 1149;
}
);
unicode = 0053;
},
{
glyphname = T;
layers = (
{
anchors = (
{
name = btm;
position = "{535, -170}";
},
{
name = top;
position = "{811, 1700}";
}
);
layerId = "D92FDD0B-F694-41DD-AE46-0E4F694F0F38";
paths = (
{
closed = 1;
nodes = (
"240 36 OFFCURVE",
"249 0 OFFCURVE",
"272 0 CURVE SMOOTH",
"887 0 LINE SMOOTH",
"910 0 OFFCURVE",
"923 36 OFFCURVE",
"926 51 CURVE SMOOTH",
"928 81 OFFCURVE",
"920 85 OFFCURVE",
"893 88 CURVE",
"813 93 OFFCURVE",
"678 99 OFFCURVE",
"687 185 CURVE SMOOTH",
"855 1331 LINE",
"1072 1331 LINE SMOOTH",
"1186 1331 OFFCURVE",
"1207 1084 OFFCURVE",
"1204 1019 CURVE",
"1202 993 OFFCURVE",
"1218 986 OFFCURVE",
"1239 986 CURVE SMOOTH",
"1254 986 OFFCURVE",
"1298 997 OFFCURVE",
"1302 1020 CURVE",
"1303 1419 LINE",
"186 1419 LINE SMOOTH",
"171 1419 OFFCURVE",
"134 1151 OFFCURVE",
"117 1020 CURVE",
"113 997 OFFCURVE",
"146 986 OFFCURVE",
"161 986 CURVE SMOOTH",
"182 986 OFFCURVE",
"207 993 OFFCURVE",
"215 1019 CURVE",
"228 1084 OFFCURVE",
"295 1331 OFFCURVE",
"409 1331 CURVE SMOOTH",
"648 1331 LINE",
"479 182 LINE SMOOTH",
"473 108 OFFCURVE",
"374 93 OFFCURVE",
"279 88 CURVE",
"252 85 OFFCURVE",
"243 72 OFFCURVE",
"243 51 CURVE SMOOTH {name = hr00;}"
);
}
);
width = 1267;
}
);
unicode = 0054;
},
{
glyphname = Tbar;
layers = (
{
components = (
{
name = T;
}
);
layerId = "D92FDD0B-F694-41DD-AE46-0E4F694F0F38";
paths = (
{
closed = 1;
nodes = (
"1018 687 LINE",
"1030 773 LINE",
"316 773 LINE",
"300 687 LINE {name = hr00;}"
);
}
);
width = 1267;
}
);
unicode = 0166;
},
{
glyphname = U;
layers = (
{
anchors = (
{
name = btm;
position = "{701, -170}";
},
{
name = top;
position = "{1002, 1700}";
}
);
layerId = "D92FDD0B-F694-41DD-AE46-0E4F694F0F38";
paths = (
{
closed = 1;
nodes = (
"260 478 OFFCURVE",
"257 419 OFFCURVE",
"261 361 CURVE SMOOTH",
"278 83 OFFCURVE",
"493 -29 OFFCURVE",
"764 -29 CURVE SMOOTH",
"1087 -29 OFFCURVE",
"1280 123 OFFCURVE",
"1323 523 CURVE SMOOTH",
"1422 1230 LINE SMOOTH",
"1429 1294 OFFCURVE",
"1493 1326 OFFCURVE",
"1580 1331 CURVE SMOOTH",
"1608 1332 OFFCURVE",
"1620 1352 OFFCURVE",
"1617 1378 CURVE SMOOTH",
"1617 1395 OFFCURVE",
"1610 1419 OFFCURVE",
"1592 1419 CURVE SMOOTH",
"1196 1419 LINE SMOOTH",
"1173 1419 OFFCURVE",
"1155 1383 OFFCURVE",
"1156 1368 CURVE SMOOTH",
"1155 1362 OFFCURVE",
"1154 1357 OFFCURVE",
"1154 1352 CURVE SMOOTH {name = hr02;}",
"1154 1336 OFFCURVE",
"1163 1331 OFFCURVE",
"1185 1331 CURVE SMOOTH",
"1275 1331 OFFCURVE",
"1331 1290 OFFCURVE",
"1324 1233 CURVE SMOOTH",
"1222 521 LINE SMOOTH",
"1189 257 OFFCURVE",
"1085 65 OFFCURVE",
"776 65 CURVE SMOOTH",
"623 65 OFFCURVE",
"488 147 OFFCURVE",
"472 364 CURVE SMOOTH",
"470 416 OFFCURVE",
"472 476 OFFCURVE",
"479 543 CURVE SMOOTH",
"580 1267 LINE SMOOTH",
"588 1311 OFFCURVE",
"682 1325 OFFCURVE",
"753 1331 CURVE SMOOTH {name = hr03;}",
"781 1333 OFFCURVE",
"794 1352 OFFCURVE",
"790 1378 CURVE SMOOTH",
"790 1395 OFFCURVE",
"783 1419 OFFCURVE",
"765 1419 CURVE SMOOTH",
"240 1419 LINE SMOOTH",
"216 1419 OFFCURVE",
"199 1383 OFFCURVE",
"200 1368 CURVE SMOOTH",
"199 1362 OFFCURVE",
"198 1357 OFFCURVE",
"198 1352 CURVE SMOOTH",
"202 1309 OFFCURVE",
"380 1352 OFFCURVE",
"369 1256 CURVE SMOOTH",
"265 523 LINE SMOOTH {name = hr01;}"
);
}
);
width = 1549;
}
);
unicode = 0055;
},
{
glyphname = Uogonek;
layers = (
{
components = (
{
name = U;
}
);
layerId = "D92FDD0B-F694-41DD-AE46-0E4F694F0F38";
paths = (
{
closed = 1;
nodes = (
"555 -385 OFFCURVE",
"640 -448 OFFCURVE",
"805 -448 CURVE SMOOTH",
"856 -448 OFFCURVE",
"909 -438 OFFCURVE",
"966 -422 CURVE SMOOTH",
"981 -418 OFFCURVE",
"993 -408 OFFCURVE",
"996 -393 CURVE SMOOTH",
"1001 -367 OFFCURVE",
"997 -350 OFFCURVE",
"980 -349 CURVE SMOOTH",
"932 -346 OFFCURVE",
"733 -381 OFFCURVE",
"733 -238 CURVE SMOOTH",
"733 -176 OFFCURVE",
"760 -69 OFFCURVE",
"1026 31 CURVE",
"1026 31 OFFCURVE",
"855 15 OFFCURVE",
"855 15 CURVE",
"736 -1 OFFCURVE",
"555 -145 OFFCURVE",
"555 -278 CURVE SMOOTH {name = hr00;}"
);
}
);
width = 1549;
}
);
unicode = 0172;
},
{
glyphname = V;
layers = (
{
anchors = (
{
name = btm;
position = "{855, -170}";
},
{
name = top;
position = "{929, 1700}";
}
);
layerId = "D92FDD0B-F694-41DD-AE46-0E4F694F0F38";
paths = (
{
closed = 1;
nodes = (
"584 -18 LINE",
"1354 1254 LINE SMOOTH",
"1405 1339 OFFCURVE",
"1476 1326 OFFCURVE",
"1526 1331 CURVE SMOOTH",
"1554 1334 OFFCURVE",
"1564 1338 OFFCURVE",
"1569 1368 CURVE SMOOTH",
"1570 1383 OFFCURVE",
"1565 1419 OFFCURVE",
"1543 1419 CURVE SMOOTH",
"1088 1419 LINE SMOOTH",
"1065 1419 OFFCURVE",
"1047 1383 OFFCURVE",
"1046 1368 CURVE SMOOTH",
"1042 1347 OFFCURVE",
"1046 1334 OFFCURVE",
"1072 1331 CURVE",
"1206 1331 OFFCURVE",
"1243 1304 OFFCURVE",
"1219 1257 CURVE SMOOTH",
"623 222 LINE",
"475 1271 LINE SMOOTH",
"467 1318 OFFCURVE",
"502 1327 OFFCURVE",
"615 1331 CURVE",
"641 1334 OFFCURVE",
"651 1347 OFFCURVE",
"655 1368 CURVE SMOOTH",
"656 1383 OFFCURVE",
"651 1419 OFFCURVE",
"629 1419 CURVE SMOOTH",
"104 1419 LINE SMOOTH",
"82 1419 OFFCURVE",
"63 1383 OFFCURVE",
"63 1368 CURVE SMOOTH",
"58 1338 OFFCURVE",
"63 1334 OFFCURVE",
"91 1331 CURVE SMOOTH",
"139 1326 OFFCURVE",
"221 1342 OFFCURVE",
"241 1254 CURVE SMOOTH",
"471 -18 LINE {name = hr00;}"
);
}
);
width = 1365;
}
);
unicode = 0056;
},
{
glyphname = W;
layers = (
{
anchors = (
{
name = btm;
position = "{938, -170}";
},
{
name = top;
position = "{1226, 1700}";
}
);
layerId = "D92FDD0B-F694-41DD-AE46-0E4F694F0F38";
paths = (
{
closed = 1;
nodes = (
"517 -18 LINE",
"1067 1053 LINE",
"1207 -18 LINE",
"1330 -18 LINE",
"1952 1254 LINE SMOOTH",
"1992 1344 OFFCURVE",
"2064 1326 OFFCURVE",
"2114 1331 CURVE SMOOTH",
"2142 1334 OFFCURVE",
"2152 1338 OFFCURVE",
"2157 1368 CURVE SMOOTH",
"2158 1383 OFFCURVE",
"2153 1419 OFFCURVE",
"2131 1419 CURVE SMOOTH",
"1686 1419 LINE SMOOTH",
"1663 1419 OFFCURVE",
"1645 1383 OFFCURVE",
"1644 1368 CURVE SMOOTH",
"1640 1347 OFFCURVE",
"1644 1331 OFFCURVE",
"1670 1331 CURVE SMOOTH",
"1773 1331 OFFCURVE",
"1832 1315 OFFCURVE",
"1811 1267 CURVE SMOOTH",
"1363 281 LINE",
"1228 1399 LINE",
"1120 1399 LINE",
"554 286 LINE",
"466 1261 LINE SMOOTH",
"461 1309 OFFCURVE",
"515 1331 OFFCURVE",
"628 1331 CURVE SMOOTH",
"654 1331 OFFCURVE",
"664 1347 OFFCURVE",
"668 1368 CURVE SMOOTH",
"669 1383 OFFCURVE",
"665 1419 OFFCURVE",
"642 1419 CURVE SMOOTH",
"127 1419 LINE SMOOTH",
"105 1419 OFFCURVE",
"86 1383 OFFCURVE",
"85 1368 CURVE SMOOTH",
"80 1338 OFFCURVE",
"86 1334 OFFCURVE",
"114 1331 CURVE SMOOTH",
"162 1326 OFFCURVE",
"243 1343 OFFCURVE",
"254 1254 CURVE SMOOTH",
"394 -18 LINE {name = hr00;}"
);
}
);
width = 1998;
}
);
unicode = 0057;
},
{
glyphname = X;
layers = (
{
anchors = (
{
name = btm;
position = "{798, -170}";
},
{
name = top;
position = "{798, 1700}";
}
);
layerId = "D92FDD0B-F694-41DD-AE46-0E4F694F0F38";
paths = (
{
closed = 1;
nodes = (
"-26 36 OFFCURVE",
"-20 0 OFFCURVE",
"2 0 CURVE SMOOTH",
"527 0 LINE SMOOTH",
"549 0 OFFCURVE",
"565 36 OFFCURVE",
"568 51 CURVE SMOOTH",
"573 72 OFFCURVE",
"568 85 OFFCURVE",
"543 88 CURVE",
"354 93 OFFCURVE",
"341 121 OFFCURVE",
"370 162 CURVE",
"741 613 LINE",
"977 132 LINE",
"991 90 OFFCURVE",
"938 93 OFFCURVE",
"870 88 CURVE",
"843 85 OFFCURVE",
"834 72 OFFCURVE",
"829 51 CURVE SMOOTH",
"826 36 OFFCURVE",
"834 0 OFFCURVE",
"856 0 CURVE SMOOTH",
"1362 0 LINE SMOOTH",
"1384 0 OFFCURVE",
"1400 36 OFFCURVE",
"1403 51 CURVE SMOOTH",
"1409 81 OFFCURVE",
"1401 85 OFFCURVE",
"1375 88 CURVE SMOOTH",
"1334 93 OFFCURVE",
"1239 86 OFFCURVE",
"1208 165 CURVE",
"887 758 LINE",
"1341 1254 LINE",
"1413 1330 OFFCURVE",
"1504 1326 OFFCURVE",
"1554 1331 CURVE SMOOTH",
"1582 1334 OFFCURVE",
"1592 1338 OFFCURVE",
"1597 1368 CURVE SMOOTH",
"1601 1383 OFFCURVE",
"1596 1419 OFFCURVE",
"1574 1419 CURVE SMOOTH",
"1069 1419 LINE SMOOTH",
"1046 1419 OFFCURVE",
"1028 1383 OFFCURVE",
"1024 1368 CURVE SMOOTH",
"1020 1347 OFFCURVE",
"1024 1331 OFFCURVE",
"1050 1331 CURVE SMOOTH",
"1173 1331 OFFCURVE",
"1251 1298 OFFCURVE",
"1201 1257 CURVE",
"844 839 LINE",
"622 1287 LINE",
"607 1329 OFFCURVE",
"660 1331 OFFCURVE",
"730 1331 CURVE SMOOTH",
"756 1331 OFFCURVE",
"766 1347 OFFCURVE",
"770 1368 CURVE SMOOTH",
"774 1383 OFFCURVE",
"770 1419 OFFCURVE",
"747 1419 CURVE SMOOTH",
"235 1419 LINE SMOOTH",
"213 1419 OFFCURVE",
"194 1383 OFFCURVE",
"190 1368 CURVE SMOOTH",
"185 1338 OFFCURVE",
"191 1334 OFFCURVE",
"219 1331 CURVE SMOOTH",
"267 1326 OFFCURVE",
"359 1333 OFFCURVE",
"393 1254 CURVE",
"693 684 LINE",
"226 165 LINE",
"162 88 OFFCURVE",
"65 93 OFFCURVE",
"21 88 CURVE SMOOTH",
"-8 85 OFFCURVE",
"-16 81 OFFCURVE",
"-23 51 CURVE SMOOTH {name = hr00;}"
);
}
);
width = 1455;
}
);
unicode = 0058;
},
{
glyphname = Y;
layers = (
{
anchors = (
{
name = btm;
position = "{538, -170}";
},
{
name = top;
position = "{865, 1700}";
}
);
layerId = "D92FDD0B-F694-41DD-AE46-0E4F694F0F38";
paths = (
{
closed = 1;
nodes = (
"266 36 OFFCURVE",
"273 0 OFFCURVE",
"296 0 CURVE SMOOTH",
"881 0 LINE SMOOTH",
"903 0 OFFCURVE",
"919 36 OFFCURVE",
"922 51 CURVE SMOOTH",
"927 81 OFFCURVE",
"909 85 OFFCURVE",
"882 88 CURVE",
"808 93 OFFCURVE",
"690 79 OFFCURVE",
"704 165 CURVE SMOOTH",
"767 541 LINE",
"1277 1254 LINE SMOOTH",
"1337 1335 OFFCURVE",
"1393 1336 OFFCURVE",
"1443 1341 CURVE SMOOTH",
"1471 1344 OFFCURVE",
"1480 1348 OFFCURVE",
"1485 1378 CURVE SMOOTH",
"1488 1393 OFFCURVE",
"1481 1419 OFFCURVE",
"1459 1419 CURVE SMOOTH",
"1038 1419 LINE SMOOTH",
"1015 1419 OFFCURVE",
"999 1393 OFFCURVE",
"996 1378 CURVE SMOOTH",
"993 1357 OFFCURVE",
"1006 1331 OFFCURVE",
"1032 1331 CURVE SMOOTH",
"1156 1331 OFFCURVE",
"1175 1302 OFFCURVE",
"1145 1258 CURVE SMOOTH",
"724 639 LINE",
"459 1287 LINE SMOOTH",
"445 1332 OFFCURVE",
"524 1331 OFFCURVE",
"609 1331 CURVE SMOOTH",
"635 1331 OFFCURVE",
"653 1357 OFFCURVE",
"656 1378 CURVE SMOOTH",
"659 1393 OFFCURVE",
"653 1419 OFFCURVE",
"630 1419 CURVE SMOOTH",
"115 1419 LINE SMOOTH",
"93 1419 OFFCURVE",
"76 1393 OFFCURVE",
"73 1378 CURVE SMOOTH",
"68 1348 OFFCURVE",
"75 1344 OFFCURVE",
"103 1341 CURVE SMOOTH",
"151 1336 OFFCURVE",
"208 1337 OFFCURVE",
"239 1254 CURVE SMOOTH",
"558 534 LINE",
"494 152 LINE SMOOTH",
"482 81 OFFCURVE",
"386 93 OFFCURVE",
"318 88 CURVE",
"292 85 OFFCURVE",
"272 72 OFFCURVE",
"269 51 CURVE SMOOTH {name = hr00;}"
);
}
);
width = 1260;
}
);
unicode = 0059;
},
{
glyphname = Z;
layers = (
{
anchors = (
{
name = btm;
position = "{496, -170}";
},
{
name = top;
position = "{858, 1700}";
}
);
layerId = "D92FDD0B-F694-41DD-AE46-0E4F694F0F38";
paths = (
{
closed = 1;
nodes = (
"9 15 OFFCURVE",
"27 0 OFFCURVE",
"43 0 CURVE SMOOTH",
"1029 0 LINE",
"1047 1 OFFCURVE",
"1063 14 OFFCURVE",
"1081 41 CURVE",
"1162 429 LINE",
"1166 452 OFFCURVE",
"1121 463 OFFCURVE",
"1106 463 CURVE SMOOTH",
"1085 463 OFFCURVE",
"1072 456 OFFCURVE",
"1064 430 CURVE SMOOTH",
"1051 381 OFFCURVE",
"921 83 OFFCURVE",
"761 83 CURVE SMOOTH",
"283 83 LINE",
"1233 1323 LINE SMOOTH",
"1241 1333 OFFCURVE",
"1259 1352 OFFCURVE",
"1259 1374 CURVE SMOOTH",
"1259 1388 LINE SMOOTH",
"1259 1407 OFFCURVE",
"1246 1419 OFFCURVE",
"1225 1419 CURVE SMOOTH",
"303 1419 LINE",
"283 1418 OFFCURVE",
"265 1405 OFFCURVE",
"248 1378 CURVE",
"174 1020 LINE",
"170 997 OFFCURVE",
"212 986 OFFCURVE",
"227 986 CURVE SMOOTH",
"248 986 OFFCURVE",
"263 993 OFFCURVE",
"271 1019 CURVE SMOOTH",
"283 1068 OFFCURVE",
"418 1331 OFFCURVE",
"516 1331 CURVE SMOOTH",
"980 1331 LINE",
"61 123 LINE",
"18 69 OFFCURVE",
"9 53 OFFCURVE",
"9 40 CURVE SMOOTH",
"9 34 LINE SMOOTH {name = hr00;}"
);
}
);
width = 1232;
}
);
unicode = 005A;
userData = {
com.typemytype.robofont.mark = (
0.6,
0.609,
1,
1
);
};
},
{
glyphname = a;
layers = (
{
anchors = (
{
name = btm;
position = "{572, -170}";
},
{
name = top;
position = "{769, 1700}";
}
);
layerId = "D92FDD0B-F694-41DD-AE46-0E4F694F0F38";
paths = (
{
closed = 1;
nodes = (
"762 564 OFFCURVE",
"681 179 OFFCURVE",
"681 102 CURVE SMOOTH",
"681 57 OFFCURVE",
"687 -13 OFFCURVE",
"803 -13 CURVE SMOOTH {name = hr02;}",
"852 -13 OFFCURVE",
"947 8 OFFCURVE",
"1038 41 CURVE SMOOTH",
"1056 47 OFFCURVE",
"1063 67 OFFCURVE",
"1063 83 CURVE SMOOTH {name = hr03;}",
"1063 112 OFFCURVE",
"1050 113 OFFCURVE",
"1038 113 CURVE SMOOTH",
"1018 113 OFFCURVE",
"966 96 OFFCURVE",
"938 96 CURVE SMOOTH",
"882 96 OFFCURVE",
"875 128 OFFCURVE",
"881 168 CURVE",
"1027 958 LINE",
"1034 978 OFFCURVE",
"1016 1005 OFFCURVE",
"995 994 CURVE SMOOTH",
"834 908 LINE {name = hr01;}"
);
},
{
closed = 1;
nodes = (
"678 181 OFFCURVE",
"560 88 OFFCURVE",
"465 88 CURVE SMOOTH {name = hr04;}",
"330 88 OFFCURVE",
"298 226 OFFCURVE",
"298 362 CURVE SMOOTH",
"298 574 OFFCURVE",
"362 918 OFFCURVE",
"609 918 CURVE SMOOTH",
"715 918 OFFCURVE",
"816 860 OFFCURVE",
"837 767 CURVE",
"950 882 LINE",
"887 958 OFFCURVE",
"796 1013 OFFCURVE",
"606 1013 CURVE SMOOTH",
"304 1013 OFFCURVE",
"94 710 OFFCURVE",
"94 375 CURVE SMOOTH",
"94 160 OFFCURVE",
"167 -30 OFFCURVE",
"409 -30 CURVE SMOOTH",
"506 -30 OFFCURVE",
"640 24 OFFCURVE",
"728 168 CURVE",
"733 264 LINE"
);
}
);
width = 1173;
}
);
unicode = 0061;
},
{
glyphname = aogonek;
layers = (
{
components = (
{
name = a;
}
);
layerId = "D92FDD0B-F694-41DD-AE46-0E4F694F0F38";
paths = (
{
closed = 1;
nodes = (
"556 -385 OFFCURVE",
"641 -448 OFFCURVE",
"806 -448 CURVE SMOOTH",
"857 -448 OFFCURVE",
"910 -438 OFFCURVE",
"967 -422 CURVE SMOOTH",
"982 -418 OFFCURVE",
"994 -408 OFFCURVE",
"997 -393 CURVE SMOOTH",
"1002 -367 OFFCURVE",
"998 -350 OFFCURVE",
"981 -349 CURVE SMOOTH",
"933 -346 OFFCURVE",
"734 -381 OFFCURVE",
"734 -238 CURVE SMOOTH",
"734 -176 OFFCURVE",
"761 -69 OFFCURVE",
"1027 31 CURVE",
"1027 31 OFFCURVE",
"876 15 OFFCURVE",
"876 15 CURVE",
"757 -1 OFFCURVE",
"556 -145 OFFCURVE",
"556 -278 CURVE SMOOTH {name = hr00;}"
);
}
);
width = 1173;
}
);
unicode = 0105;
},
{
glyphname = ae;
layers = (
{
anchors = (
{
name = btm;
position = "{775, -170}";
},
{
name = top;
position = "{1053, 1700}";
}
);
layerId = "D92FDD0B-F694-41DD-AE46-0E4F694F0F38";
paths = (
{
closed = 1;
nodes = (
"641 306 OFFCURVE",
"448 113 OFFCURVE",
"339 113 CURVE SMOOTH",
"265 113 OFFCURVE",
"234 197 OFFCURVE",
"234 304 CURVE SMOOTH",
"234 575 OFFCURVE",
"432 926 OFFCURVE",
"711 926 CURVE SMOOTH",
"773 926 OFFCURVE",
"866 879 OFFCURVE",
"831 757 CURVE",
"971 897 LINE",
"938 975 OFFCURVE",
"869 1011 OFFCURVE",
"732 1011 CURVE SMOOTH",
"348 1011 OFFCURVE",
"39 628 OFFCURVE",
"39 282 CURVE SMOOTH",
"39 143 OFFCURVE",
"97 -27 OFFCURVE",
"295 -27 CURVE SMOOTH",
"443 -27 OFFCURVE",
"640 163 OFFCURVE",
"759 439 CURVE",
"750 566 LINE {name = hr00;}"
);
},
{
closed = 1;
nodes = (
"1537 898 OFFCURVE",
"1471 1014 OFFCURVE",
"1255 1014 CURVE SMOOTH",
"1144 1014 OFFCURVE",
"1034 968 OFFCURVE",
"943 890 CURVE SMOOTH",
"904 857 OFFCURVE",
"852 807 OFFCURVE",
"831 757 CURVE SMOOTH",
"810 707 OFFCURVE",
"777 640 OFFCURVE",
"750 566 CURVE SMOOTH",
"733 520 OFFCURVE",
"719 431 OFFCURVE",
"720 381 CURVE SMOOTH",
"724 133 OFFCURVE",
"857 -29 OFFCURVE",
"1095 -29 CURVE SMOOTH",
"1265 -29 OFFCURVE",
"1384 50 OFFCURVE",
"1473 164 CURVE",
"1476 172 OFFCURVE",
"1491 181 OFFCURVE",
"1478 192 CURVE SMOOTH",
"1441 225 LINE",
"1432 231 OFFCURVE",
"1426 223 OFFCURVE",
"1419 215 CURVE",
"1325 124 OFFCURVE",
"1242 75 OFFCURVE",
"1124 75 CURVE SMOOTH",
"1025 75 OFFCURVE",
"941 152 OFFCURVE",
"937 360 CURVE",
"937 407 LINE",
"1250 465 OFFCURVE",
"1542 591 OFFCURVE",
"1538 804 CURVE"
);
},
{
closed = 1;
nodes = (
"1301 933 OFFCURVE",
"1350 901 OFFCURVE",
"1351 838 CURVE SMOOTH",
"1354 640 OFFCURVE",
"1206 540 OFFCURVE",
"941 484 CURVE",
"968 768 OFFCURVE",
"1103 933 OFFCURVE",
"1250 933 CURVE SMOOTH"
);
}
);
width = 1565;
}
);
unicode = 00E6;
userData = {
com.typemytype.robofont.mark = (
0.6,
0.609,
1,
1
);
};
},
{
glyphname = b;
layers = (
{
anchors = (
{
name = btm;
position = "{564, -170}";
},
{
name = top;
position = "{872, 1700}";
}
);
layerId = "D92FDD0B-F694-41DD-AE46-0E4F694F0F38";
paths = (
{
closed = 1;
nodes = (
"138 70 OFFCURVE",
"329 -30 OFFCURVE",
"519 -30 CURVE SMOOTH",
"796 -30 OFFCURVE",
"980 223 OFFCURVE",
"1013 492 CURVE SMOOTH",
"1045 750 OFFCURVE",
"990 1013 OFFCURVE",
"706 1013 CURVE SMOOTH",
"606 1013 OFFCURVE",
"468 959 OFFCURVE",
"377 815 CURVE",
"436 1104 LINE",
"497 1506 LINE SMOOTH",
"501 1534 OFFCURVE",
"485 1546 OFFCURVE",
"473 1546 CURVE SMOOTH",
"416 1546 OFFCURVE",
"287 1547 OFFCURVE",
"153 1539 CURVE SMOOTH",
"137 1538 OFFCURVE",
"124 1511 OFFCURVE",
"121 1495 CURVE SMOOTH",
"119 1470 OFFCURVE",
"128 1462 OFFCURVE",
"139 1455 CURVE SMOOTH",
"190 1426 OFFCURVE",
"296 1441 OFFCURVE",
"283 1354 CURVE SMOOTH",
"97 126 LINE {name = hr00;}"
);
},
{
closed = 1;
nodes = (
"429 802 OFFCURVE",
"551 895 OFFCURVE",
"650 895 CURVE SMOOTH",
"824 895 OFFCURVE",
"832 732 OFFCURVE",
"807 492 CURVE SMOOTH",
"775 252 OFFCURVE",
"689 65 OFFCURVE",
"496 65 CURVE SMOOTH",
"390 65 OFFCURVE",
"310 129 OFFCURVE",
"290 173 CURVE",
"372 719 LINE"
);
}
);
width = 1134;
}
);
unicode = 0062;
},
{
glyphname = c;
layers = (
{
anchors = (
{
name = btm;
position = "{396, -170}";
},
{
name = top;
position = "{643, 1700}";
}
);
layerId = "D92FDD0B-F694-41DD-AE46-0E4F694F0F38";
paths = (
{
closed = 1;
nodes = (
"349 1014 OFFCURVE",
"85 740 OFFCURVE",
"85 381 CURVE SMOOTH",
"85 133 OFFCURVE",
"215 -28 OFFCURVE",
"453 -28 CURVE SMOOTH",
"619 -28 OFFCURVE",
"735 50 OFFCURVE",
"824 164 CURVE",
"829 172 OFFCURVE",
"843 181 OFFCURVE",
"830 192 CURVE SMOOTH",
"793 225 LINE",
"784 231 OFFCURVE",
"778 223 OFFCURVE",
"771 215 CURVE",
"679 124 OFFCURVE",
"598 75 OFFCURVE",
"484 75 CURVE SMOOTH",
"385 75 OFFCURVE",
"302 152 OFFCURVE",
"302 360 CURVE SMOOTH",
"302 720 OFFCURVE",
"444 933 OFFCURVE",
"595 933 CURVE SMOOTH",
"634 933 OFFCURVE",
"668 925 OFFCURVE",
"681 914 CURVE",
"735 705 LINE SMOOTH",
"747 660 OFFCURVE",
"766 662 OFFCURVE",
"805 662 CURVE SMOOTH",
"847 662 OFFCURVE",
"909 704 OFFCURVE",
"909 787 CURVE SMOOTH",
"909 944 OFFCURVE",
"778 1014 OFFCURVE",
"611 1014 CURVE SMOOTH {name = hr00;}"
);
}
);
width = 929;
}
);
unicode = 0063;
},
{
glyphname = d;
layers = (
{
anchors = (
{
name = btm;
position = "{615, -170}";
},
{
name = top;
position = "{493, 1700}";
}
);
layerId = "D92FDD0B-F694-41DD-AE46-0E4F694F0F38";
paths = (
{
closed = 1;
nodes = (
"836 847 LINE SMOOTH",
"793 592 OFFCURVE",
"713 102 OFFCURVE",
"713 92 CURVE SMOOTH",
"713 57 OFFCURVE",
"726 -13 OFFCURVE",
"842 -13 CURVE SMOOTH {name = hr02;}",
"891 -13 OFFCURVE",
"990 8 OFFCURVE",
"1081 41 CURVE SMOOTH",
"1099 47 OFFCURVE",
"1106 67 OFFCURVE",
"1106 83 CURVE SMOOTH {name = hr03;}",
"1106 112 OFFCURVE",
"1093 113 OFFCURVE",
"1081 113 CURVE SMOOTH",
"1061 113 OFFCURVE",
"1009 96 OFFCURVE",
"981 96 CURVE SMOOTH",
"925 96 OFFCURVE",
"918 128 OFFCURVE",
"924 168 CURVE SMOOTH",
"1130 1506 LINE SMOOTH",
"1134 1532 OFFCURVE",
"1117 1546 OFFCURVE",
"1105 1546 CURVE SMOOTH",
"1048 1546 OFFCURVE",
"895 1546 OFFCURVE",
"761 1538 CURVE SMOOTH",
"745 1537 OFFCURVE",
"732 1510 OFFCURVE",
"730 1494 CURVE SMOOTH",
"726 1469 OFFCURVE",
"735 1458 OFFCURVE",
"749 1454 CURVE SMOOTH",
"801 1439 OFFCURVE",
"931 1439 OFFCURVE",
"915 1354 CURVE",
"877 1104 LINE",
"862 979 LINE {name = hr01;}"
);
},
{
closed = 1;
nodes = (
"696 201 OFFCURVE",
"554 88 OFFCURVE",
"459 88 CURVE SMOOTH {name = hr04;}",
"324 88 OFFCURVE",
"292 226 OFFCURVE",
"292 362 CURVE SMOOTH",
"292 574 OFFCURVE",
"356 918 OFFCURVE",
"603 918 CURVE SMOOTH",
"709 918 OFFCURVE",
"810 864 OFFCURVE",
"831 777 CURVE",
"944 882 LINE",
"881 958 OFFCURVE",
"790 1013 OFFCURVE",
"600 1013 CURVE SMOOTH",
"298 1013 OFFCURVE",
"88 710 OFFCURVE",
"88 375 CURVE SMOOTH",
"88 160 OFFCURVE",
"161 -30 OFFCURVE",
"403 -30 CURVE SMOOTH",
"500 -30 OFFCURVE",
"638 24 OFFCURVE",
"726 168 CURVE",
"751 304 LINE"
);
}
);
width = 1178;
}
);
unicode = 0064;
},
{
glyphname = eth;
layers = (
{
anchors = (
{
name = btm;
position = "{574, -170}";
},
{
name = top;
position = "{574, 1700}";
}
);
layerId = "D92FDD0B-F694-41DD-AE46-0E4F694F0F38";
paths = (
{
closed = 1;
nodes = (
"871 1602 LINE",
"678 1450 LINE",
"591 1508 OFFCURVE",
"486 1550 OFFCURVE",
"363 1571 CURVE",
"335 1481 LINE",
"425 1466 OFFCURVE",
"506 1427 OFFCURVE",
"573 1375 CURVE",
"398 1250 LINE",
"455 1168 LINE",
"650 1306 LINE",
"773 1197 OFFCURVE",
"824 1035 OFFCURVE",
"826 934 CURVE SMOOTH",
"826 927 OFFCURVE",
"826 920 OFFCURVE",
"826 913 CURVE",
"771 965 OFFCURVE",
"694 994 OFFCURVE",
"584 994 CURVE SMOOTH",
"316 994 OFFCURVE",
"86 721 OFFCURVE",
"92 379 CURVE SMOOTH",
"96 148 OFFCURVE",
"239 -29 OFFCURVE",
"508 -29 CURVE SMOOTH",
"843 -29 OFFCURVE",
"1042 363 OFFCURVE",
"1035 749 CURVE SMOOTH",
"1031 983 OFFCURVE",
"952 1216 OFFCURVE",
"762 1385 CURVE",
"923 1514 LINE {name = hr00;}"
);
},
{
closed = 1;
nodes = (
"678 877 OFFCURVE",
"787 863 OFFCURVE",
"831 782 CURVE",
"836 701 OFFCURVE",
"834 627 OFFCURVE",
"825 572 CURVE SMOOTH",
"785 322 OFFCURVE",
"719 66 OFFCURVE",
"517 66 CURVE SMOOTH",
"359 66 OFFCURVE",
"307 160 OFFCURVE",
"304 318 CURVE SMOOTH",
"299 589 OFFCURVE",
"391 877 OFFCURVE",
"586 877 CURVE SMOOTH"
);
}
);
width = 1119;
}
);
unicode = 00F0;
},
{
glyphname = dcroat;
layers = (
{
components = (
{
name = d;
}
);
layerId = "D92FDD0B-F694-41DD-AE46-0E4F694F0F38";
paths = (
{
closed = 1;
nodes = (
"650 1288 OFFCURVE",
"638 1266 OFFCURVE",
"634 1241 CURVE",
"634 1225 OFFCURVE",
"636 1193 OFFCURVE",
"652 1192 CURVE",
"1223 1192 LINE",
"1238 1198 OFFCURVE",
"1252 1235 OFFCURVE",
"1255 1260 CURVE",
"1259 1276 OFFCURVE",
"1252 1293 OFFCURVE",
"1236 1294 CURVE",
"664 1294 LINE {name = hr00;}"
);
}
);
width = 1178;
}
);
unicode = 0111;
},
{
glyphname = e;
layers = (
{
anchors = (
{
name = btm;
position = "{503, -170}";
},
{
name = top;
position = "{680, 1700}";
}
);
layerId = "D92FDD0B-F694-41DD-AE46-0E4F694F0F38";
paths = (
{
closed = 1;
nodes = (
"903 898 OFFCURVE",
"837 1014 OFFCURVE",
"621 1014 CURVE SMOOTH",
"349 1014 OFFCURVE",
"80 740 OFFCURVE",
"86 381 CURVE SMOOTH",
"90 133 OFFCURVE",
"223 -29 OFFCURVE",
"461 -29 CURVE SMOOTH",
"631 -29 OFFCURVE",
"750 50 OFFCURVE",
"839 164 CURVE",
"842 172 OFFCURVE",
"857 181 OFFCURVE",
"844 192 CURVE SMOOTH",
"807 225 LINE",
"798 231 OFFCURVE",
"792 223 OFFCURVE",
"785 215 CURVE",
"691 124 OFFCURVE",
"608 75 OFFCURVE",
"490 75 CURVE SMOOTH",
"391 75 OFFCURVE",
"307 152 OFFCURVE",
"303 360 CURVE SMOOTH",
"303 376 OFFCURVE",
"303 392 OFFCURVE",
"303 407 CURVE",
"616 465 OFFCURVE",
"908 591 OFFCURVE",
"904 804 CURVE SMOOTH {name = hr00;}"
);
},
{
closed = 1;
nodes = (
"667 933 OFFCURVE",
"716 901 OFFCURVE",
"717 838 CURVE SMOOTH",
"720 640 OFFCURVE",
"572 540 OFFCURVE",
"307 484 CURVE",
"334 768 OFFCURVE",
"469 933 OFFCURVE",
"616 933 CURVE SMOOTH"
);
}
);
width = 966;
}
);
unicode = 0065;
},
{
glyphname = eogonek;
layers = (
{
components = (
{
name = e;
}
);
layerId = "D92FDD0B-F694-41DD-AE46-0E4F694F0F38";
paths = (
{
closed = 1;
nodes = (
"262 -385 OFFCURVE",
"347 -448 OFFCURVE",
"512 -448 CURVE SMOOTH",
"563 -448 OFFCURVE",
"616 -438 OFFCURVE",
"673 -422 CURVE SMOOTH",
"688 -418 OFFCURVE",
"700 -408 OFFCURVE",
"703 -393 CURVE SMOOTH",
"708 -367 OFFCURVE",
"704 -350 OFFCURVE",
"687 -349 CURVE SMOOTH",
"639 -346 OFFCURVE",
"440 -381 OFFCURVE",
"440 -238 CURVE SMOOTH",
"440 -176 OFFCURVE",
"503 -67 OFFCURVE",
"693 33 CURVE",
"693 33 OFFCURVE",
"582 15 OFFCURVE",
"582 15 CURVE",
"479 -1 OFFCURVE",
"262 -145 OFFCURVE",
"262 -278 CURVE SMOOTH {name = hr00;}"
);
}
);
width = 966;
}
);
unicode = 0119;
},
{
glyphname = f;
layers = (
{
anchors = (
{
name = btm;
position = "{346, -170}";
},
{
name = top;
position = "{477, 2040}";
}
);
layerId = "D92FDD0B-F694-41DD-AE46-0E4F694F0F38";
paths = (
{
closed = 1;
nodes = (
"677 892 LINE",
"692 898 OFFCURVE",
"697 935 OFFCURVE",
"700 960 CURVE",
"704 976 OFFCURVE",
"697 993 OFFCURVE",
"681 994 CURVE",
"436 994 LINE",
"420 892 LINE {name = hr00;}"
);
},
{
closed = 1;
nodes = (
"129 984 LINE",
"115 978 OFFCURVE",
"103 966 OFFCURVE",
"99 941 CURVE",
"99 925 OFFCURVE",
"101 893 OFFCURVE",
"117 892 CURVE",
"269 892 LINE",
"281 993 LINE"
);
},
{
closed = 1;
nodes = (
"83 -272 OFFCURVE",
"16 -340 OFFCURVE",
"-58 -344 CURVE",
"-138 -208 LINE",
"-141 -206 OFFCURVE",
"-148 -206 OFFCURVE",
"-153 -206 CURVE SMOOTH",
"-188 -205 OFFCURVE",
"-255 -238 OFFCURVE",
"-256 -317 CURVE SMOOTH",
"-257 -385 OFFCURVE",
"-225 -442 OFFCURVE",
"-97 -442 CURVE SMOOTH",
"143 -442 OFFCURVE",
"282 -198 OFFCURVE",
"319 56 CURVE",
"465 1107 LINE",
"502 1421 OFFCURVE",
"590 1475 OFFCURVE",
"650 1475 CURVE",
"748 1310 LINE",
"748 1308 OFFCURVE",
"748 1307 OFFCURVE",
"758 1307 CURVE SMOOTH",
"793 1306 OFFCURVE",
"872 1360 OFFCURVE",
"872 1439 CURVE",
"874 1517 OFFCURVE",
"821 1573 OFFCURVE",
"729 1573 CURVE SMOOTH",
"471 1573 OFFCURVE",
"306 1330 OFFCURVE",
"274 1075 CURVE",
"127 20 LINE"
);
}
);
width = 673;
}
);
unicode = 0066;
},
{
glyphname = g;
layers = (
{
anchors = (
{
name = btm;
position = "{618, -170}";
},
{
name = top;
position = "{690, 1700}";
}
);
layerId = "D92FDD0B-F694-41DD-AE46-0E4F694F0F38";
paths = (
{
closed = 1;
nodes = (
"407 474 OFFCURVE",
"350 536 OFFCURVE",
"350 635 CURVE SMOOTH",
"350 810 OFFCURVE",
"393 926 OFFCURVE",
"588 926 CURVE SMOOTH",
"706 926 OFFCURVE",
"749 859 OFFCURVE",
"749 761 CURVE SMOOTH",
"749 559 OFFCURVE",
"692 474 OFFCURVE",
"528 474 CURVE SMOOTH {name = hr01;}"
);
},
{
closed = 1;
nodes = (
"328 1014 OFFCURVE",
"156 888 OFFCURVE",
"156 664 CURVE SMOOTH",
"156 535 OFFCURVE",
"265 379 OFFCURVE",
"520 379 CURVE SMOOTH",
"778 379 OFFCURVE",
"945 526 OFFCURVE",
"945 732 CURVE SMOOTH",
"945 901 OFFCURVE",
"819 1014 OFFCURVE",
"607 1014 CURVE SMOOTH"
);
},
{
closed = 1;
nodes = (
"1088 761 OFFCURVE",
"1199 776 OFFCURVE",
"1199 890 CURVE SMOOTH",
"1199 969 OFFCURVE",
"1160 1014 OFFCURVE",
"1070 1014 CURVE SMOOTH",
"999 1014 OFFCURVE",
"903 951 OFFCURVE",
"872 905 CURVE SMOOTH",
"839 858 OFFCURVE",
"865 835 OFFCURVE",
"895 848 CURVE",
"920 876 OFFCURVE",
"996 894 OFFCURVE",
"1009 887 CURVE",
"1054 809 LINE SMOOTH"
);
},
{
closed = 1;
nodes = (
"80 50 OFFCURVE",
"22 -57 OFFCURVE",
"22 -162 CURVE SMOOTH {name = hr02;}",
"22 -327 OFFCURVE",
"164 -451 OFFCURVE",
"452 -451 CURVE SMOOTH",
"723 -451 OFFCURVE",
"993 -317 OFFCURVE",
"993 -46 CURVE SMOOTH",
"993 67 OFFCURVE",
"881 149 OFFCURVE",
"669 170 CURVE SMOOTH",
"425 194 LINE SMOOTH",
"352 201 OFFCURVE",
"302 230 OFFCURVE",
"312 300 CURVE SMOOTH {name = hr03;}",
"317 334 OFFCURVE",
"352 380 OFFCURVE",
"387 407 CURVE",
"393 445 OFFCURVE",
"339 443 OFFCURVE",
"316 440 CURVE",
"219 381 OFFCURVE",
"149 309 OFFCURVE",
"149 182 CURVE SMOOTH",
"149 50 OFFCURVE",
"287 10 OFFCURVE",
"413 0 CURVE SMOOTH",
"547 -11 LINE SMOOTH",
"659 -20 OFFCURVE",
"861 -33 OFFCURVE",
"847 -139 CURVE SMOOTH",
"824 -313 OFFCURVE",
"658 -355 OFFCURVE",
"486 -355 CURVE SMOOTH",
"313 -355 OFFCURVE",
"200 -280 OFFCURVE",
"200 -148 CURVE SMOOTH {name = hr04;}",
"200 -79 OFFCURVE",
"216 -20 OFFCURVE",
"257 43 CURVE",
"210 88 LINE"
);
}
);
width = 1173;
}
);
unicode = 0067;
},
{
glyphname = gcommaaccent;
layers = (
{
components = (
{
name = g;
}
);
layerId = "D92FDD0B-F694-41DD-AE46-0E4F694F0F38";
paths = (
{
closed = 1;
nodes = (
"751 1257 OFFCURVE",
"673 1257 OFFCURVE",
"657 1247 CURVE SMOOTH",
"653 1245 OFFCURVE",
"638 1234 OFFCURVE",
"640 1222 CURVE SMOOTH",
"642 1203 OFFCURVE",
"642 1180 OFFCURVE",
"686 1139 CURVE SMOOTH",
"705 1121 OFFCURVE",
"715 1110 OFFCURVE",
"717 1098 CURVE SMOOTH",
"720 1077 OFFCURVE",
"697 1062 OFFCURVE",
"674 1062 CURVE SMOOTH",
"665 1062 OFFCURVE",
"655 1064 OFFCURVE",
"648 1068 CURVE SMOOTH",
"573 1102 OFFCURVE",
"477 1196 OFFCURVE",
"481 1316 CURVE SMOOTH",
"484 1403 OFFCURVE",
"551 1471 OFFCURVE",
"634 1471 CURVE SMOOTH",
"700 1471 OFFCURVE",
"751 1444 OFFCURVE",
"751 1378 CURVE SMOOTH {name = hr00;}"
);
}
);
width = 1173;
}
);
unicode = 0123;
},
{
glyphname = h;
layers = (
{
anchors = (
{
name = btm;
position = "{573, -170}";
},
{
name = top;
position = "{887, 1700}";
}
);
layerId = "D92FDD0B-F694-41DD-AE46-0E4F694F0F38";
paths = (
{
closed = 1;
nodes = (
"445 749 OFFCURVE",
"599 874 OFFCURVE",
"728 874 CURVE SMOOTH",
"833 874 OFFCURVE",
"822 819 OFFCURVE",
"817 785 CURVE SMOOTH",
"720 142 LINE {name = hr02;}",
"720 142 OFFCURVE",
"716 124 OFFCURVE",
"716 102 CURVE SMOOTH",
"716 57 OFFCURVE",
"724 -13 OFFCURVE",
"840 -13 CURVE SMOOTH",
"889 -13 OFFCURVE",
"982 8 OFFCURVE",
"1073 41 CURVE SMOOTH",
"1091 47 OFFCURVE",
"1098 67 OFFCURVE",
"1098 83 CURVE SMOOTH {name = hr03;}",
"1098 112 OFFCURVE",
"1085 113 OFFCURVE",
"1073 113 CURVE SMOOTH",
"1053 113 OFFCURVE",
"1003 96 OFFCURVE",
"975 96 CURVE SMOOTH",
"919 96 OFFCURVE",
"910 130 OFFCURVE",
"916 168 CURVE SMOOTH",
"1010 766 LINE SMOOTH",
"1031 894 OFFCURVE",
"997 1014 OFFCURVE",
"806 1014 CURVE SMOOTH {name = hr04;}",
"590 1014 OFFCURVE",
"406 783 OFFCURVE",
"365 736 CURVE",
"369 652 LINE {name = hr01;}"
);
},
{
closed = 1;
nodes = (
"502 1506 LINE",
"504 1538 OFFCURVE",
"489 1546 OFFCURVE",
"478 1546 CURVE SMOOTH",
"427 1546 OFFCURVE",
"310 1546 OFFCURVE",
"188 1539 CURVE SMOOTH",
"172 1538 OFFCURVE",
"160 1511 OFFCURVE",
"156 1495 CURVE",
"154 1470 OFFCURVE",
"163 1462 OFFCURVE",
"174 1455 CURVE SMOOTH",
"212 1426 OFFCURVE",
"299 1443 OFFCURVE",
"288 1354 CURVE SMOOTH",
"81 0 LINE",
"268 0 LINE",
"386 742 LINE"
);
}
);
width = 1152;
}
);
unicode = 0068;
},
{
glyphname = hbar;
layers = (
{
components = (
{
name = h;
}
);
layerId = "D92FDD0B-F694-41DD-AE46-0E4F694F0F38";
paths = (
{
closed = 1;
nodes = (
"100 1247 LINE",
"86 1241 OFFCURVE",
"74 1229 OFFCURVE",
"70 1204 CURVE",
"70 1188 OFFCURVE",
"72 1156 OFFCURVE",
"88 1155 CURVE",
"251 1155 LINE",
"659 1155 LINE",
"674 1161 OFFCURVE",
"688 1198 OFFCURVE",
"691 1223 CURVE",
"695 1239 OFFCURVE",
"688 1256 OFFCURVE",
"672 1257 CURVE",
"263 1257 LINE {name = hr00;}"
);
}
);
width = 1152;
}
);
unicode = 0127;
},
{
glyphname = idotless;
lastChange = "2018-05-14 02:31:16 +0000";
layers = (
{
anchors = (
{
name = btm;
position = "{318, -170}";
},
{
name = top;
position = "{436, 1700}";
}
);
layerId = "D92FDD0B-F694-41DD-AE46-0E4F694F0F38";
paths = (
{
closed = 1;
nodes = (
"477 989 OFFCURVE",
"460 997 OFFCURVE",
"449 997 CURVE SMOOTH",
"393 996 OFFCURVE",
"277 995 OFFCURVE",
"147 987 CURVE SMOOTH",
"131 986 OFFCURVE",
"119 959 OFFCURVE",
"117 943 CURVE SMOOTH",
"115 918 OFFCURVE",
"121 909 OFFCURVE",
"135 903 CURVE",
"183 889 OFFCURVE",
"272 909 OFFCURVE",
"256 785 CURVE",
"150 142 LINE",
"150 142 OFFCURVE",
"148 124 OFFCURVE",
"148 102 CURVE SMOOTH",
"148 57 OFFCURVE",
"154 -13 OFFCURVE",
"270 -13 CURVE SMOOTH",
"319 -13 OFFCURVE",
"414 8 OFFCURVE",
"505 41 CURVE SMOOTH",
"523 47 OFFCURVE",
"530 67 OFFCURVE",
"530 83 CURVE SMOOTH {name = hr02;}",
"530 112 OFFCURVE",
"517 113 OFFCURVE",
"505 113 CURVE SMOOTH",
"485 113 OFFCURVE",
"433 96 OFFCURVE",
"405 96 CURVE SMOOTH",
"349 96 OFFCURVE",
"341 130 OFFCURVE",
"348 175 CURVE SMOOTH",
"473 957 LINE {name = hr01;}"
);
}
);
width = 609;
}
);
unicode = 0131;
userData = {
com.typemytype.robofont.guides = (
{
angle = 82;
isGlobal = 0;
magnetic = 5;
x = 234;
y = 0;
}
);
};
},
{
glyphname = iogonek;
lastChange = "2018-05-14 02:31:16 +0000";
layers = (
{
components = (
{
name = dotaccent;
transform = "{1, 0, 0, 1, -121, -2}";
},
{
name = idotless;
transform = "{1, 0, 0, 1, 2, 0}";
}
);
layerId = "D92FDD0B-F694-41DD-AE46-0E4F694F0F38";
paths = (
{
closed = 1;
nodes = (
"-10 -385 OFFCURVE",
"75 -448 OFFCURVE",
"240 -448 CURVE SMOOTH",
"291 -448 OFFCURVE",
"344 -438 OFFCURVE",
"401 -422 CURVE SMOOTH",
"416 -418 OFFCURVE",
"428 -408 OFFCURVE",
"431 -393 CURVE SMOOTH",
"436 -367 OFFCURVE",
"432 -350 OFFCURVE",
"415 -349 CURVE SMOOTH",
"367 -346 OFFCURVE",
"168 -381 OFFCURVE",
"168 -238 CURVE SMOOTH",
"168 -176 OFFCURVE",
"195 -69 OFFCURVE",
"461 31 CURVE",
"461 31 OFFCURVE",
"290 15 OFFCURVE",
"290 15 CURVE",
"171 -1 OFFCURVE",
"-10 -145 OFFCURVE",
"-10 -278 CURVE SMOOTH {name = hr00;}"
);
}
);
width = 609;
}
);
unicode = 012F;
},
{
glyphname = dotlessj;
layers = (
{
anchors = (
{
name = btm;
position = "{141, -170}";
},
{
name = top;
position = "{456, 1700}";
}
);
layerId = "D92FDD0B-F694-41DD-AE46-0E4F694F0F38";
paths = (
{
closed = 1;
nodes = (
"-146 -178 OFFCURVE",
"-214 -223 OFFCURVE",
"-223 -285 CURVE SMOOTH",
"-232 -354 OFFCURVE",
"-178 -449 OFFCURVE",
"-51 -449 CURVE SMOOTH",
"177 -449 OFFCURVE",
"339 -187 OFFCURVE",
"378 88 CURVE SMOOTH",
"513 957 LINE",
"514 989 OFFCURVE",
"500 997 OFFCURVE",
"489 997 CURVE SMOOTH",
"431 996 OFFCURVE",
"301 995 OFFCURVE",
"167 987 CURVE SMOOTH",
"151 986 OFFCURVE",
"139 959 OFFCURVE",
"137 943 CURVE SMOOTH",
"134 918 OFFCURVE",
"142 908 OFFCURVE",
"155 903 CURVE SMOOTH",
"206 885 OFFCURVE",
"314 902 OFFCURVE",
"297 778 CURVE",
"297 777 LINE",
"182 56 LINE SMOOTH",
"130 -317 OFFCURVE",
"61 -345 OFFCURVE",
"-8 -347 CURVE",
"-60 -202 LINE SMOOTH",
"-67 -185 OFFCURVE",
"-83 -178 OFFCURVE",
"-111 -178 CURVE SMOOTH {name = hr00;}"
);
}
);
width = 596;
}
);
unicode = 0237;
},
{
glyphname = k;
layers = (
{
anchors = (
{
name = btm;
position = "{450, -170}";
},
{
name = top;
position = "{600, 1700}";
}
);
layerId = "D92FDD0B-F694-41DD-AE46-0E4F694F0F38";
paths = (
{
closed = 1;
nodes = (
"530 1506 LINE",
"532 1538 OFFCURVE",
"517 1546 OFFCURVE",
"506 1546 CURVE SMOOTH",
"449 1546 OFFCURVE",
"320 1546 OFFCURVE",
"186 1539 CURVE SMOOTH",
"170 1538 OFFCURVE",
"158 1511 OFFCURVE",
"154 1495 CURVE",
"151 1470 OFFCURVE",
"160 1462 OFFCURVE",
"172 1455 CURVE SMOOTH",
"219 1426 OFFCURVE",
"330 1443 OFFCURVE",
"316 1354 CURVE SMOOTH",
"109 0 LINE",
"296 0 LINE",
"355 405 LINE",
"440 475 LINE",
"535 373 OFFCURVE",
"623 166 OFFCURVE",
"699 33 CURVE SMOOTH {name = hr02;}",
"713 6 OFFCURVE",
"749 -14 OFFCURVE",
"807 -17 CURVE SMOOTH",
"857 -19 OFFCURVE",
"931 -7 OFFCURVE",
"1028 27 CURVE",
"1050 34 OFFCURVE",
"1055 63 OFFCURVE",
"1052 78 CURVE SMOOTH",
"1048 107 OFFCURVE",
"1037 109 OFFCURVE",
"1015 106 CURVE SMOOTH",
"997 103 OFFCURVE",
"973 98 OFFCURVE",
"951 97 CURVE SMOOTH",
"914 96 OFFCURVE",
"882 137 OFFCURVE",
"859 170 CURVE SMOOTH",
"760 309 OFFCURVE",
"668 502 OFFCURVE",
"577 570 CURVE",
"883 814 LINE SMOOTH",
"930 855 OFFCURVE",
"1004 900 OFFCURVE",
"1063 899 CURVE SMOOTH",
"1085 899 OFFCURVE",
"1099 918 OFFCURVE",
"1102 942 CURVE SMOOTH",
"1105 957 OFFCURVE",
"1097 987 OFFCURVE",
"1075 987 CURVE SMOOTH",
"702 990 LINE SMOOTH",
"679 991 OFFCURVE",
"664 961 OFFCURVE",
"661 946 CURVE SMOOTH",
"659 925 OFFCURVE",
"660 905 OFFCURVE",
"686 903 CURVE SMOOTH",
"747 896 OFFCURVE",
"817 891 OFFCURVE",
"767 848 CURVE SMOOTH",
"362 503 LINE",
"414 742 LINE {name = hr01;}"
);
}
);
width = 1081;
}
);
unicode = 006B;
},
{
glyphname = kgreenlandic;
layers = (
{
layerId = "D92FDD0B-F694-41DD-AE46-0E4F694F0F38";
paths = (
{
closed = 1;
nodes = (
"377 360 LINE",
"492 450 LINE",
"577 357 OFFCURVE",
"684 157 OFFCURVE",
"750 37 CURVE SMOOTH {name = hr02;}",
"765 10 OFFCURVE",
"801 -11 OFFCURVE",
"859 -13 CURVE SMOOTH",
"909 -15 OFFCURVE",
"973 -2 OFFCURVE",
"1069 34 CURVE",
"1091 41 OFFCURVE",
"1096 70 OFFCURVE",
"1093 85 CURVE SMOOTH",
"1088 114 OFFCURVE",
"1077 116 OFFCURVE",
"1055 112 CURVE SMOOTH",
"1037 109 OFFCURVE",
"1013 104 OFFCURVE",
"991 103 CURVE SMOOTH",
"954 102 OFFCURVE",
"921 142 OFFCURVE",
"898 175 CURVE SMOOTH",
"809 301 OFFCURVE",
"707 492 OFFCURVE",
"627 552 CURVE",
"895 819 LINE SMOOTH",
"948 861 OFFCURVE",
"1029 906 OFFCURVE",
"1094 906 CURVE SMOOTH",
"1116 906 OFFCURVE",
"1130 925 OFFCURVE",
"1133 949 CURVE SMOOTH",
"1135 964 OFFCURVE",
"1128 994 OFFCURVE",
"1105 994 CURVE SMOOTH",
"712 994 LINE SMOOTH",
"689 994 OFFCURVE",
"674 964 OFFCURVE",
"672 949 CURVE SMOOTH",
"669 928 OFFCURVE",
"671 908 OFFCURVE",
"697 906 CURVE SMOOTH",
"758 900 OFFCURVE",
"839 892 OFFCURVE",
"780 842 CURVE SMOOTH",
"380 453 LINE",
"350 402 LINE {name = hr01;}"
);
},
{
closed = 1;
nodes = (
"493 989 OFFCURVE",
"476 997 OFFCURVE",
"465 997 CURVE SMOOTH",
"409 996 OFFCURVE",
"281 995 OFFCURVE",
"151 987 CURVE SMOOTH",
"135 986 OFFCURVE",
"123 959 OFFCURVE",
"121 943 CURVE SMOOTH",
"119 918 OFFCURVE",
"125 909 OFFCURVE",
"139 903 CURVE",
"187 889 OFFCURVE",
"290 901 OFFCURVE",
"271 778 CURVE",
"143 0 LINE",
"335 0 LINE",
"489 957 LINE {name = hr03;}"
);
}
);
width = 1138;
}
);
unicode = 0138;
},
{
glyphname = l;
layers = (
{
anchors = (
{
name = btm;
position = "{181, -170}";
},
{
name = top;
position = "{406, 1700}";
}
);
layerId = "D92FDD0B-F694-41DD-AE46-0E4F694F0F38";
paths = (
{
closed = 1;
nodes = (
"122 142 OFFCURVE",
"120 124 OFFCURVE",
"120 102 CURVE SMOOTH",
"120 57 OFFCURVE",
"126 -13 OFFCURVE",
"242 -13 CURVE SMOOTH",
"291 -13 OFFCURVE",
"386 8 OFFCURVE",
"477 41 CURVE SMOOTH",
"495 47 OFFCURVE",
"502 67 OFFCURVE",
"502 83 CURVE SMOOTH {name = hr02;}",
"502 112 OFFCURVE",
"489 113 OFFCURVE",
"477 113 CURVE SMOOTH",
"457 113 OFFCURVE",
"405 96 OFFCURVE",
"377 96 CURVE SMOOTH",
"321 96 OFFCURVE",
"314 128 OFFCURVE",
"320 168 CURVE SMOOTH",
"520 1508 LINE SMOOTH",
"520 1512 OFFCURVE",
"521 1515 OFFCURVE",
"521 1518 CURVE SMOOTH",
"521 1542 OFFCURVE",
"506 1548 OFFCURVE",
"496 1548 CURVE SMOOTH",
"439 1547 OFFCURVE",
"309 1546 OFFCURVE",
"175 1538 CURVE SMOOTH",
"154 1537 OFFCURVE",
"143 1497 OFFCURVE",
"143 1485 CURVE SMOOTH",
"143 1414 OFFCURVE",
"324 1463 OFFCURVE",
"306 1354 CURVE SMOOTH",
"122 142 LINE {name = hr01;}"
);
}
);
width = 584;
}
);
unicode = 006C;
},
{
glyphname = lacute;
layers = (
{
components = (
{
name = acute.cap;
transform = "{1, 0, 0, 1, -100, 0}";
}
);
layerId = "D92FDD0B-F694-41DD-AE46-0E4F694F0F38";
paths = (
{
closed = 1;
nodes = (
"121 142 OFFCURVE",
"119 124 OFFCURVE",
"119 102 CURVE SMOOTH",
"119 57 OFFCURVE",
"125 -13 OFFCURVE",
"241 -13 CURVE SMOOTH",
"290 -13 OFFCURVE",
"366 1 OFFCURVE",
"457 34 CURVE SMOOTH",
"475 40 OFFCURVE",
"482 60 OFFCURVE",
"482 76 CURVE SMOOTH {name = hr02;}",
"482 105 OFFCURVE",
"469 113 OFFCURVE",
"457 113 CURVE SMOOTH",
"437 113 OFFCURVE",
"404 103 OFFCURVE",
"376 103 CURVE SMOOTH",
"320 103 OFFCURVE",
"313 135 OFFCURVE",
"319 175 CURVE SMOOTH",
"515 1378 LINE",
"515 1382 OFFCURVE",
"516 1385 OFFCURVE",
"516 1388 CURVE SMOOTH",
"516 1412 OFFCURVE",
"501 1418 OFFCURVE",
"491 1418 CURVE SMOOTH",
"434 1417 OFFCURVE",
"304 1416 OFFCURVE",
"170 1408 CURVE SMOOTH",
"149 1407 OFFCURVE",
"138 1367 OFFCURVE",
"138 1355 CURVE SMOOTH",
"138 1284 OFFCURVE",
"319 1333 OFFCURVE",
"301 1224 CURVE SMOOTH",
"121 142 LINE {name = hr01;}"
);
}
);
width = 584;
}
);
unicode = 013A;
},
{
glyphname = lslash;
layers = (
{
components = (
{
name = l;
}
);
layerId = "D92FDD0B-F694-41DD-AE46-0E4F694F0F38";
paths = (
{
closed = 1;
nodes = (
"580 761 LINE",
"541 849 LINE",
"41 637 LINE",
"80 549 LINE {name = hr00;}"
);
}
);
width = 584;
}
);
unicode = 0142;
},
{
glyphname = m;
layers = (
{
anchors = (
{
name = btm;
position = "{910, -170}";
},
{
name = top;
position = "{1090, 1700}";
}
);
layerId = "D92FDD0B-F694-41DD-AE46-0E4F694F0F38";
paths = (
{
closed = 1;
nodes = (
"1666 974 OFFCURVE",
"1541 1014 OFFCURVE",
"1396 1014 CURVE SMOOTH",
"1253 1014 OFFCURVE",
"1123 895 OFFCURVE",
"1052 824 CURVE",
"1051 981 OFFCURVE",
"937 1014 OFFCURVE",
"807 1014 CURVE SMOOTH",
"633 1014 OFFCURVE",
"482 832 OFFCURVE",
"440 785 CURVE",
"466 957 LINE {name = hr02;}",
"470 989 OFFCURVE",
"453 997 OFFCURVE",
"442 997 CURVE SMOOTH",
"386 996 OFFCURVE",
"270 995 OFFCURVE",
"140 987 CURVE SMOOTH",
"124 986 OFFCURVE",
"112 959 OFFCURVE",
"110 943 CURVE SMOOTH",
"107 918 OFFCURVE",
"115 909 OFFCURVE",
"128 903 CURVE",
"176 889 OFFCURVE",
"280 901 OFFCURVE",
"260 778 CURVE SMOOTH",
"137 0 LINE",
"329 0 LINE",
"438 688 LINE",
"504 763 OFFCURVE",
"604 873 OFFCURVE",
"737 873 CURVE SMOOTH {name = hr03;}",
"855 873 OFFCURVE",
"861 796 OFFCURVE",
"856 762 CURVE SMOOTH",
"738 0 LINE",
"932 0 LINE",
"1042 722 LINE",
"1112 792 OFFCURVE",
"1208 873 OFFCURVE",
"1325 873 CURVE SMOOTH",
"1443 873 OFFCURVE",
"1449 796 OFFCURVE",
"1444 762 CURVE SMOOTH",
"1347 142 LINE {name = hr04;}",
"1347 142 OFFCURVE",
"1345 124 OFFCURVE",
"1345 102 CURVE SMOOTH",
"1345 57 OFFCURVE",
"1351 -13 OFFCURVE",
"1467 -13 CURVE SMOOTH",
"1516 -13 OFFCURVE",
"1611 8 OFFCURVE",
"1702 41 CURVE SMOOTH",
"1720 47 OFFCURVE",
"1727 67 OFFCURVE",
"1727 83 CURVE SMOOTH {name = hr05;}",
"1727 112 OFFCURVE",
"1714 113 OFFCURVE",
"1702 113 CURVE SMOOTH",
"1682 113 OFFCURVE",
"1630 96 OFFCURVE",
"1602 96 CURVE SMOOTH",
"1546 96 OFFCURVE",
"1539 130 OFFCURVE",
"1545 175 CURVE",
"1637 766 LINE {name = hr01;}"
);
}
);
width = 1801;
}
);
unicode = 006D;
},
{
glyphname = n;
layers = (
{
anchors = (
{
name = btm;
position = "{512, -170}";
},
{
name = top;
position = "{772, 1700}";
}
);
layerId = "D92FDD0B-F694-41DD-AE46-0E4F694F0F38";
paths = (
{
closed = 1;
nodes = (
"1070 974 OFFCURVE",
"958 1014 OFFCURVE",
"841 1014 CURVE SMOOTH {name = hr02;}",
"656 1014 OFFCURVE",
"495 842 OFFCURVE",
"442 785 CURVE",
"468 957 LINE SMOOTH {name = hr03;}",
"472 989 OFFCURVE",
"455 997 OFFCURVE",
"444 997 CURVE SMOOTH",
"388 996 OFFCURVE",
"270 995 OFFCURVE",
"140 987 CURVE SMOOTH",
"124 986 OFFCURVE",
"112 959 OFFCURVE",
"110 943 CURVE SMOOTH",
"108 918 OFFCURVE",
"114 909 OFFCURVE",
"128 903 CURVE",
"176 889 OFFCURVE",
"279 901 OFFCURVE",
"260 778 CURVE SMOOTH",
"139 0 LINE",
"331 0 LINE",
"440 689 LINE",
"506 774 OFFCURVE",
"653 874 OFFCURVE",
"763 874 CURVE SMOOTH {name = hr04;}",
"834 874 OFFCURVE",
"862 857 OFFCURVE",
"852 784 CURVE SMOOTH",
"755 142 LINE {name = hr05;}",
"755 142 OFFCURVE",
"753 124 OFFCURVE",
"753 102 CURVE SMOOTH",
"753 57 OFFCURVE",
"759 -13 OFFCURVE",
"875 -13 CURVE SMOOTH",
"924 -13 OFFCURVE",
"1019 8 OFFCURVE",
"1110 41 CURVE SMOOTH",
"1128 47 OFFCURVE",
"1135 67 OFFCURVE",
"1135 83 CURVE SMOOTH {name = hr06;}",
"1135 112 OFFCURVE",
"1122 113 OFFCURVE",
"1110 113 CURVE SMOOTH",
"1090 113 OFFCURVE",
"1038 96 OFFCURVE",
"1010 96 CURVE SMOOTH",
"954 96 OFFCURVE",
"947 130 OFFCURVE",
"953 175 CURVE",
"1045 766 LINE {name = hr01;}"
);
}
);
width = 1208;
}
);
unicode = 006E;
},
{
glyphname = napostrophe;
layers = (
{
components = (
{
name = n;
transform = "{1, 0, 0, 1, 80, 0}";
}
);
layerId = "D92FDD0B-F694-41DD-AE46-0E4F694F0F38";
paths = (
{
closed = 1;
nodes = (
"158 1109 OFFCURVE",
"346 1335 OFFCURVE",
"346 1524 CURVE SMOOTH",
"346 1638 OFFCURVE",
"306 1681 OFFCURVE",
"221 1681 CURVE SMOOTH",
"131 1681 OFFCURVE",
"60 1623 OFFCURVE",
"60 1532 CURVE SMOOTH",
"60 1433 OFFCURVE",
"165 1428 OFFCURVE",
"167 1417 CURVE",
"167 1373 OFFCURVE",
"141 1227 OFFCURVE",
"42 1127 CURVE SMOOTH",
"21 1106 OFFCURVE",
"12 1092 OFFCURVE",
"12 1078 CURVE SMOOTH",
"12 1059 OFFCURVE",
"32 1048 OFFCURVE",
"52 1048 CURVE SMOOTH",
"62 1048 OFFCURVE",
"72 1051 OFFCURVE",
"80 1056 CURVE SMOOTH {name = hr00;}"
);
}
);
width = 1288;
}
);
unicode = 0149;
},
{
glyphname = eng;
layers = (
{
anchors = (
{
name = btm;
position = "{576, -170}";
},
{
name = top;
position = "{576, 1700}";
}
);
layerId = "D92FDD0B-F694-41DD-AE46-0E4F694F0F38";
paths = (
{
closed = 1;
nodes = (
"708 -317 OFFCURVE",
"632 -345 OFFCURVE",
"555 -347 CURVE",
"503 -202 LINE",
"496 -185 OFFCURVE",
"480 -178 OFFCURVE",
"452 -178 CURVE SMOOTH",
"397 -178 OFFCURVE",
"349 -223 OFFCURVE",
"340 -285 CURVE SMOOTH",
"331 -354 OFFCURVE",
"385 -449 OFFCURVE",
"512 -449 CURVE SMOOTH",
"750 -449 OFFCURVE",
"918 -186 OFFCURVE",
"961 88 CURVE SMOOTH",
"1068 763 LINE SMOOTH",
"1101 970 OFFCURVE",
"977 1014 OFFCURVE",
"848 1014 CURVE SMOOTH",
"663 1014 OFFCURVE",
"505 842 OFFCURVE",
"452 785 CURVE",
"478 957 LINE {name = hr02;}",
"482 989 OFFCURVE",
"465 997 OFFCURVE",
"454 997 CURVE SMOOTH",
"398 996 OFFCURVE",
"280 995 OFFCURVE",
"150 987 CURVE SMOOTH",
"134 986 OFFCURVE",
"122 959 OFFCURVE",
"120 943 CURVE SMOOTH",
"118 918 OFFCURVE",
"124 909 OFFCURVE",
"138 903 CURVE",
"186 889 OFFCURVE",
"289 901 OFFCURVE",
"270 778 CURVE",
"142 0 LINE",
"334 0 LINE",
"450 689 LINE",
"516 774 OFFCURVE",
"660 874 OFFCURVE",
"770 874 CURVE SMOOTH {name = hr03;}",
"857 874 OFFCURVE",
"887 855 OFFCURVE",
"869 736 CURVE SMOOTH",
"765 56 LINE SMOOTH {name = hr01;}"
);
}
);
width = 1184;
}
);
unicode = 014B;
},
{
glyphname = o;
layers = (
{
anchors = (
{
name = btm;
position = "{549, -170}";
},
{
name = top;
position = "{717, 1700}";
}
);
layerId = "D92FDD0B-F694-41DD-AE46-0E4F694F0F38";
paths = (
{
closed = 1;
nodes = (
"98 153 OFFCURVE",
"238 -28 OFFCURVE",
"490 -28 CURVE SMOOTH",
"817 -28 OFFCURVE",
"1013 255 OFFCURVE",
"1006 585 CURVE SMOOTH",
"1001 837 OFFCURVE",
"865 1014 OFFCURVE",
"613 1014 CURVE SMOOTH",
"280 1014 OFFCURVE",
"87 705 OFFCURVE",
"93 411 CURVE SMOOTH {name = hr00;}"
);
},
{
closed = 1;
nodes = (
"347 59 OFFCURVE",
"307 177 OFFCURVE",
"304 348 CURVE SMOOTH",
"298 620 OFFCURVE",
"379 926 OFFCURVE",
"612 926 CURVE SMOOTH",
"750 926 OFFCURVE",
"788 813 OFFCURVE",
"791 646 CURVE SMOOTH",
"797 368 OFFCURVE",
"718 59 OFFCURVE",
"486 59 CURVE SMOOTH"
);
}
);
width = 1100;
}
);
unicode = 006F;
},
{
glyphname = oslash;
layers = (
{
components = (
{
name = o;
}
);
layerId = "D92FDD0B-F694-41DD-AE46-0E4F694F0F38";
paths = (
{
closed = 1;
nodes = (
"872 1101 LINE",
"132 -83 LINE",
"214 -134 LINE",
"953 1050 LINE {name = hr00;}"
);
}
);
width = 1100;
}
);
unicode = 00F8;
},
{
glyphname = oe;
layers = (
{
anchors = (
{
name = btm;
position = "{845, -170}";
},
{
name = top;
position = "{845, 1700}";
}
);
layerId = "D92FDD0B-F694-41DD-AE46-0E4F694F0F38";
paths = (
{
closed = 1;
nodes = (
"83 149 OFFCURVE",
"221 -28 OFFCURVE",
"461 -28 CURVE SMOOTH",
"616 -28 OFFCURVE",
"725 36 OFFCURVE",
"810 140 CURVE",
"878 34 OFFCURVE",
"999 -29 OFFCURVE",
"1165 -29 CURVE SMOOTH {name = hr02;}",
"1331 -29 OFFCURVE",
"1447 50 OFFCURVE",
"1536 164 CURVE",
"1540 172 OFFCURVE",
"1555 181 OFFCURVE",
"1542 192 CURVE SMOOTH",
"1505 225 LINE",
"1494 231 OFFCURVE",
"1494 223 OFFCURVE",
"1483 215 CURVE",
"1391 124 OFFCURVE",
"1310 75 OFFCURVE",
"1196 75 CURVE SMOOTH",
"1072 75 OFFCURVE",
"964 154 OFFCURVE",
"964 362 CURVE SMOOTH",
"964 378 OFFCURVE",
"964 394 OFFCURVE",
"965 409 CURVE",
"1398 454 OFFCURVE",
"1613 611 OFFCURVE",
"1613 804 CURVE SMOOTH",
"1613 898 OFFCURVE",
"1549 1014 OFFCURVE",
"1333 1014 CURVE SMOOTH",
"1222 1014 OFFCURVE",
"1108 979 OFFCURVE",
"1008 890 CURVE SMOOTH",
"981 866 OFFCURVE",
"947 827 OFFCURVE",
"924 794 CURVE",
"897 930 OFFCURVE",
"772 1014 OFFCURVE",
"624 1014 CURVE SMOOTH",
"273 1014 OFFCURVE",
"72 700 OFFCURVE",
"78 401 CURVE SMOOTH {name = hr01;}"
);
},
{
closed = 1;
nodes = (
"1378 933 OFFCURVE",
"1426 901 OFFCURVE",
"1426 838 CURVE SMOOTH",
"1426 660 OFFCURVE",
"1295 536 OFFCURVE",
"970 486 CURVE",
"1006 770 OFFCURVE",
"1160 933 OFFCURVE",
"1327 933 CURVE SMOOTH {name = hr04;}"
);
},
{
closed = 1;
nodes = (
"330 59 OFFCURVE",
"292 173 OFFCURVE",
"289 338 CURVE SMOOTH",
"283 615 OFFCURVE",
"369 926 OFFCURVE",
"626 926 CURVE SMOOTH {name = hr05;}",
"718 926 OFFCURVE",
"790 820 OFFCURVE",
"773 653 CURVE",
"743 375 OFFCURVE",
"680 59 OFFCURVE",
"455 59 CURVE SMOOTH"
);
}
);
width = 1690;
}
);
unicode = 0153;
},
{
glyphname = p;
layers = (
{
anchors = (
{
name = btm;
position = "{499, -170}";
},
{
name = top;
position = "{783, 1700}";
}
);
layerId = "D92FDD0B-F694-41DD-AE46-0E4F694F0F38";
paths = (
{
closed = 1;
nodes = (
"353 158 LINE",
"429 720 LINE",
"432 815 LINE",
"454 957 LINE SMOOTH {name = hr02;}",
"459 989 OFFCURVE",
"441 997 OFFCURVE",
"430 997 CURVE SMOOTH",
"374 996 OFFCURVE",
"258 995 OFFCURVE",
"128 987 CURVE SMOOTH",
"112 986 OFFCURVE",
"100 959 OFFCURVE",
"98 943 CURVE SMOOTH",
"96 918 OFFCURVE",
"102 908 OFFCURVE",
"116 903 CURVE SMOOTH",
"163 886 OFFCURVE",
"265 902 OFFCURVE",
"248 778 CURVE SMOOTH",
"96 -269 LINE SMOOTH",
"84 -355 OFFCURVE",
"10 -361 OFFCURVE",
"-40 -366 CURVE SMOOTH",
"-67 -369 OFFCURVE",
"-76 -373 OFFCURVE",
"-80 -403 CURVE SMOOTH",
"-82 -418 OFFCURVE",
"-74 -444 OFFCURVE",
"-53 -444 CURVE SMOOTH",
"437 -444 LINE SMOOTH",
"460 -444 OFFCURVE",
"474 -418 OFFCURVE",
"477 -403 CURVE SMOOTH",
"480 -382 OFFCURVE",
"475 -368 OFFCURVE",
"449 -366 CURVE SMOOTH",
"371 -359 OFFCURVE",
"270 -346 OFFCURVE",
"276 -302 CURVE SMOOTH",
"312 -108 LINE",
"327 11 LINE {name = hr01;}"
);
},
{
closed = 1;
nodes = (
"467 782 OFFCURVE",
"609 895 OFFCURVE",
"704 895 CURVE SMOOTH {name = hr03;}",
"839 895 OFFCURVE",
"871 757 OFFCURVE",
"871 621 CURVE SMOOTH",
"871 409 OFFCURVE",
"807 65 OFFCURVE",
"560 65 CURVE SMOOTH",
"454 65 OFFCURVE",
"353 119 OFFCURVE",
"332 206 CURVE",
"219 101 LINE",
"282 25 OFFCURVE",
"373 -30 OFFCURVE",
"563 -30 CURVE SMOOTH",
"865 -30 OFFCURVE",
"1075 273 OFFCURVE",
"1075 608 CURVE SMOOTH",
"1075 823 OFFCURVE",
"1002 1013 OFFCURVE",
"760 1013 CURVE SMOOTH",
"663 1013 OFFCURVE",
"515 954 OFFCURVE",
"427 802 CURVE",
"412 679 LINE"
);
}
);
width = 1184;
}
);
unicode = 0070;
},
{
glyphname = thorn;
layers = (
{
anchors = (
{
name = btm;
position = "{520, -170}";
},
{
name = top;
position = "{520, 1700}";
}
);
components = (
{
name = b;
}
);
layerId = "D92FDD0B-F694-41DD-AE46-0E4F694F0F38";
paths = (
{
closed = 1;
nodes = (
"223 149 LINE",
"97 126 LINE",
"-1 -443 LINE",
"180 -444 LINE",
"233 -117 LINE",
"247 34 LINE {name = hr00;}"
);
}
);
width = 1132;
}
);
unicode = 00FE;
},
{
glyphname = q;
layers = (
{
anchors = (
{
name = btm;
position = "{575, -170}";
},
{
name = top;
position = "{575, 1700}";
}
);
layerId = "D92FDD0B-F694-41DD-AE46-0E4F694F0F38";
paths = (
{
closed = 1;
nodes = (
"745 154 LINE",
"715 -29 LINE",
"669 -302 LINE SMOOTH",
"662 -346 OFFCURVE",
"607 -359 OFFCURVE",
"532 -366 CURVE SMOOTH",
"506 -368 OFFCURVE",
"497 -382 OFFCURVE",
"494 -403 CURVE SMOOTH",
"492 -418 OFFCURVE",
"499 -444 OFFCURVE",
"522 -444 CURVE SMOOTH",
"937 -444 LINE SMOOTH",
"960 -444 OFFCURVE",
"975 -418 OFFCURVE",
"977 -403 CURVE SMOOTH",
"981 -373 OFFCURVE",
"974 -369 OFFCURVE",
"946 -366 CURVE SMOOTH",
"895 -361 OFFCURVE",
"846 -355 OFFCURVE",
"857 -275 CURVE SMOOTH",
"1052 994 LINE SMOOTH",
"1058 1033 OFFCURVE",
"1005 1040 OFFCURVE",
"971 1007 CURVE SMOOTH",
"954 991 OFFCURVE",
"871 924 OFFCURVE",
"849 906 CURVE",
"762 346 LINE {name = hr00;}"
);
},
{
closed = 1;
nodes = (
"712 213 OFFCURVE",
"555 88 OFFCURVE",
"460 88 CURVE SMOOTH",
"325 88 OFFCURVE",
"293 226 OFFCURVE",
"293 362 CURVE SMOOTH",
"293 574 OFFCURVE",
"357 918 OFFCURVE",
"604 918 CURVE SMOOTH",
"710 918 OFFCURVE",
"811 864 OFFCURVE",
"832 777 CURVE",
"945 882 LINE",
"882 958 OFFCURVE",
"791 1013 OFFCURVE",
"601 1013 CURVE SMOOTH",
"299 1013 OFFCURVE",
"89 710 OFFCURVE",
"89 375 CURVE SMOOTH",
"89 160 OFFCURVE",
"162 -30 OFFCURVE",
"404 -30 CURVE SMOOTH",
"501 -30 OFFCURVE",
"666 32 OFFCURVE",
"757 213 CURVE",
"769 329 LINE"
);
}
);
width = 1137;
}
);
unicode = 0071;
},
{
glyphname = r;
layers = (
{
anchors = (
{
name = btm;
position = "{204, -170}";
},
{
name = top;
position = "{638, 1700}";
}
);
layerId = "D92FDD0B-F694-41DD-AE46-0E4F694F0F38";
paths = (
{
closed = 1;
nodes = (
"468 989 OFFCURVE",
"450 997 OFFCURVE",
"439 997 CURVE SMOOTH",
"383 996 OFFCURVE",
"267 995 OFFCURVE",
"137 987 CURVE SMOOTH",
"121 986 OFFCURVE",
"109 959 OFFCURVE",
"107 943 CURVE SMOOTH",
"104 918 OFFCURVE",
"112 909 OFFCURVE",
"125 903 CURVE",
"173 889 OFFCURVE",
"277 901 OFFCURVE",
"257 778 CURVE SMOOTH",
"134 0 LINE",
"326 0 LINE",
"433 661 LINE",
"495 743 OFFCURVE",
"647 876 OFFCURVE",
"727 876 CURVE {name = hr02;}",
"790 685 LINE",
"794 682 OFFCURVE",
"809 671 OFFCURVE",
"819 671 CURVE SMOOTH",
"913 670 OFFCURVE",
"945 725 OFFCURVE",
"945 819 CURVE SMOOTH",
"945 918 OFFCURVE",
"881 1014 OFFCURVE",
"770 1014 CURVE SMOOTH",
"617 1014 OFFCURVE",
"488 822 OFFCURVE",
"443 767 CURVE",
"463 957 LINE {name = hr01;}"
);
}
);
width = 945;
}
);
unicode = 0072;
},
{
glyphname = s;
layers = (
{
anchors = (
{
name = btm;
position = "{365, -170}";
},
{
name = top;
position = "{671, 1700}";
}
);
layerId = "D92FDD0B-F694-41DD-AE46-0E4F694F0F38";
paths = (
{
closed = 1;
nodes = (
"354 59 OFFCURVE",
"329 59 OFFCURVE",
"303 82 CURVE",
"238 154 OFFCURVE",
"211 204 OFFCURVE",
"188 252 CURVE",
"177 269 OFFCURVE",
"156 275 OFFCURVE",
"136 275 CURVE SMOOTH",
"92 275 OFFCURVE",
"45 247 OFFCURVE",
"45 191 CURVE SMOOTH",
"45 50 OFFCURVE",
"181 -28 OFFCURVE",
"396 -28 CURVE SMOOTH",
"566 -28 OFFCURVE",
"761 63 OFFCURVE",
"761 271 CURVE SMOOTH",
"761 523 OFFCURVE",
"341 619 OFFCURVE",
"333 795 CURVE SMOOTH",
"328 897 OFFCURVE",
"414 935 OFFCURVE",
"493 934 CURVE SMOOTH",
"534 934 OFFCURVE",
"558 916 OFFCURVE",
"566 911 CURVE",
"615 864 OFFCURVE",
"645 818 OFFCURVE",
"670 771 CURVE",
"683 755 OFFCURVE",
"692 743 OFFCURVE",
"720 743 CURVE SMOOTH",
"757 743 OFFCURVE",
"809 781 OFFCURVE",
"805 842 CURVE SMOOTH",
"799 939 OFFCURVE",
"705 1013 OFFCURVE",
"499 1013 CURVE SMOOTH",
"381 1013 OFFCURVE",
"154 968 OFFCURVE",
"164 735 CURVE SMOOTH",
"176 467 OFFCURVE",
"568 403 OFFCURVE",
"577 213 CURVE SMOOTH",
"582 102 OFFCURVE",
"495 59 OFFCURVE",
"431 59 CURVE SMOOTH {name = hr00;}"
);
}
);
width = 883;
}
);
unicode = 0073;
},
{
glyphname = germandbls;
layers = (
{
anchors = (
{
name = btm;
position = "{538, -170}";
},
{
name = top;
position = "{538, 1700}";
}
);
layerId = "D92FDD0B-F694-41DD-AE46-0E4F694F0F38";
paths = (
{
closed = 1;
nodes = (
"402 1093 LINE SMOOTH",
"452 1453 OFFCURVE",
"596 1474 OFFCURVE",
"690 1474 CURVE SMOOTH",
"778 1474 OFFCURVE",
"839 1418 OFFCURVE",
"839 1324 CURVE SMOOTH",
"839 1086 OFFCURVE",
"574 1057 OFFCURVE",
"574 833 CURVE SMOOTH",
"574 631 OFFCURVE",
"866 492 OFFCURVE",
"866 271 CURVE SMOOTH {name = hr02;}",
"866 153 OFFCURVE",
"788 55 OFFCURVE",
"668 55 CURVE SMOOTH",
"618 55 OFFCURVE",
"602 89 OFFCURVE",
"602 89 CURVE",
"557 222 LINE",
"555 239 OFFCURVE",
"535 244 OFFCURVE",
"509 244 CURVE SMOOTH",
"468 244 OFFCURVE",
"403 204 OFFCURVE",
"403 135 CURVE SMOOTH",
"403 52 OFFCURVE",
"482 -29 OFFCURVE",
"662 -29 CURVE SMOOTH",
"871 -29 OFFCURVE",
"1044 86 OFFCURVE",
"1044 319 CURVE SMOOTH",
"1044 614 OFFCURVE",
"749 744 OFFCURVE",
"749 911 CURVE SMOOTH",
"749 1072 OFFCURVE",
"1032 1084 OFFCURVE",
"1032 1346 CURVE SMOOTH {name = hr03;}",
"1032 1492 OFFCURVE",
"915 1559 OFFCURVE",
"731 1559 CURVE SMOOTH",
"405 1559 OFFCURVE",
"239 1315 OFFCURVE",
"201 1061 CURVE SMOOTH",
"47 0 LINE",
"255 0 LINE {name = hr01;}"
);
}
);
width = 1110;
}
);
unicode = 00DF;
},
{
glyphname = t;
layers = (
{
anchors = (
{
name = btm;
position = "{270, -170}";
},
{
name = top;
position = "{510, 1700}";
}
);
layerId = "D92FDD0B-F694-41DD-AE46-0E4F694F0F38";
paths = (
{
closed = 1;
nodes = (
"130 20 OFFCURVE",
"219 -28 OFFCURVE",
"356 -28 CURVE SMOOTH",
"452 -28 OFFCURVE",
"560 26 OFFCURVE",
"628 93 CURVE SMOOTH",
"651 116 OFFCURVE",
"621 160 OFFCURVE",
"603 151 CURVE SMOOTH",
"559 128 OFFCURVE",
"514 91 OFFCURVE",
"435 91 CURVE SMOOTH",
"384 91 OFFCURVE",
"335 110 OFFCURVE",
"358 280 CURVE SMOOTH",
"445 892 LINE",
"686 892 LINE",
"701 898 OFFCURVE",
"716 935 OFFCURVE",
"719 960 CURVE SMOOTH",
"722 976 OFFCURVE",
"716 993 OFFCURVE",
"700 994 CURVE",
"459 994 LINE",
"498 1267 LINE SMOOTH",
"499 1275 OFFCURVE",
"502 1291 OFFCURVE",
"485 1291 CURVE SMOOTH",
"462 1291 OFFCURVE",
"431 1295 OFFCURVE",
"421 1268 CURVE SMOOTH",
"339 1056 OFFCURVE",
"276 994 OFFCURVE",
"162 984 CURVE",
"147 978 OFFCURVE",
"135 966 OFFCURVE",
"132 941 CURVE SMOOTH",
"130 925 OFFCURVE",
"133 893 OFFCURVE",
"149 892 CURVE",
"254 892 LINE",
"157 223 LINE SMOOTH {name = hr00;}"
);
}
);
width = 711;
}
);
unicode = 0074;
},
{
glyphname = tbar;
layers = (
{
components = (
{
name = t;
}
);
layerId = "D92FDD0B-F694-41DD-AE46-0E4F694F0F38";
paths = (
{
closed = 1;
nodes = (
"100 666 LINE",
"86 660 OFFCURVE",
"74 648 OFFCURVE",
"70 623 CURVE",
"70 607 OFFCURVE",
"72 575 OFFCURVE",
"88 574 CURVE",
"251 574 LINE",
"659 574 LINE",
"674 580 OFFCURVE",
"688 617 OFFCURVE",
"691 642 CURVE",
"695 658 OFFCURVE",
"688 675 OFFCURVE",
"672 676 CURVE",
"263 676 LINE {name = hr00;}"
);
}
);
width = 711;
}
);
unicode = 0167;
},
{
glyphname = u;
layers = (
{
anchors = (
{
name = btm;
position = "{508, -170}";
},
{
name = top;
position = "{711, 1700}";
}
);
layerId = "D92FDD0B-F694-41DD-AE46-0E4F694F0F38";
paths = (
{
closed = 1;
nodes = (
"728 142 OFFCURVE",
"726 124 OFFCURVE",
"726 102 CURVE SMOOTH",
"726 57 OFFCURVE",
"732 -13 OFFCURVE",
"848 -13 CURVE SMOOTH",
"897 -13 OFFCURVE",
"992 8 OFFCURVE",
"1083 41 CURVE SMOOTH",
"1101 47 OFFCURVE",
"1108 67 OFFCURVE",
"1108 83 CURVE SMOOTH",
"1108 112 OFFCURVE",
"1095 113 OFFCURVE",
"1083 113 CURVE SMOOTH",
"1063 113 OFFCURVE",
"1011 96 OFFCURVE",
"983 96 CURVE SMOOTH",
"927 96 OFFCURVE",
"920 130 OFFCURVE",
"926 175 CURVE",
"1039 958 LINE SMOOTH",
"1042 979 OFFCURVE",
"1035 994 OFFCURVE",
"1007 994 CURVE SMOOTH",
"842 993 LINE",
"735 201 LINE",
"676 151 OFFCURVE",
"592 93 OFFCURVE",
"476 93 CURVE SMOOTH",
"358 93 OFFCURVE",
"351 168 OFFCURVE",
"362 243 CURVE SMOOTH",
"450 852 LINE",
"450 852 OFFCURVE",
"489 1008 OFFCURVE",
"318 1007 CURVE SMOOTH",
"269 1007 OFFCURVE",
"203 990 OFFCURVE",
"114 957 CURVE",
"92 950 OFFCURVE",
"82 927 OFFCURVE",
"85 912 CURVE SMOOTH",
"90 883 OFFCURVE",
"107 881 OFFCURVE",
"129 885 CURVE SMOOTH",
"148 888 OFFCURVE",
"173 894 OFFCURVE",
"195 894 CURVE SMOOTH",
"231 894 OFFCURVE",
"261 881 OFFCURVE",
"253 822 CURVE SMOOTH",
"170 262 LINE SMOOTH",
"135 14 OFFCURVE",
"271 -28 OFFCURVE",
"416 -28 CURVE SMOOTH",
"551 -28 OFFCURVE",
"705 76 OFFCURVE",
"747 141 CURVE",
"747 141 OFFCURVE",
"728 142 OFFCURVE",
"728 142 CURVE"
);
}
);
width = 1178;
}
);
unicode = 0075;
},
{
glyphname = uogonek;
layers = (
{
components = (
{
name = u;
}
);
layerId = "D92FDD0B-F694-41DD-AE46-0E4F694F0F38";
paths = (
{
closed = 1;
nodes = (
"556 -385 OFFCURVE",
"641 -448 OFFCURVE",
"806 -448 CURVE SMOOTH",
"857 -448 OFFCURVE",
"910 -438 OFFCURVE",
"967 -422 CURVE SMOOTH",
"982 -418 OFFCURVE",
"994 -408 OFFCURVE",
"997 -393 CURVE SMOOTH",
"1002 -367 OFFCURVE",
"998 -350 OFFCURVE",
"981 -349 CURVE SMOOTH",
"933 -346 OFFCURVE",
"734 -381 OFFCURVE",
"734 -238 CURVE SMOOTH",
"734 -176 OFFCURVE",
"761 -69 OFFCURVE",
"1027 31 CURVE",
"1027 31 OFFCURVE",
"856 15 OFFCURVE",
"856 15 CURVE",
"737 -1 OFFCURVE",
"556 -145 OFFCURVE",
"556 -278 CURVE SMOOTH {name = hr00;}"
);
}
);
width = 1178;
}
);
unicode = 0173;
},
{
glyphname = v;
layers = (
{
anchors = (
{
name = btm;
position = "{434, -170}";
},
{
name = top;
position = "{680, 1700}";
}
);
layerId = "D92FDD0B-F694-41DD-AE46-0E4F694F0F38";
paths = (
{
closed = 1;
nodes = (
"288 684 OFFCURVE",
"355 361 OFFCURVE",
"376 96 CURVE",
"380 37 OFFCURVE",
"375 12 OFFCURVE",
"375 12 CURVE",
"373 5 OFFCURVE",
"368 -30 OFFCURVE",
"430 -30 CURVE SMOOTH",
"487 -30 OFFCURVE",
"505 -29 OFFCURVE",
"510 -24 CURVE SMOOTH",
"852 333 OFFCURVE",
"1047 704 OFFCURVE",
"1047 863 CURVE SMOOTH",
"1047 938 OFFCURVE",
"1001 1014 OFFCURVE",
"915 1014 CURVE SMOOTH",
"861 1014 OFFCURVE",
"822 980 OFFCURVE",
"822 906 CURVE SMOOTH",
"822 864 OFFCURVE",
"849 818 OFFCURVE",
"849 750 CURVE SMOOTH",
"849 565 OFFCURVE",
"665 271 OFFCURVE",
"496 85 CURVE",
"503 110 OFFCURVE",
"536 173 OFFCURVE",
"535 197 CURVE SMOOTH",
"522 527 OFFCURVE",
"464 760 OFFCURVE",
"406 905 CURVE",
"374 979 OFFCURVE",
"329 1015 OFFCURVE",
"261 1015 CURVE SMOOTH",
"183 1015 OFFCURVE",
"90 956 OFFCURVE",
"25 851 CURVE SMOOTH",
"12 830 OFFCURVE",
"20 803 OFFCURVE",
"30 792 CURVE",
"52 772 OFFCURVE",
"63 781 OFFCURVE",
"77 801 CURVE",
"98 828 OFFCURVE",
"134 866 OFFCURVE",
"166 867 CURVE SMOOTH",
"181 867 OFFCURVE",
"194 860 OFFCURVE",
"206 840 CURVE {name = hr00;}"
);
}
);
width = 1102;
}
);
unicode = 0076;
userData = {
com.typemytype.robofont.mark = (
0.6,
0.609,
1,
1
);
};
},
{
glyphname = w;
layers = (
{
anchors = (
{
name = btm;
position = "{752, -170}";
},
{
name = top;
position = "{1046, 1700}";
}
);
layerId = "D92FDD0B-F694-41DD-AE46-0E4F694F0F38";
paths = (
{
closed = 1;
nodes = (
"941 709 OFFCURVE",
"950 362 OFFCURVE",
"963 96 CURVE",
"967 37 OFFCURVE",
"962 12 OFFCURVE",
"962 12 CURVE",
"960 5 OFFCURVE",
"955 -30 OFFCURVE",
"1017 -30 CURVE SMOOTH",
"1074 -30 OFFCURVE",
"1102 -29 OFFCURVE",
"1107 -24 CURVE SMOOTH",
"1449 333 OFFCURVE",
"1634 704 OFFCURVE",
"1634 863 CURVE SMOOTH",
"1634 938 OFFCURVE",
"1588 1014 OFFCURVE",
"1502 1014 CURVE SMOOTH",
"1448 1014 OFFCURVE",
"1409 980 OFFCURVE",
"1409 906 CURVE SMOOTH",
"1409 864 OFFCURVE",
"1436 818 OFFCURVE",
"1436 750 CURVE SMOOTH",
"1436 565 OFFCURVE",
"1252 271 OFFCURVE",
"1083 85 CURVE",
"1090 110 OFFCURVE",
"1122 173 OFFCURVE",
"1122 197 CURVE SMOOTH",
"1118 526 OFFCURVE",
"1096 763 OFFCURVE",
"1032 905 CURVE SMOOTH",
"994 989 OFFCURVE",
"949 1015 OFFCURVE",
"881 1015 CURVE SMOOTH",
"811 1015 OFFCURVE",
"728 957 OFFCURVE",
"673 866 CURVE SMOOTH",
"661 846 OFFCURVE",
"670 820 OFFCURVE",
"682 810 CURVE SMOOTH",
"699 798 OFFCURVE",
"716 808 OFFCURVE",
"733 825 CURVE SMOOTH",
"746 839 OFFCURVE",
"786 876 OFFCURVE",
"812 875 CURVE SMOOTH",
"823 875 OFFCURVE",
"834 872 OFFCURVE",
"840 862 CURVE SMOOTH {name = hr00;}"
);
},
{
closed = 1;
nodes = (
"298 684 OFFCURVE",
"365 361 OFFCURVE",
"386 96 CURVE",
"390 37 OFFCURVE",
"385 12 OFFCURVE",
"385 12 CURVE",
"383 5 OFFCURVE",
"378 -30 OFFCURVE",
"440 -30 CURVE SMOOTH",
"497 -30 OFFCURVE",
"525 -29 OFFCURVE",
"530 -24 CURVE SMOOTH",
"773 214 OFFCURVE",
"952 463 OFFCURVE",
"1035 674 CURVE",
"964 949 LINE",
"910 949 OFFCURVE",
"875 980 OFFCURVE",
"875 906 CURVE SMOOTH",
"875 864 OFFCURVE",
"902 818 OFFCURVE",
"902 750 CURVE SMOOTH",
"902 565 OFFCURVE",
"690 271 OFFCURVE",
"506 85 CURVE",
"513 110 OFFCURVE",
"545 173 OFFCURVE",
"545 197 CURVE SMOOTH",
"541 526 OFFCURVE",
"478 758 OFFCURVE",
"416 905 CURVE",
"371 996 OFFCURVE",
"339 1015 OFFCURVE",
"271 1015 CURVE SMOOTH",
"197 1015 OFFCURVE",
"100 959 OFFCURVE",
"35 851 CURVE SMOOTH",
"23 830 OFFCURVE",
"30 803 OFFCURVE",
"40 792 CURVE",
"62 772 OFFCURVE",
"73 781 OFFCURVE",
"87 801 CURVE",
"108 828 OFFCURVE",
"144 867 OFFCURVE",
"177 867 CURVE SMOOTH",
"191 867 OFFCURVE",
"205 859 OFFCURVE",
"216 840 CURVE"
);
}
);
width = 1684;
}
);
unicode = 0077;
userData = {
com.typemytype.robofont.mark = (
0.6,
0.609,
1,
1
);
};
},
{
glyphname = x;
layers = (
{
anchors = (
{
name = btm;
position = "{520, -170}";
},
{
name = top;
position = "{520, 1700}";
}
);
layerId = "D92FDD0B-F694-41DD-AE46-0E4F694F0F38";
paths = (
{
closed = 1;
nodes = (
"859 850 LINE",
"914 745 LINE SMOOTH",
"923 728 OFFCURVE",
"937 720 OFFCURVE",
"952 720 CURVE SMOOTH",
"984 720 OFFCURVE",
"1021 759 OFFCURVE",
"1021 837 CURVE SMOOTH",
"1021 916 OFFCURVE",
"985 1004 OFFCURVE",
"899 1004 CURVE SMOOTH",
"850 1004 OFFCURVE",
"793 972 OFFCURVE",
"739 891 CURVE",
"515 536 LINE",
"553 470 LINE {name = hr00;}"
);
},
{
closed = 1;
nodes = (
"462 963 OFFCURVE",
"412 1004 OFFCURVE",
"342 1004 CURVE SMOOTH",
"240 1004 OFFCURVE",
"146 934 OFFCURVE",
"89 823 CURVE SMOOTH",
"79 803 OFFCURVE",
"69 781 OFFCURVE",
"81 770 CURVE SMOOTH",
"103 748 OFFCURVE",
"121 750 OFFCURVE",
"134 769 CURVE SMOOTH",
"146 785 OFFCURVE",
"162 800 OFFCURVE",
"176 815 CURVE SMOOTH",
"219 860 OFFCURVE",
"278 879 OFFCURVE",
"298 829 CURVE SMOOTH",
"452 442 LINE",
"547 112 LINE SMOOTH",
"575 14 OFFCURVE",
"620 -28 OFFCURVE",
"690 -28 CURVE SMOOTH",
"792 -28 OFFCURVE",
"882 41 OFFCURVE",
"940 166 CURVE SMOOTH",
"949 187 OFFCURVE",
"942 206 OFFCURVE",
"930 216 CURVE SMOOTH",
"918 227 OFFCURVE",
"898 230 OFFCURVE",
"886 211 CURVE SMOOTH",
"875 193 OFFCURVE",
"866 183 OFFCURVE",
"852 166 CURVE SMOOTH",
"807 113 OFFCURVE",
"754 103 OFFCURVE",
"738 142 CURVE SMOOTH",
"583 525 LINE",
"491 864 LINE"
);
},
{
closed = 1;
nodes = (
"149 129 LINE",
"97 229 LINE SMOOTH",
"89 244 OFFCURVE",
"77 251 OFFCURVE",
"64 251 CURVE SMOOTH",
"30 250 OFFCURVE",
"-12 203 OFFCURVE",
"-12 119 CURVE SMOOTH",
"-12 40 OFFCURVE",
"52 -25 OFFCURVE",
"112 -25 CURVE SMOOTH",
"161 -25 OFFCURVE",
"217 2 OFFCURVE",
"270 84 CURVE SMOOTH",
"499 441 LINE",
"461 507 LINE"
);
}
);
width = 1026;
}
);
unicode = 0078;
userData = {
com.typemytype.robofont.guides = (
{
angle = 0;
isGlobal = 0;
magnetic = 5;
x = 0;
y = -67;
}
);
};
},
{
glyphname = y;
layers = (
{
anchors = (
{
name = btm;
position = "{523, -170}";
},
{
name = top;
position = "{727, 1700}";
}
);
layerId = "D92FDD0B-F694-41DD-AE46-0E4F694F0F38";
paths = (
{
closed = 1;
nodes = (
"284 -295 OFFCURVE",
"158 -278 OFFCURVE",
"126 -278 CURVE SMOOTH",
"50 -278 OFFCURVE",
"-24 -303 OFFCURVE",
"-24 -373 CURVE SMOOTH",
"-24 -403 OFFCURVE",
"1 -449 OFFCURVE",
"102 -449 CURVE SMOOTH",
"324 -449 OFFCURVE",
"486 -251 OFFCURVE",
"591 -105 CURVE SMOOTH",
"890 281 OFFCURVE",
"1096 627 OFFCURVE",
"1096 863 CURVE SMOOTH",
"1096 940 OFFCURVE",
"1065 1014 OFFCURVE",
"976 1014 CURVE SMOOTH",
"925 1014 OFFCURVE",
"880 985 OFFCURVE",
"880 904 CURVE SMOOTH",
"880 845 OFFCURVE",
"892 814 OFFCURVE",
"892 750 CURVE SMOOTH",
"892 545 OFFCURVE",
"741 241 OFFCURVE",
"598 55 CURVE",
"598 70 OFFCURVE",
"598 91 OFFCURVE",
"597 115 CURVE SMOOTH",
"591 365 OFFCURVE",
"531 730 OFFCURVE",
"454 905 CURVE SMOOTH",
"415 994 OFFCURVE",
"370 1015 OFFCURVE",
"305 1015 CURVE SMOOTH",
"241 1015 OFFCURVE",
"137 962 OFFCURVE",
"73 851 CURVE SMOOTH",
"59 826 OFFCURVE",
"67 803 OFFCURVE",
"78 792 CURVE SMOOTH",
"99 771 OFFCURVE",
"111 781 OFFCURVE",
"125 801 CURVE SMOOTH",
"143 825 OFFCURVE",
"184 868 OFFCURVE",
"218 867 CURVE SMOOTH",
"232 867 OFFCURVE",
"244 859 OFFCURVE",
"254 840 CURVE SMOOTH",
"303 748 OFFCURVE",
"418 389 OFFCURVE",
"427 96 CURVE",
"427 68 OFFCURVE",
"427 33 OFFCURVE",
"427 33 CURVE",
"425 -11 OFFCURVE",
"473 -9 OFFCURVE",
"563 -9 CURVE",
"569 12 LINE",
"484 -98 OFFCURVE",
"460 -140 OFFCURVE",
"351 -236 CURVE SMOOTH {name = hr00;}"
);
}
);
width = 1146;
}
);
unicode = 0079;
userData = {
com.typemytype.robofont.mark = (
0.6,
0.609,
1,
1
);
};
},
{
glyphname = z;
layers = (
{
anchors = (
{
name = btm;
position = "{455, -170}";
},
{
name = top;
position = "{601, 1700}";
}
);
layerId = "D92FDD0B-F694-41DD-AE46-0E4F694F0F38";
paths = (
{
closed = 1;
nodes = (
"41 15 OFFCURVE",
"56 0 OFFCURVE",
"75 0 CURVE SMOOTH",
"746 0 LINE",
"766 1 OFFCURVE",
"795 15 OFFCURVE",
"798 41 CURVE",
"857 293 LINE",
"860 316 OFFCURVE",
"817 327 OFFCURVE",
"802 327 CURVE SMOOTH",
"781 327 OFFCURVE",
"767 320 OFFCURVE",
"760 294 CURVE SMOOTH",
"748 245 OFFCURVE",
"650 83 OFFCURVE",
"549 83 CURVE SMOOTH",
"283 83 LINE",
"395 219 LINE",
"843 881 LINE SMOOTH",
"876 926 OFFCURVE",
"874 946 OFFCURVE",
"874 960 CURVE SMOOTH",
"874 979 OFFCURVE",
"860 994 OFFCURVE",
"824 994 CURVE SMOOTH",
"210 994 LINE",
"190 993 OFFCURVE",
"161 977 OFFCURVE",
"157 953 CURVE SMOOTH",
"112 726 LINE SMOOTH",
"108 703 OFFCURVE",
"143 692 OFFCURVE",
"158 692 CURVE SMOOTH",
"179 692 OFFCURVE",
"203 699 OFFCURVE",
"209 725 CURVE SMOOTH",
"221 774 OFFCURVE",
"298 911 OFFCURVE",
"386 911 CURVE SMOOTH",
"655 911 LINE",
"560 796 LINE",
"100 123 LINE SMOOTH",
"60 66 OFFCURVE",
"48 63 OFFCURVE",
"44 34 CURVE SMOOTH {name = hr00;}"
);
}
);
width = 909;
}
);
unicode = 007A;
},
{
glyphname = f_f;
layers = (
{
layerId = "D92FDD0B-F694-41DD-AE46-0E4F694F0F38";
paths = (
{
closed = 1;
nodes = (
"130 -272 OFFCURVE",
"63 -340 OFFCURVE",
"-11 -344 CURVE",
"-81 -208 LINE",
"-84 -206 OFFCURVE",
"-91 -206 OFFCURVE",
"-96 -206 CURVE SMOOTH",
"-131 -205 OFFCURVE",
"-208 -238 OFFCURVE",
"-209 -317 CURVE SMOOTH",
"-210 -385 OFFCURVE",
"-178 -442 OFFCURVE",
"-50 -442 CURVE SMOOTH",
"190 -442 OFFCURVE",
"334 -198 OFFCURVE",
"371 56 CURVE SMOOTH",
"483 892 LINE",
"678 892 LINE",
"693 898 OFFCURVE",
"707 935 OFFCURVE",
"710 960 CURVE SMOOTH",
"714 976 OFFCURVE",
"707 993 OFFCURVE",
"691 994 CURVE",
"496 994 LINE",
"511 1107 LINE SMOOTH",
"550 1421 OFFCURVE",
"638 1475 OFFCURVE",
"701 1475 CURVE",
"799 1310 LINE SMOOTH",
"799 1308 OFFCURVE",
"799 1307 OFFCURVE",
"809 1307 CURVE SMOOTH",
"844 1306 OFFCURVE",
"933 1350 OFFCURVE",
"933 1429 CURVE SMOOTH",
"935 1507 OFFCURVE",
"898 1573 OFFCURVE",
"770 1573 CURVE SMOOTH",
"512 1573 OFFCURVE",
"347 1330 OFFCURVE",
"315 1075 CURVE SMOOTH",
"303 994 LINE",
"302 994 LINE",
"139 984 LINE",
"125 978 OFFCURVE",
"113 966 OFFCURVE",
"109 941 CURVE SMOOTH",
"109 925 OFFCURVE",
"111 893 OFFCURVE",
"127 892 CURVE",
"290 892 LINE",
"174 20 LINE SMOOTH {name = hr00;}"
);
},
{
closed = 1;
nodes = (
"804 -272 OFFCURVE",
"737 -340 OFFCURVE",
"663 -344 CURVE",
"593 -208 LINE",
"590 -206 OFFCURVE",
"583 -206 OFFCURVE",
"578 -206 CURVE SMOOTH",
"543 -205 OFFCURVE",
"466 -238 OFFCURVE",
"465 -317 CURVE SMOOTH",
"464 -385 OFFCURVE",
"496 -442 OFFCURVE",
"624 -442 CURVE SMOOTH",
"864 -442 OFFCURVE",
"1008 -198 OFFCURVE",
"1045 56 CURVE SMOOTH",
"1157 892 LINE",
"1352 892 LINE",
"1367 898 OFFCURVE",
"1381 935 OFFCURVE",
"1384 960 CURVE SMOOTH",
"1388 976 OFFCURVE",
"1381 993 OFFCURVE",
"1365 994 CURVE",
"1170 994 LINE",
"1185 1107 LINE SMOOTH",
"1224 1421 OFFCURVE",
"1312 1475 OFFCURVE",
"1375 1475 CURVE",
"1473 1310 LINE SMOOTH",
"1473 1308 OFFCURVE",
"1473 1307 OFFCURVE",
"1483 1307 CURVE SMOOTH",
"1518 1306 OFFCURVE",
"1607 1350 OFFCURVE",
"1607 1429 CURVE SMOOTH",
"1609 1507 OFFCURVE",
"1572 1573 OFFCURVE",
"1444 1573 CURVE SMOOTH",
"1186 1573 OFFCURVE",
"1021 1330 OFFCURVE",
"989 1075 CURVE SMOOTH",
"977 994 LINE",
"976 994 LINE",
"813 984 LINE",
"799 978 OFFCURVE",
"787 966 OFFCURVE",
"783 941 CURVE SMOOTH",
"783 925 OFFCURVE",
"785 893 OFFCURVE",
"801 892 CURVE",
"964 892 LINE",
"848 20 LINE SMOOTH"
);
}
);
width = 1348;
}
);
unicode = FB00;
},
{
glyphname = f_f_i;
layers = (
{
layerId = "D92FDD0B-F694-41DD-AE46-0E4F694F0F38";
paths = (
{
closed = 1;
nodes = (
"130 -272 OFFCURVE",
"63 -340 OFFCURVE",
"-11 -344 CURVE",
"-81 -208 LINE",
"-84 -206 OFFCURVE",
"-91 -206 OFFCURVE",
"-96 -206 CURVE SMOOTH",
"-131 -205 OFFCURVE",
"-208 -238 OFFCURVE",
"-209 -317 CURVE SMOOTH",
"-210 -385 OFFCURVE",
"-178 -442 OFFCURVE",
"-50 -442 CURVE SMOOTH",
"190 -442 OFFCURVE",
"334 -198 OFFCURVE",
"371 56 CURVE SMOOTH",
"483 892 LINE",
"678 892 LINE",
"693 898 OFFCURVE",
"707 935 OFFCURVE",
"710 960 CURVE SMOOTH",
"714 976 OFFCURVE",
"707 993 OFFCURVE",
"691 994 CURVE",
"496 994 LINE",
"511 1107 LINE SMOOTH",
"550 1421 OFFCURVE",
"638 1475 OFFCURVE",
"701 1475 CURVE",
"799 1310 LINE SMOOTH",
"799 1308 OFFCURVE",
"799 1307 OFFCURVE",
"809 1307 CURVE SMOOTH",
"844 1306 OFFCURVE",
"933 1350 OFFCURVE",
"933 1429 CURVE SMOOTH",
"935 1507 OFFCURVE",
"898 1573 OFFCURVE",
"770 1573 CURVE SMOOTH",
"512 1573 OFFCURVE",
"347 1330 OFFCURVE",
"315 1075 CURVE SMOOTH",
"303 994 LINE",
"302 994 LINE",
"139 984 LINE",
"125 978 OFFCURVE",
"113 966 OFFCURVE",
"109 941 CURVE SMOOTH",
"109 925 OFFCURVE",
"111 893 OFFCURVE",
"127 892 CURVE",
"290 892 LINE",
"174 20 LINE SMOOTH {name = hr00;}"
);
},
{
closed = 1;
nodes = (
"1453 892 LINE",
"1503 890 OFFCURVE",
"1557 874 OFFCURVE",
"1539 778 CURVE",
"1441 142 OFFCURVE",
"1437 118 OFFCURVE",
"1437 85 CURVE SMOOTH",
"1437 47 OFFCURVE",
"1453 -13 OFFCURVE",
"1551 -13 CURVE SMOOTH",
"1604 -13 OFFCURVE",
"1679 0 OFFCURVE",
"1777 34 CURVE SMOOTH",
"1799 41 OFFCURVE",
"1804 70 OFFCURVE",
"1801 85 CURVE SMOOTH",
"1796 114 OFFCURVE",
"1785 116 OFFCURVE",
"1763 112 CURVE SMOOTH",
"1744 108 OFFCURVE",
"1719 103 OFFCURVE",
"1696 103 CURVE SMOOTH",
"1661 103 OFFCURVE",
"1631 117 OFFCURVE",
"1639 175 CURVE",
"1638 175 LINE",
"1760 957 LINE",
"1763 989 OFFCURVE",
"1748 997 OFFCURVE",
"1737 997 CURVE SMOOTH",
"1715 997 OFFCURVE",
"1620 994 OFFCURVE",
"1553 994 CURVE SMOOTH",
"1172 994 LINE",
"1182 1053 LINE SMOOTH",
"1234 1363 OFFCURVE",
"1406 1486 OFFCURVE",
"1547 1486 CURVE SMOOTH",
"1566 1486 OFFCURVE",
"1584 1484 OFFCURVE",
"1601 1480 CURVE",
"1698 1287 LINE",
"1697 1284 OFFCURVE",
"1709 1283 OFFCURVE",
"1709 1283 CURVE",
"1747 1282 OFFCURVE",
"1812 1304 OFFCURVE",
"1826 1401 CURVE",
"1844 1487 OFFCURVE",
"1754 1573 OFFCURVE",
"1574 1573 CURVE SMOOTH",
"1270 1573 OFFCURVE",
"1051 1377 OFFCURVE",
"989 1043 CURVE",
"979 994 LINE",
"978 994 LINE",
"819 984 LINE",
"804 978 OFFCURVE",
"791 966 OFFCURVE",
"786 941 CURVE SMOOTH",
"783 925 OFFCURVE",
"785 893 OFFCURVE",
"801 892 CURVE",
"965 892 LINE",
"834 20 LINE SMOOTH",
"790 -272 OFFCURVE",
"723 -340 OFFCURVE",
"649 -344 CURVE",
"573 -193 LINE",
"570 -191 OFFCURVE",
"566 -190 OFFCURVE",
"561 -190 CURVE SMOOTH",
"526 -189 OFFCURVE",
"446 -223 OFFCURVE",
"445 -302 CURVE SMOOTH",
"444 -370 OFFCURVE",
"482 -442 OFFCURVE",
"610 -442 CURVE SMOOTH",
"850 -442 OFFCURVE",
"992 -198 OFFCURVE",
"1031 56 CURVE SMOOTH",
"1158 892 LINE"
);
}
);
width = 1956;
}
);
unicode = FB03;
},
{
glyphname = f_f_l;
layers = (
{
layerId = "D92FDD0B-F694-41DD-AE46-0E4F694F0F38";
paths = (
{
closed = 1;
nodes = (
"130 -272 OFFCURVE",
"63 -340 OFFCURVE",
"-11 -344 CURVE",
"-81 -208 LINE",
"-84 -206 OFFCURVE",
"-91 -206 OFFCURVE",
"-96 -206 CURVE SMOOTH",
"-131 -205 OFFCURVE",
"-208 -238 OFFCURVE",
"-209 -317 CURVE SMOOTH",
"-210 -385 OFFCURVE",
"-178 -442 OFFCURVE",
"-50 -442 CURVE SMOOTH",
"190 -442 OFFCURVE",
"334 -198 OFFCURVE",
"371 56 CURVE SMOOTH",
"483 892 LINE",
"678 892 LINE",
"693 898 OFFCURVE",
"707 935 OFFCURVE",
"710 960 CURVE SMOOTH",
"714 976 OFFCURVE",
"707 993 OFFCURVE",
"691 994 CURVE",
"496 994 LINE",
"511 1107 LINE SMOOTH",
"550 1421 OFFCURVE",
"638 1475 OFFCURVE",
"701 1475 CURVE",
"799 1310 LINE SMOOTH",
"799 1308 OFFCURVE",
"799 1307 OFFCURVE",
"809 1307 CURVE SMOOTH",
"844 1306 OFFCURVE",
"933 1350 OFFCURVE",
"933 1429 CURVE SMOOTH",
"935 1507 OFFCURVE",
"898 1573 OFFCURVE",
"770 1573 CURVE SMOOTH",
"512 1573 OFFCURVE",
"347 1330 OFFCURVE",
"315 1075 CURVE SMOOTH",
"303 994 LINE",
"302 994 LINE",
"139 984 LINE",
"125 978 OFFCURVE",
"113 966 OFFCURVE",
"109 941 CURVE SMOOTH",
"109 925 OFFCURVE",
"111 893 OFFCURVE",
"127 892 CURVE",
"290 892 LINE",
"174 20 LINE SMOOTH {name = hr01;}"
);
},
{
closed = 1;
nodes = (
"804 -272 OFFCURVE",
"737 -340 OFFCURVE",
"663 -344 CURVE",
"593 -208 LINE",
"590 -206 OFFCURVE",
"583 -206 OFFCURVE",
"578 -206 CURVE SMOOTH",
"543 -205 OFFCURVE",
"466 -238 OFFCURVE",
"465 -317 CURVE SMOOTH",
"464 -385 OFFCURVE",
"496 -442 OFFCURVE",
"624 -442 CURVE SMOOTH",
"864 -442 OFFCURVE",
"1008 -198 OFFCURVE",
"1045 56 CURVE SMOOTH",
"1157 892 LINE",
"1352 892 LINE",
"1367 898 OFFCURVE",
"1381 935 OFFCURVE",
"1384 960 CURVE SMOOTH",
"1388 976 OFFCURVE",
"1381 993 OFFCURVE",
"1365 994 CURVE",
"1170 994 LINE",
"1185 1107 LINE SMOOTH",
"1224 1421 OFFCURVE",
"1312 1475 OFFCURVE",
"1375 1475 CURVE",
"1473 1310 LINE SMOOTH",
"1473 1308 OFFCURVE",
"1473 1307 OFFCURVE",
"1483 1307 CURVE SMOOTH",
"1518 1306 OFFCURVE",
"1607 1350 OFFCURVE",
"1607 1429 CURVE SMOOTH",
"1609 1507 OFFCURVE",
"1572 1573 OFFCURVE",
"1444 1573 CURVE SMOOTH",
"1186 1573 OFFCURVE",
"1021 1330 OFFCURVE",
"989 1075 CURVE SMOOTH",
"977 994 LINE",
"976 994 LINE",
"813 984 LINE",
"799 978 OFFCURVE",
"787 966 OFFCURVE",
"783 941 CURVE SMOOTH",
"783 925 OFFCURVE",
"785 893 OFFCURVE",
"801 892 CURVE",
"964 892 LINE",
"848 20 LINE SMOOTH"
);
},
{
closed = 1;
nodes = (
"1470 142 OFFCURVE",
"1468 124 OFFCURVE",
"1468 102 CURVE SMOOTH",
"1468 57 OFFCURVE",
"1474 -13 OFFCURVE",
"1590 -13 CURVE SMOOTH",
"1639 -13 OFFCURVE",
"1734 8 OFFCURVE",
"1825 41 CURVE SMOOTH",
"1843 47 OFFCURVE",
"1850 67 OFFCURVE",
"1850 83 CURVE SMOOTH {name = hr03;}",
"1850 112 OFFCURVE",
"1837 113 OFFCURVE",
"1825 113 CURVE SMOOTH",
"1805 113 OFFCURVE",
"1753 96 OFFCURVE",
"1725 96 CURVE SMOOTH",
"1669 96 OFFCURVE",
"1662 128 OFFCURVE",
"1668 168 CURVE SMOOTH",
"1868 1508 LINE SMOOTH",
"1868 1512 OFFCURVE",
"1869 1515 OFFCURVE",
"1869 1518 CURVE SMOOTH",
"1869 1542 OFFCURVE",
"1854 1548 OFFCURVE",
"1844 1548 CURVE SMOOTH",
"1787 1547 OFFCURVE",
"1657 1546 OFFCURVE",
"1523 1538 CURVE SMOOTH {name = hr04;}",
"1502 1537 OFFCURVE",
"1491 1497 OFFCURVE",
"1491 1485 CURVE SMOOTH",
"1491 1414 OFFCURVE",
"1672 1463 OFFCURVE",
"1654 1354 CURVE SMOOTH",
"1470 142 LINE {name = hr02;}"
);
}
);
width = 1932;
}
);
unicode = FB04;
},
{
glyphname = fi;
lastChange = "2018-05-14 03:39:51 +0000";
layers = (
{
layerId = "D92FDD0B-F694-41DD-AE46-0E4F694F0F38";
paths = (
{
closed = 1;
nodes = (
"782 892 LINE",
"832 890 OFFCURVE",
"886 874 OFFCURVE",
"868 778 CURVE",
"770 142 OFFCURVE",
"766 118 OFFCURVE",
"766 85 CURVE SMOOTH",
"766 47 OFFCURVE",
"782 -13 OFFCURVE",
"880 -13 CURVE SMOOTH",
"933 -13 OFFCURVE",
"1008 0 OFFCURVE",
"1106 34 CURVE SMOOTH",
"1128 41 OFFCURVE",
"1133 70 OFFCURVE",
"1130 85 CURVE SMOOTH",
"1125 114 OFFCURVE",
"1114 116 OFFCURVE",
"1092 112 CURVE SMOOTH",
"1073 108 OFFCURVE",
"1048 103 OFFCURVE",
"1025 103 CURVE SMOOTH",
"990 103 OFFCURVE",
"960 117 OFFCURVE",
"968 175 CURVE",
"967 175 LINE",
"1089 957 LINE {name = hr02;}",
"1092 989 OFFCURVE",
"1077 997 OFFCURVE",
"1066 997 CURVE SMOOTH",
"1044 997 OFFCURVE",
"949 994 OFFCURVE",
"882 994 CURVE SMOOTH {name = hr03;}",
"501 994 LINE",
"511 1053 LINE SMOOTH",
"563 1363 OFFCURVE",
"735 1486 OFFCURVE",
"876 1486 CURVE SMOOTH",
"895 1486 OFFCURVE",
"913 1484 OFFCURVE",
"930 1480 CURVE",
"1027 1287 LINE",
"1026 1284 OFFCURVE",
"1038 1283 OFFCURVE",
"1038 1283 CURVE",
"1076 1282 OFFCURVE",
"1141 1304 OFFCURVE",
"1155 1401 CURVE",
"1173 1487 OFFCURVE",
"1083 1573 OFFCURVE",
"903 1573 CURVE SMOOTH",
"599 1573 OFFCURVE",
"380 1377 OFFCURVE",
"318 1043 CURVE",
"308 994 LINE",
"307 994 LINE",
"148 984 LINE",
"133 978 OFFCURVE",
"120 966 OFFCURVE",
"115 941 CURVE SMOOTH",
"112 925 OFFCURVE",
"114 893 OFFCURVE",
"130 892 CURVE",
"294 892 LINE",
"163 20 LINE SMOOTH",
"119 -272 OFFCURVE",
"52 -340 OFFCURVE",
"-22 -344 CURVE",
"-98 -193 LINE",
"-101 -191 OFFCURVE",
"-105 -190 OFFCURVE",
"-110 -190 CURVE SMOOTH",
"-145 -189 OFFCURVE",
"-225 -223 OFFCURVE",
"-226 -302 CURVE SMOOTH",
"-227 -370 OFFCURVE",
"-189 -442 OFFCURVE",
"-61 -442 CURVE SMOOTH",
"179 -442 OFFCURVE",
"321 -198 OFFCURVE",
"360 56 CURVE SMOOTH",
"487 892 LINE {name = hr01;}"
);
}
);
width = 1195;
}
);
unicode = FB01;
},
{
glyphname = fi_trk;
lastChange = "2018-05-14 02:31:24 +0000";
layers = (
{
components = (
{
name = dotaccent;
transform = "{1, 0, 0, 1, 497, -2}";
},
{
name = idotless;
transform = "{1, 0, 0, 1, 620, 0}";
}
);
layerId = "D92FDD0B-F694-41DD-AE46-0E4F694F0F38";
paths = (
{
closed = 1;
nodes = (
"95 -272 OFFCURVE",
"28 -340 OFFCURVE",
"-46 -344 CURVE",
"-122 -193 LINE",
"-125 -191 OFFCURVE",
"-129 -190 OFFCURVE",
"-134 -190 CURVE SMOOTH",
"-169 -189 OFFCURVE",
"-249 -223 OFFCURVE",
"-250 -302 CURVE SMOOTH",
"-251 -370 OFFCURVE",
"-213 -442 OFFCURVE",
"-85 -442 CURVE SMOOTH",
"155 -442 OFFCURVE",
"299 -198 OFFCURVE",
"336 56 CURVE",
"461 892 LINE",
"626 892 LINE",
"641 898 OFFCURVE",
"655 935 OFFCURVE",
"658 960 CURVE",
"662 976 OFFCURVE",
"655 993 OFFCURVE",
"639 994 CURVE",
"474 994 LINE",
"489 1107 LINE",
"514 1421 OFFCURVE",
"567 1475 OFFCURVE",
"609 1475 CURVE",
"699 1312 LINE",
"701 1310 OFFCURVE",
"704 1309 OFFCURVE",
"709 1309 CURVE SMOOTH",
"744 1308 OFFCURVE",
"833 1352 OFFCURVE",
"833 1431 CURVE",
"835 1499 OFFCURVE",
"796 1573 OFFCURVE",
"668 1573 CURVE SMOOTH",
"458 1573 OFFCURVE",
"317 1330 OFFCURVE",
"293 1075 CURVE",
"281 994 LINE",
"280 994 LINE",
"117 984 LINE",
"103 978 OFFCURVE",
"91 966 OFFCURVE",
"87 941 CURVE",
"87 925 OFFCURVE",
"89 893 OFFCURVE",
"105 892 CURVE",
"268 892 LINE",
"139 20 LINE {name = hr00;}"
);
}
);
width = 1194;
}
);
},
{
glyphname = fl;
lastChange = "2018-05-14 03:39:54 +0000";
layers = (
{
layerId = "D92FDD0B-F694-41DD-AE46-0E4F694F0F38";
paths = (
{
closed = 1;
nodes = (
"360 56 LINE SMOOTH",
"321 -198 OFFCURVE",
"179 -442 OFFCURVE",
"-61 -442 CURVE SMOOTH",
"-189 -442 OFFCURVE",
"-227 -370 OFFCURVE",
"-226 -302 CURVE SMOOTH",
"-225 -223 OFFCURVE",
"-145 -189 OFFCURVE",
"-110 -190 CURVE SMOOTH",
"-105 -190 OFFCURVE",
"-101 -191 OFFCURVE",
"-98 -193 CURVE",
"-22 -344 LINE",
"52 -340 OFFCURVE",
"119 -272 OFFCURVE",
"163 20 CURVE SMOOTH",
"294 892 LINE",
"130 892 LINE",
"114 893 OFFCURVE",
"112 925 OFFCURVE",
"115 941 CURVE SMOOTH",
"120 966 OFFCURVE",
"133 978 OFFCURVE",
"148 984 CURVE",
"307 994 LINE",
"308 994 LINE",
"318 1043 LINE",
"380 1377 OFFCURVE",
"599 1573 OFFCURVE",
"903 1573 CURVE SMOOTH",
"1028 1573 OFFCURVE",
"1121 1544 OFFCURVE",
"1148 1502 CURVE",
"1166 1502 OFFCURVE",
"1201 1538 OFFCURVE",
"1222 1538 CURVE SMOOTH",
"1233 1538 OFFCURVE",
"1253 1539 OFFCURVE",
"1249 1507 CURVE",
"991 175 LINE",
"983 117 OFFCURVE",
"1013 103 OFFCURVE",
"1048 103 CURVE SMOOTH",
"1071 103 OFFCURVE",
"1096 108 OFFCURVE",
"1115 112 CURVE SMOOTH",
"1137 116 OFFCURVE",
"1148 114 OFFCURVE",
"1153 85 CURVE SMOOTH",
"1156 70 OFFCURVE",
"1151 41 OFFCURVE",
"1129 34 CURVE SMOOTH",
"1031 0 OFFCURVE",
"956 -13 OFFCURVE",
"903 -13 CURVE SMOOTH",
"805 -13 OFFCURVE",
"789 47 OFFCURVE",
"789 85 CURVE SMOOTH",
"789 100 OFFCURVE",
"789 122 OFFCURVE",
"793 142 CURVE SMOOTH",
"1030 1334 LINE SMOOTH",
"1042 1394 OFFCURVE",
"1038 1486 OFFCURVE",
"876 1486 CURVE SMOOTH",
"705 1486 OFFCURVE",
"563 1363 OFFCURVE",
"511 1053 CURVE SMOOTH",
"501 994 LINE",
"721 994 LINE",
"737 993 OFFCURVE",
"744 976 OFFCURVE",
"740 960 CURVE",
"737 935 OFFCURVE",
"723 898 OFFCURVE",
"708 892 CURVE",
"487 892 LINE {name = hr00;}"
);
}
);
width = 1234;
}
);
unicode = FB02;
},
{
glyphname = ordfeminine;
layers = (
{
layerId = "D92FDD0B-F694-41DD-AE46-0E4F694F0F38";
paths = (
{
closed = 1;
nodes = (
"351 1470 OFFCURVE",
"141 1168 OFFCURVE",
"129 876 CURVE SMOOTH",
"122 710 OFFCURVE",
"208 614 OFFCURVE",
"364 614 CURVE SMOOTH",
"511 614 OFFCURVE",
"635 743 OFFCURVE",
"689 833 CURVE",
"688 822 OFFCURVE",
"673 731 OFFCURVE",
"673 724 CURVE SMOOTH",
"673 672 OFFCURVE",
"698 616 OFFCURVE",
"773 616 CURVE SMOOTH {name = hr02;}",
"862 616 OFFCURVE",
"965 668 OFFCURVE",
"978 679 CURVE SMOOTH",
"982 682 OFFCURVE",
"984 690 OFFCURVE",
"984 697 CURVE SMOOTH",
"984 717 OFFCURVE",
"977 739 OFFCURVE",
"963 739 CURVE SMOOTH",
"962 739 OFFCURVE",
"959 739 OFFCURVE",
"958 738 CURVE SMOOTH",
"936 732 OFFCURVE",
"881 719 OFFCURVE",
"865 719 CURVE SMOOTH",
"851 719 OFFCURVE",
"841 731 OFFCURVE",
"841 763 CURVE SMOOTH",
"841 771 OFFCURVE",
"842 783 OFFCURVE",
"845 797 CURVE SMOOTH",
"975 1426 LINE",
"975 1426 OFFCURVE",
"976 1431 OFFCURVE",
"976 1433 CURVE SMOOTH",
"976 1447 OFFCURVE",
"967 1463 OFFCURVE",
"948 1456 CURVE",
"870 1409 LINE",
"832 1447 OFFCURVE",
"770 1470 OFFCURVE",
"703 1470 CURVE SMOOTH {name = hr01;}"
);
},
{
closed = 1;
nodes = (
"300 1139 OFFCURVE",
"457 1376 OFFCURVE",
"686 1376 CURVE SMOOTH",
"723 1376 OFFCURVE",
"766 1358 OFFCURVE",
"785 1313 CURVE",
"711 993 LINE",
"650 889 OFFCURVE",
"544 733 OFFCURVE",
"402 733 CURVE SMOOTH",
"343 733 OFFCURVE",
"300 778 OFFCURVE",
"300 887 CURVE SMOOTH"
);
}
);
width = 1024;
}
);
unicode = 00AA;
},
{
glyphname = ordmasculine;
layers = (
{
layerId = "D92FDD0B-F694-41DD-AE46-0E4F694F0F38";
paths = (
{
closed = 1;
nodes = (
"773 612 OFFCURVE",
"955 856 OFFCURVE",
"955 1112 CURVE SMOOTH",
"955 1314 OFFCURVE",
"837 1470 OFFCURVE",
"612 1470 CURVE SMOOTH",
"336 1470 OFFCURVE",
"148 1239 OFFCURVE",
"148 981 CURVE SMOOTH",
"148 777 OFFCURVE",
"270 612 OFFCURVE",
"496 612 CURVE SMOOTH {name = hr00;}"
);
},
{
closed = 1;
nodes = (
"390 698 OFFCURVE",
"336 787 OFFCURVE",
"336 932 CURVE SMOOTH",
"336 1102 OFFCURVE",
"383 1383 OFFCURVE",
"594 1383 CURVE SMOOTH",
"712 1383 OFFCURVE",
"764 1301 OFFCURVE",
"764 1159 CURVE SMOOTH",
"764 990 OFFCURVE",
"719 698 OFFCURVE",
"509 698 CURVE SMOOTH"
);
}
);
width = 1024;
}
);
unicode = 00BA;
},
{
glyphname = uni03A9;
layers = (
{
layerId = "D92FDD0B-F694-41DD-AE46-0E4F694F0F38";
paths = (
{
closed = 1;
nodes = (
"614 0 LINE",
"615 129 LINE",
"486 224 OFFCURVE",
"386 389 OFFCURVE",
"386 680 CURVE SMOOTH",
"386 1106 OFFCURVE",
"634 1336 OFFCURVE",
"928 1336 CURVE SMOOTH",
"1123 1336 OFFCURVE",
"1307 1227 OFFCURVE",
"1307 989 CURVE SMOOTH",
"1307 576 OFFCURVE",
"1074 255 OFFCURVE",
"785 129 CURVE",
"761 0 LINE",
"1416 0 LINE",
"1540 371 LINE SMOOTH",
"1541 373 OFFCURVE",
"1541 375 OFFCURVE",
"1541 378 CURVE SMOOTH",
"1541 396 OFFCURVE",
"1516 405 OFFCURVE",
"1503 405 CURVE SMOOTH",
"1482 405 OFFCURVE",
"1464 396 OFFCURVE",
"1452 372 CURVE",
"1380 263 OFFCURVE",
"1301 170 OFFCURVE",
"1208 170 CURVE SMOOTH",
"1000 170 LINE",
"1235 303 OFFCURVE",
"1516 625 OFFCURVE",
"1516 964 CURVE SMOOTH",
"1516 1302 OFFCURVE",
"1253 1448 OFFCURVE",
"951 1448 CURVE SMOOTH",
"480 1448 OFFCURVE",
"193 1153 OFFCURVE",
"193 744 CURVE SMOOTH",
"193 517 OFFCURVE",
"340 245 OFFCURVE",
"447 170 CURVE",
"289 170 LINE SMOOTH",
"196 170 OFFCURVE",
"133 263 OFFCURVE",
"105 372 CURVE",
"101 396 OFFCURVE",
"87 405 OFFCURVE",
"66 405 CURVE SMOOTH",
"51 405 OFFCURVE",
"18 394 OFFCURVE",
"17 371 CURVE",
"19 0 LINE {name = hr00;}"
);
}
);
width = 1595;
}
);
unicode = 03A9;
},
{
glyphname = mu;
lastChange = "2018-05-14 03:39:29 +0000";
layers = (
{
layerId = "D92FDD0B-F694-41DD-AE46-0E4F694F0F38";
paths = (
{
closed = 1;
nodes = (
"241 24 OFFCURVE",
"314 -27 OFFCURVE",
"438 -27 CURVE SMOOTH",
"543 -27 OFFCURVE",
"667 66 OFFCURVE",
"704 131 CURVE",
"691 39 LINE {name = hr02;}",
"689 7 OFFCURVE",
"704 -1 OFFCURVE",
"715 -1 CURVE SMOOTH",
"773 0 OFFCURVE",
"888 1 OFFCURVE",
"1022 9 CURVE SMOOTH",
"1038 10 OFFCURVE",
"1048 27 OFFCURVE",
"1051 43 CURVE SMOOTH",
"1054 68 OFFCURVE",
"1045 77 OFFCURVE",
"1032 83 CURVE",
"980 97 OFFCURVE",
"883 84 OFFCURVE",
"901 208 CURVE SMOOTH",
"1006 960 LINE SMOOTH",
"1009 981 OFFCURVE",
"1002 996 OFFCURVE",
"974 996 CURVE SMOOTH",
"711 996 LINE SMOOTH",
"689 996 OFFCURVE",
"675 980 OFFCURVE",
"673 965 CURVE SMOOTH",
"669 935 OFFCURVE",
"676 931 OFFCURVE",
"704 928 CURVE SMOOTH",
"752 923 OFFCURVE",
"814 917 OFFCURVE",
"802 831 CURVE SMOOTH",
"722 260 LINE",
"661 190 OFFCURVE",
"588 113 OFFCURVE",
"488 113 CURVE SMOOTH {name = hr03;}",
"307 113 OFFCURVE",
"309 252 OFFCURVE",
"316 301 CURVE SMOOTH",
"408 960 LINE SMOOTH",
"411 981 OFFCURVE",
"404 996 OFFCURVE",
"376 996 CURVE SMOOTH",
"113 996 LINE SMOOTH",
"91 996 OFFCURVE",
"77 980 OFFCURVE",
"75 965 CURVE SMOOTH",
"71 935 OFFCURVE",
"78 931 OFFCURVE",
"106 928 CURVE SMOOTH",
"154 923 OFFCURVE",
"214 917 OFFCURVE",
"202 831 CURVE SMOOTH",
"136 358 LINE SMOOTH",
"95 65 OFFCURVE",
"-13 -240 OFFCURVE",
"-23 -307 CURVE SMOOTH",
"-34 -385 OFFCURVE",
"-5 -446 OFFCURVE",
"69 -446 CURVE SMOOTH",
"142 -446 OFFCURVE",
"188 -385 OFFCURVE",
"199 -307 CURVE SMOOTH",
"206 -259 OFFCURVE",
"188 -89 OFFCURVE",
"193 111 CURVE {name = hr01;}"
);
}
);
width = 1179;
}
);
unicode = 03BC;
},
{
glyphname = pi;
layers = (
{
layerId = "D92FDD0B-F694-41DD-AE46-0E4F694F0F38";
paths = (
{
closed = 1;
nodes = (
"6 172 OFFCURVE",
"-3 -29 OFFCURVE",
"139 -29 CURVE SMOOTH {name = hr02;}",
"172 -29 OFFCURVE",
"203 -15 OFFCURVE",
"224 -8 CURVE SMOOTH",
"383 49 OFFCURVE",
"427 231 OFFCURVE",
"483 462 CURVE SMOOTH",
"574 833 LINE",
"859 832 LINE",
"725 201 LINE SMOOTH",
"687 22 OFFCURVE",
"725 -29 OFFCURVE",
"897 -29 CURVE SMOOTH",
"1006 -29 OFFCURVE",
"1101 19 OFFCURVE",
"1131 41 CURVE",
"1112 134 LINE",
"1064 108 OFFCURVE",
"1005 108 OFFCURVE",
"970 108 CURVE SMOOTH",
"913 108 OFFCURVE",
"887 168 OFFCURVE",
"901 254 CURVE",
"983 832 LINE",
"1232 832 LINE",
"1276 994 LINE",
"423 994 LINE SMOOTH",
"292 994 OFFCURVE",
"197 958 OFFCURVE",
"127 852 CURVE SMOOTH",
"104 818 OFFCURVE",
"99 776 OFFCURVE",
"100 756 CURVE",
"170 743 LINE",
"199 792 OFFCURVE",
"266 834 OFFCURVE",
"356 833 CURVE SMOOTH",
"431 833 LINE",
"370 580 OFFCURVE",
"312 322 OFFCURVE",
"233 172 CURVE {name = hr03;}",
"68 172 LINE SMOOTH {name = hr01;}"
);
}
);
width = 1236;
}
);
unicode = 03C0;
},
{
glyphname = zero;
layers = (
{
layerId = "D92FDD0B-F694-41DD-AE46-0E4F694F0F38";
paths = (
{
closed = 1;
nodes = (
"80 206 OFFCURVE",
"229 -29 OFFCURVE",
"535 -29 CURVE SMOOTH",
"841 -29 OFFCURVE",
"1050 206 OFFCURVE",
"1097 582 CURVE SMOOTH",
"1144 965 OFFCURVE",
"1000 1205 OFFCURVE",
"694 1205 CURVE SMOOTH",
"388 1205 OFFCURVE",
"174 965 OFFCURVE",
"127 582 CURVE SMOOTH {name = hr00;}"
);
},
{
closed = 1;
nodes = (
"340 66 OFFCURVE",
"299 234 OFFCURVE",
"342 582 CURVE SMOOTH",
"386 936 OFFCURVE",
"465 1110 OFFCURVE",
"675 1110 CURVE SMOOTH",
"884 1110 OFFCURVE",
"924 936 OFFCURVE",
"880 582 CURVE SMOOTH",
"837 234 OFFCURVE",
"759 66 OFFCURVE",
"550 66 CURVE SMOOTH"
);
}
);
width = 1257;
}
);
unicode = 0030;
},
{
glyphname = one;
layers = (
{
layerId = "D92FDD0B-F694-41DD-AE46-0E4F694F0F38";
paths = (
{
closed = 1;
nodes = (
"76 26 OFFCURVE",
"86 0 OFFCURVE",
"109 0 CURVE SMOOTH",
"685 0 LINE SMOOTH",
"708 0 OFFCURVE",
"720 26 OFFCURVE",
"721 41 CURVE SMOOTH",
"723 71 OFFCURVE",
"716 75 OFFCURVE",
"688 78 CURVE SMOOTH",
"628 83 OFFCURVE",
"507 89 OFFCURVE",
"515 165 CURVE SMOOTH",
"621 1189 LINE",
"552 1189 LINE",
"453 1116 OFFCURVE",
"245 1067 OFFCURVE",
"183 1062 CURVE SMOOTH",
"155 1059 OFFCURVE",
"144 1035 OFFCURVE",
"142 1005 CURVE SMOOTH",
"141 990 OFFCURVE",
"150 974 OFFCURVE",
"173 974 CURVE SMOOTH",
"218 974 OFFCURVE",
"343 985 OFFCURVE",
"401 994 CURVE",
"310 152 LINE SMOOTH",
"306 108 OFFCURVE",
"178 83 OFFCURVE",
"113 78 CURVE",
"87 75 OFFCURVE",
"78 62 OFFCURVE",
"77 41 CURVE SMOOTH {name = hr00;}"
);
}
);
width = 880;
}
);
unicode = 0031;
},
{
glyphname = two;
layers = (
{
layerId = "D92FDD0B-F694-41DD-AE46-0E4F694F0F38";
paths = (
{
closed = 1;
nodes = (
"988 0 LINE",
"1012 165 LINE",
"378 165 LINE",
"658 350 OFFCURVE",
"983 594 OFFCURVE",
"1006 851 CURVE SMOOTH",
"1026 1079 OFFCURVE",
"870 1205 OFFCURVE",
"604 1205 CURVE SMOOTH",
"380 1205 OFFCURVE",
"213 1077 OFFCURVE",
"162 957 CURVE SMOOTH",
"96 803 OFFCURVE",
"224 774 OFFCURVE",
"269 774 CURVE SMOOTH",
"309 774 OFFCURVE",
"326 798 OFFCURVE",
"338 838 CURVE SMOOTH",
"401 1033 LINE",
"422 1055 OFFCURVE",
"444 1104 OFFCURVE",
"593 1104 CURVE SMOOTH",
"783 1104 OFFCURVE",
"805 951 OFFCURVE",
"797 850 CURVE SMOOTH",
"773 587 OFFCURVE",
"419 285 OFFCURVE",
"87 75 CURVE",
"81 0 LINE {name = hr00;}"
);
}
);
width = 1144;
}
);
unicode = 0032;
},
{
glyphname = three;
layers = (
{
layerId = "D92FDD0B-F694-41DD-AE46-0E4F694F0F38";
paths = (
{
closed = 1;
nodes = (
"-66 -386 OFFCURVE",
"161 -495 OFFCURVE",
"352 -495 CURVE SMOOTH",
"745 -495 OFFCURVE",
"966 -265 OFFCURVE",
"961 6 CURVE SMOOTH",
"957 227 OFFCURVE",
"728 343 OFFCURVE",
"610 355 CURVE",
"829 413 OFFCURVE",
"1009 587 OFFCURVE",
"997 807 CURVE SMOOTH {name = hr02;}",
"988 988 OFFCURVE",
"843 1104 OFFCURVE",
"630 1104 CURVE SMOOTH",
"401 1104 OFFCURVE",
"221 976 OFFCURVE",
"165 856 CURVE SMOOTH",
"146 817 OFFCURVE",
"140 786 OFFCURVE",
"141 762 CURVE SMOOTH",
"144 689 OFFCURVE",
"218 673 OFFCURVE",
"252 673 CURVE SMOOTH",
"292 673 OFFCURVE",
"309 697 OFFCURVE",
"325 737 CURVE SMOOTH",
"398 932 LINE",
"418 954 OFFCURVE",
"473 1006 OFFCURVE",
"595 1006 CURVE SMOOTH",
"744 1006 OFFCURVE",
"787 903 OFFCURVE",
"787 815 CURVE SMOOTH",
"787 525 OFFCURVE",
"609 398 OFFCURVE",
"449 398 CURVE SMOOTH",
"386 398 LINE",
"370 290 LINE",
"433 290 LINE SMOOTH",
"582 290 OFFCURVE",
"741 235 OFFCURVE",
"752 16 CURVE SMOOTH {name = hr03;}",
"764 -216 OFFCURVE",
"589 -400 OFFCURVE",
"349 -400 CURVE SMOOTH",
"200 -400 OFFCURVE",
"116 -302 OFFCURVE",
"99 -243 CURVE",
"162 -30 LINE",
"161 15 OFFCURVE",
"114 41 OFFCURVE",
"79 41 CURVE SMOOTH",
"-18 41 OFFCURVE",
"-66 -54 OFFCURVE",
"-66 -169 CURVE SMOOTH {name = hr01;}"
);
}
);
width = 1130;
}
);
unicode = 0033;
},
{
glyphname = four;
layers = (
{
layerId = "D92FDD0B-F694-41DD-AE46-0E4F694F0F38";
paths = (
{
closed = 1;
nodes = (
"777 -384 LINE",
"891 576 LINE",
"771 576 LINE",
"715 536 LINE",
"604 -384 LINE {name = hr00;}"
);
},
{
closed = 1;
nodes = (
"198 164 LINE",
"888 1151 LINE",
"890 1159 OFFCURVE",
"892 1170 OFFCURVE",
"892 1181 CURVE",
"889 1222 OFFCURVE",
"829 1260 OFFCURVE",
"756 1260 CURVE SMOOTH",
"727 1260 OFFCURVE",
"700 1241 OFFCURVE",
"694 1229 CURVE",
"29 87 LINE",
"67 0 LINE",
"1052 0 LINE",
"1069 164 LINE"
);
}
);
width = 1157;
}
);
unicode = 0034;
userData = {
com.typemytype.robofont.mark = (
0.6,
0.609,
1,
1
);
};
},
{
glyphname = five;
layers = (
{
layerId = "D92FDD0B-F694-41DD-AE46-0E4F694F0F38";
paths = (
{
closed = 1;
nodes = (
"11 31 OFFCURVE",
"-66 -20 OFFCURVE",
"-58 -133 CURVE SMOOTH",
"-46 -309 OFFCURVE",
"160 -392 OFFCURVE",
"318 -392 CURVE SMOOTH",
"693 -392 OFFCURVE",
"946 -71 OFFCURVE",
"934 273 CURVE SMOOTH",
"926 485 OFFCURVE",
"783 627 OFFCURVE",
"540 627 CURVE SMOOTH",
"461 627 OFFCURVE",
"336 602 OFFCURVE",
"262 554 CURVE",
"374 1020 LINE",
"976 1020 LINE",
"997 1189 LINE",
"269 1189 LINE",
"101 413 LINE",
"165 380 LINE",
"239 477 OFFCURVE",
"378 516 OFFCURVE",
"482 516 CURVE SMOOTH",
"601 516 OFFCURVE",
"707 423 OFFCURVE",
"713 262 CURVE SMOOTH",
"723 -31 OFFCURVE",
"598 -300 OFFCURVE",
"313 -297 CURVE SMOOTH",
"162 -295 OFFCURVE",
"154 -222 OFFCURVE",
"154 -222 CURVE",
"143 -189 OFFCURVE",
"130 -92 OFFCURVE",
"125 -44 CURVE SMOOTH",
"124 4 OFFCURVE",
"110 31 OFFCURVE",
"58 31 CURVE SMOOTH {name = hr00;}"
);
}
);
width = 1082;
}
);
unicode = 0035;
},
{
glyphname = six;
layers = (
{
layerId = "D92FDD0B-F694-41DD-AE46-0E4F694F0F38";
paths = (
{
closed = 1;
nodes = (
"99 169 OFFCURVE",
"229 -29 OFFCURVE",
"504 -29 CURVE SMOOTH",
"843 -29 OFFCURVE",
"1073 269 OFFCURVE",
"1049 602 CURVE SMOOTH",
"1037 794 OFFCURVE",
"925 933 OFFCURVE",
"675 933 CURVE SMOOTH",
"537 933 OFFCURVE",
"423 862 OFFCURVE",
"360 799 CURVE",
"433 1055 OFFCURVE",
"622 1340 OFFCURVE",
"1036 1437 CURVE",
"1048 1529 LINE",
"407 1413 OFFCURVE",
"47 891 OFFCURVE",
"83 399 CURVE SMOOTH {name = hr00;}"
);
},
{
closed = 1;
nodes = (
"393 743 OFFCURVE",
"506 815 OFFCURVE",
"634 815 CURVE SMOOTH",
"761 815 OFFCURVE",
"824 731 OFFCURVE",
"833 598 CURVE SMOOTH",
"852 327 OFFCURVE",
"750 66 OFFCURVE",
"521 66 CURVE SMOOTH",
"359 66 OFFCURVE",
"293 151 OFFCURVE",
"282 297 CURVE SMOOTH",
"274 424 OFFCURVE",
"297 553 OFFCURVE",
"325 670 CURVE SMOOTH"
);
}
);
width = 1159;
}
);
unicode = 0036;
},
{
glyphname = seven;
layers = (
{
layerId = "D92FDD0B-F694-41DD-AE46-0E4F694F0F38";
paths = (
{
closed = 1;
nodes = (
"325 -383 LINE",
"1048 1122 LINE",
"1006 1189 LINE",
"169 1190 LINE",
"77 786 LINE",
"73 763 OFFCURVE",
"97 752 OFFCURVE",
"112 752 CURVE SMOOTH",
"133 752 OFFCURVE",
"157 759 OFFCURVE",
"165 785 CURVE SMOOTH",
"175 824 OFFCURVE",
"261 1028 OFFCURVE",
"383 1028 CURVE",
"879 1028 LINE",
"103 -382 LINE {name = hr00;}"
);
}
);
width = 1017;
}
);
unicode = 0037;
},
{
glyphname = eight;
layers = (
{
layerId = "D92FDD0B-F694-41DD-AE46-0E4F694F0F38";
paths = (
{
closed = 1;
nodes = (
"102 118 OFFCURVE",
"251 -29 OFFCURVE",
"558 -29 CURVE SMOOTH",
"882 -29 OFFCURVE",
"1055 199 OFFCURVE",
"1043 412 CURVE SMOOTH {name = hr02;}",
"1036 562 OFFCURVE",
"934 666 OFFCURVE",
"812 745 CURVE",
"956 816 OFFCURVE",
"1105 961 OFFCURVE",
"1094 1153 CURVE SMOOTH {name = hr03;}",
"1085 1321 OFFCURVE",
"973 1449 OFFCURVE",
"705 1449 CURVE SMOOTH",
"471 1449 OFFCURVE",
"252 1297 OFFCURVE",
"265 1055 CURVE SMOOTH",
"271 922 OFFCURVE",
"334 833 OFFCURVE",
"420 751 CURVE",
"231 676 OFFCURVE",
"83 509 OFFCURVE",
"93 311 CURVE SMOOTH {name = hr01;}"
);
},
{
closed = 1;
nodes = (
"555 905 OFFCURVE",
"470 989 OFFCURVE",
"466 1079 CURVE SMOOTH {name = hr05;}",
"456 1260 OFFCURVE",
"563 1354 OFFCURVE",
"699 1354 CURVE SMOOTH",
"844 1354 OFFCURVE",
"903 1267 OFFCURVE",
"909 1155 CURVE SMOOTH",
"917 1021 OFFCURVE",
"857 858 OFFCURVE",
"735 793 CURVE",
"687 830 LINE SMOOTH"
);
},
{
closed = 1;
nodes = (
"527 672 OFFCURVE",
"562 641 OFFCURVE",
"598 621 CURVE SMOOTH",
"705 558 OFFCURVE",
"833 480 OFFCURVE",
"841 343 CURVE SMOOTH",
"850 159 OFFCURVE",
"716 66 OFFCURVE",
"544 66 CURVE SMOOTH",
"346 66 OFFCURVE",
"287 205 OFFCURVE",
"281 322 CURVE SMOOTH",
"273 470 OFFCURVE",
"358 634 OFFCURVE",
"493 695 CURVE SMOOTH {name = hr06;}"
);
}
);
width = 1221;
}
);
unicode = 0038;
},
{
glyphname = nine;
layers = (
{
layerId = "D92FDD0B-F694-41DD-AE46-0E4F694F0F38";
paths = (
{
closed = 1;
nodes = (
"1034 1007 OFFCURVE",
"902 1205 OFFCURVE",
"627 1205 CURVE SMOOTH",
"288 1205 OFFCURVE",
"60 907 OFFCURVE",
"81 574 CURVE SMOOTH",
"96 382 OFFCURVE",
"206 243 OFFCURVE",
"456 243 CURVE SMOOTH",
"594 243 OFFCURVE",
"708 314 OFFCURVE",
"773 377 CURVE",
"698 121 OFFCURVE",
"509 -164 OFFCURVE",
"95 -261 CURVE",
"85 -353 LINE",
"726 -237 OFFCURVE",
"1086 285 OFFCURVE",
"1050 777 CURVE {name = hr00;}"
);
},
{
closed = 1;
nodes = (
"740 433 OFFCURVE",
"625 361 OFFCURVE",
"497 361 CURVE SMOOTH",
"370 361 OFFCURVE",
"309 445 OFFCURVE",
"298 578 CURVE SMOOTH",
"281 849 OFFCURVE",
"381 1110 OFFCURVE",
"610 1110 CURVE SMOOTH",
"772 1110 OFFCURVE",
"840 1025 OFFCURVE",
"849 879 CURVE SMOOTH",
"857 752 OFFCURVE",
"836 623 OFFCURVE",
"808 506 CURVE"
);
}
);
width = 1159;
}
);
unicode = 0039;
},
{
glyphname = onesuperior;
layers = (
{
layerId = "D92FDD0B-F694-41DD-AE46-0E4F694F0F38";
paths = (
{
closed = 1;
nodes = (
"737 492 LINE SMOOTH",
"760 492 OFFCURVE",
"773 508 OFFCURVE",
"775 523 CURVE SMOOTH",
"779 553 OFFCURVE",
"772 557 OFFCURVE",
"744 560 CURVE SMOOTH",
"684 565 OFFCURVE",
"594 571 OFFCURVE",
"606 657 CURVE SMOOTH",
"718 1448 LINE",
"639 1448 LINE",
"537 1375 OFFCURVE",
"411 1336 OFFCURVE",
"350 1331 CURVE SMOOTH",
"321 1328 OFFCURVE",
"311 1314 OFFCURVE",
"307 1284 CURVE SMOOTH",
"305 1269 OFFCURVE",
"314 1253 OFFCURVE",
"337 1253 CURVE SMOOTH",
"382 1253 OFFCURVE",
"447 1254 OFFCURVE",
"505 1263 CURVE",
"414 624 LINE SMOOTH",
"408 580 OFFCURVE",
"335 565 OFFCURVE",
"270 560 CURVE",
"244 557 OFFCURVE",
"235 544 OFFCURVE",
"232 523 CURVE SMOOTH",
"230 508 OFFCURVE",
"239 492 OFFCURVE",
"262 492 CURVE SMOOTH {name = hr00;}"
);
}
);
width = 1024;
}
);
unicode = 00B9;
},
{
glyphname = twosuperior;
layers = (
{
layerId = "D92FDD0B-F694-41DD-AE46-0E4F694F0F38";
paths = (
{
closed = 1;
nodes = (
"901 493 LINE",
"921 629 LINE",
"406 629 LINE",
"609 752 OFFCURVE",
"920 946 OFFCURVE",
"920 1204 CURVE SMOOTH",
"920 1348 OFFCURVE",
"806 1449 OFFCURVE",
"600 1449 CURVE SMOOTH",
"326 1449 OFFCURVE",
"190 1272 OFFCURVE",
"190 1159 CURVE SMOOTH",
"190 1107 OFFCURVE",
"233 1078 OFFCURVE",
"275 1078 CURVE SMOOTH",
"303 1078 OFFCURVE",
"339 1086 OFFCURVE",
"347 1105 CURVE",
"412 1295 LINE",
"412 1295 OFFCURVE",
"457 1373 OFFCURVE",
"575 1373 CURVE SMOOTH",
"689 1373 OFFCURVE",
"717 1299 OFFCURVE",
"717 1228 CURVE SMOOTH",
"717 938 OFFCURVE",
"449 762 OFFCURVE",
"127 545 CURVE",
"120 493 LINE {name = hr00;}"
);
}
);
width = 1024;
}
);
unicode = 00B2;
},
{
glyphname = threesuperior;
layers = (
{
layerId = "D92FDD0B-F694-41DD-AE46-0E4F694F0F38";
paths = (
{
closed = 1;
nodes = (
"689 406 OFFCURVE",
"904 503 OFFCURVE",
"904 722 CURVE SMOOTH",
"904 872 OFFCURVE",
"777 941 OFFCURVE",
"681 955 CURVE",
"822 992 OFFCURVE",
"944 1112 OFFCURVE",
"944 1250 CURVE SMOOTH {name = hr02;}",
"944 1369 OFFCURVE",
"819 1449 OFFCURVE",
"623 1449 CURVE SMOOTH",
"445 1449 OFFCURVE",
"307 1368 OFFCURVE",
"264 1290 CURVE SMOOTH",
"249 1263 OFFCURVE",
"244 1240 OFFCURVE",
"244 1220 CURVE SMOOTH",
"244 1167 OFFCURVE",
"286 1141 OFFCURVE",
"313 1141 CURVE SMOOTH",
"344 1141 OFFCURVE",
"377 1146 OFFCURVE",
"386 1165 CURVE SMOOTH",
"397 1190 OFFCURVE",
"440 1297 OFFCURVE",
"447 1317 CURVE",
"447 1317 OFFCURVE",
"484 1367 OFFCURVE",
"601 1367 CURVE SMOOTH",
"728 1367 OFFCURVE",
"757 1295 OFFCURVE",
"757 1233 CURVE SMOOTH",
"757 1102 OFFCURVE",
"641 985 OFFCURVE",
"519 985 CURVE SMOOTH",
"479 985 LINE",
"468 910 LINE",
"508 910 LINE SMOOTH",
"581 910 OFFCURVE",
"724 875 OFFCURVE",
"724 738 CURVE SMOOTH {name = hr03;}",
"724 589 OFFCURVE",
"615 488 OFFCURVE",
"462 488 CURVE SMOOTH",
"346 488 OFFCURVE",
"303 540 OFFCURVE",
"281 593 CURVE",
"316 722 LINE SMOOTH",
"339 771 OFFCURVE",
"282 799 OFFCURVE",
"243 799 CURVE SMOOTH",
"171 799 OFFCURVE",
"128 725 OFFCURVE",
"128 649 CURVE SMOOTH",
"128 512 OFFCURVE",
"262 406 OFFCURVE",
"473 406 CURVE SMOOTH {name = hr01;}"
);
}
);
width = 1024;
}
);
unicode = 00B3;
},
{
glyphname = fraction;
layers = (
{
layerId = "D92FDD0B-F694-41DD-AE46-0E4F694F0F38";
paths = (
{
closed = 1;
nodes = (
"784 1419 LINE",
"637 1419 LINE",
"-189 0 LINE",
"-44 0 LINE {name = hr00;}"
);
}
);
width = 294;
}
);
unicode = 2044;
},
{
glyphname = onequarter;
layers = (
{
components = (
{
name = onesuperior;
transform = "{1, 0, 0, 1, -60, 0}";
},
{
name = fraction;
transform = "{1, 0, 0, 1, 785, 0}";
}
);
layerId = "D92FDD0B-F694-41DD-AE46-0E4F694F0F38";
paths = (
{
closed = 1;
nodes = (
"1076 0 LINE",
"1560 0 LINE",
"1524 -251 LINE",
"1691 -251 LINE",
"1727 0 LINE",
"1959 0 LINE",
"1978 137 LINE",
"1746 137 LINE",
"1781 386 LINE",
"1614 386 LINE",
"1579 137 LINE",
"1215 137 LINE",
"1695 737 LINE",
"1755 804 OFFCURVE",
"1747 863 OFFCURVE",
"1702 894 CURVE SMOOTH",
"1653 928 OFFCURVE",
"1585 908 OFFCURVE",
"1556 871 CURVE",
"1058 87 LINE {name = hr00;}"
);
}
);
width = 2150;
}
);
unicode = 00BC;
},
{
glyphname = threequarters;
layers = (
{
components = (
{
name = threesuperior;
transform = "{1, 0, 0, 1, -60, 0}";
},
{
name = fraction;
transform = "{1, 0, 0, 1, 785, 0}";
}
);
layerId = "D92FDD0B-F694-41DD-AE46-0E4F694F0F38";
paths = (
{
closed = 1;
nodes = (
"1076 0 LINE",
"1560 0 LINE",
"1524 -251 LINE",
"1691 -251 LINE",
"1727 0 LINE",
"1959 0 LINE",
"1978 137 LINE",
"1746 137 LINE",
"1781 386 LINE",
"1614 386 LINE",
"1579 137 LINE",
"1215 137 LINE",
"1695 737 LINE",
"1755 804 OFFCURVE",
"1747 863 OFFCURVE",
"1702 894 CURVE SMOOTH",
"1653 928 OFFCURVE",
"1585 908 OFFCURVE",
"1556 871 CURVE",
"1058 87 LINE {name = hr00;}"
);
}
);
width = 2150;
}
);
unicode = 00BE;
},
{
glyphname = period;
layers = (
{
layerId = "D92FDD0B-F694-41DD-AE46-0E4F694F0F38";
paths = (
{
closed = 1;
nodes = (
"103 40 OFFCURVE",
"137 -20 OFFCURVE",
"225 -20 CURVE SMOOTH",
"304 -20 OFFCURVE",
"367 43 OFFCURVE",
"367 130 CURVE SMOOTH",
"367 202 OFFCURVE",
"326 261 OFFCURVE",
"248 261 CURVE SMOOTH",
"163 261 OFFCURVE",
"103 194 OFFCURVE",
"103 112 CURVE SMOOTH {name = hr00;}"
);
}
);
width = 552;
}
);
unicode = 002E;
},
{
glyphname = comma;
layers = (
{
layerId = "D92FDD0B-F694-41DD-AE46-0E4F694F0F38";
paths = (
{
closed = 1;
nodes = (
"90 0 OFFCURVE",
"170 -15 OFFCURVE",
"198 -15 CURVE SMOOTH",
"198 -15 OFFCURVE",
"198 -24 OFFCURVE",
"197 -28 CURVE SMOOTH",
"189 -84 OFFCURVE",
"148 -190 OFFCURVE",
"68 -271 CURVE SMOOTH",
"48 -292 OFFCURVE",
"38 -307 OFFCURVE",
"38 -320 CURVE SMOOTH",
"38 -339 OFFCURVE",
"65 -360 OFFCURVE",
"85 -360 CURVE SMOOTH",
"95 -360 OFFCURVE",
"105 -357 OFFCURVE",
"113 -352 CURVE SMOOTH",
"220 -282 OFFCURVE",
"372 -60 OFFCURVE",
"372 103 CURVE SMOOTH",
"372 209 OFFCURVE",
"310 257 OFFCURVE",
"251 257 CURVE SMOOTH",
"173 257 OFFCURVE",
"90 206 OFFCURVE",
"90 107 CURVE SMOOTH {name = hr00;}"
);
}
);
width = 552;
}
);
unicode = 002C;
},
{
glyphname = exclam;
layers = (
{
layerId = "D92FDD0B-F694-41DD-AE46-0E4F694F0F38";
paths = (
{
closed = 1;
nodes = (
"366 432 LINE",
"486 1013 OFFCURVE",
"598 1322 OFFCURVE",
"609 1389 CURVE SMOOTH",
"621 1467 OFFCURVE",
"572 1528 OFFCURVE",
"499 1528 CURVE SMOOTH",
"425 1528 OFFCURVE",
"359 1467 OFFCURVE",
"347 1389 CURVE SMOOTH",
"336 1322 OFFCURVE",
"334 1013 OFFCURVE",
"286 432 CURVE {name = hr00;}"
);
},
{
closed = 1;
nodes = (
"140 32 OFFCURVE",
"183 -28 OFFCURVE",
"261 -28 CURVE SMOOTH",
"340 -28 OFFCURVE",
"404 35 OFFCURVE",
"406 122 CURVE SMOOTH",
"407 194 OFFCURVE",
"363 249 OFFCURVE",
"285 249 CURVE SMOOTH",
"200 249 OFFCURVE",
"143 186 OFFCURVE",
"141 104 CURVE SMOOTH"
);
}
);
width = 678;
}
);
unicode = 0021;
},
{
glyphname = question;
layers = (
{
layerId = "D92FDD0B-F694-41DD-AE46-0E4F694F0F38";
paths = (
{
closed = 1;
nodes = (
"477 377 LINE",
"495 492 LINE",
"520 740 OFFCURVE",
"939 856 OFFCURVE",
"981 1130 CURVE SMOOTH",
"1013 1341 OFFCURVE",
"910 1528 OFFCURVE",
"607 1528 CURVE SMOOTH",
"404 1528 OFFCURVE",
"248 1402 OFFCURVE",
"188 1284 CURVE SMOOTH",
"110 1135 OFFCURVE",
"196 1049 OFFCURVE",
"251 1049 CURVE SMOOTH",
"294 1049 OFFCURVE",
"320 1057 OFFCURVE",
"331 1087 CURVE",
"405 1347 LINE",
"405 1347 OFFCURVE",
"469 1443 OFFCURVE",
"597 1443 CURVE SMOOTH",
"776 1443 OFFCURVE",
"781 1262 OFFCURVE",
"765 1137 CURVE SMOOTH",
"731 888 OFFCURVE",
"430 847 OFFCURVE",
"384 502 CURVE",
"365 377 LINE {name = hr00;}"
);
},
{
closed = 1;
nodes = (
"241 47 OFFCURVE",
"293 -20 OFFCURVE",
"372 -20 CURVE SMOOTH",
"451 -20 OFFCURVE",
"522 47 OFFCURVE",
"533 122 CURVE SMOOTH",
"543 197 OFFCURVE",
"490 257 OFFCURVE",
"411 257 CURVE SMOOTH",
"332 257 OFFCURVE",
"262 197 OFFCURVE",
"252 122 CURVE SMOOTH"
);
}
);
width = 980;
}
);
unicode = 003F;
},
{
glyphname = bullet;
layers = (
{
layerId = "D92FDD0B-F694-41DD-AE46-0E4F694F0F38";
paths = (
{
closed = 1;
nodes = (
"528 292 OFFCURVE",
"646 435 OFFCURVE",
"646 584 CURVE SMOOTH",
"646 721 OFFCURVE",
"547 822 OFFCURVE",
"423 822 CURVE SMOOTH",
"244 822 OFFCURVE",
"127 678 OFFCURVE",
"127 529 CURVE SMOOTH",
"127 393 OFFCURVE",
"225 292 OFFCURVE",
"349 292 CURVE SMOOTH {name = hr00;}"
);
}
);
width = 804;
}
);
unicode = 2022;
},
{
glyphname = asterisk;
layers = (
{
layerId = "D92FDD0B-F694-41DD-AE46-0E4F694F0F38";
paths = (
{
closed = 1;
nodes = (
"325 620 OFFCURVE",
"361 640 OFFCURVE",
"389 673 CURVE SMOOTH",
"413 702 OFFCURVE",
"506 904 OFFCURVE",
"537 951 CURVE",
"554 902 OFFCURVE",
"596 698 OFFCURVE",
"610 673 CURVE SMOOTH",
"628 642 OFFCURVE",
"657 621 OFFCURVE",
"690 621 CURVE SMOOTH",
"742 621 OFFCURVE",
"778 653 OFFCURVE",
"785 701 CURVE SMOOTH",
"788 725 OFFCURVE",
"783 752 OFFCURVE",
"768 775 CURVE SMOOTH",
"723 847 OFFCURVE",
"626 938 OFFCURVE",
"588 984 CURVE",
"629 994 OFFCURVE",
"817 1013 OFFCURVE",
"862 1026 CURVE SMOOTH",
"913 1040 OFFCURVE",
"951 1071 OFFCURVE",
"958 1116 CURVE SMOOTH",
"967 1181 OFFCURVE",
"923 1211 OFFCURVE",
"874 1211 CURVE SMOOTH",
"862 1211 OFFCURVE",
"844 1208 OFFCURVE",
"830 1204 CURVE SMOOTH",
"805 1196 OFFCURVE",
"639 1069 OFFCURVE",
"578 1039 CURVE",
"582 1057 OFFCURVE",
"592 1062 OFFCURVE",
"599 1084 CURVE SMOOTH",
"614 1134 OFFCURVE",
"682 1308 OFFCURVE",
"686 1336 CURVE SMOOTH",
"695 1400 OFFCURVE",
"671 1449 OFFCURVE",
"608 1449 CURVE SMOOTH",
"543 1449 OFFCURVE",
"506 1400 OFFCURVE",
"497 1336 CURVE SMOOTH",
"493 1308 OFFCURVE",
"520 1099 OFFCURVE",
"520 1040 CURVE",
"464 1069 OFFCURVE",
"338 1195 OFFCURVE",
"310 1204 CURVE SMOOTH",
"295 1209 OFFCURVE",
"282 1211 OFFCURVE",
"268 1211 CURVE SMOOTH",
"219 1211 OFFCURVE",
"166 1181 OFFCURVE",
"157 1118 CURVE SMOOTH",
"150 1072 OFFCURVE",
"181 1041 OFFCURVE",
"225 1026 CURVE SMOOTH",
"265 1013 OFFCURVE",
"459 994 OFFCURVE",
"494 984 CURVE",
"438 935 OFFCURVE",
"268 811 OFFCURVE",
"247 786 CURVE SMOOTH",
"229 765 OFFCURVE",
"216 738 OFFCURVE",
"213 714 CURVE SMOOTH",
"206 662 OFFCURVE",
"244 620 OFFCURVE",
"293 620 CURVE SMOOTH {name = hr00;}"
);
}
);
width = 967;
}
);
unicode = 002A;
userData = {
com.typemytype.robofont.mark = (
0.6,
0.609,
1,
1
);
};
},
{
glyphname = numbersign;
layers = (
{
layerId = "D92FDD0B-F694-41DD-AE46-0E4F694F0F38";
paths = (
{
closed = 1;
nodes = (
"302 0 LINE",
"431 420 LINE",
"723 420 LINE",
"594 0 LINE",
"719 0 LINE",
"848 420 LINE",
"1122 420 LINE",
"1133 526 LINE",
"879 526 LINE",
"998 900 LINE",
"1251 900 LINE",
"1263 1006 LINE",
"1030 1006 LINE",
"1161 1419 LINE",
"1034 1419 LINE",
"904 1006 LINE",
"613 1006 LINE",
"744 1419 LINE",
"617 1419 LINE",
"487 1006 LINE",
"193 1006 LINE",
"181 900 LINE",
"455 900 LINE",
"337 526 LINE",
"83 526 LINE",
"72 420 LINE",
"306 420 LINE",
"177 0 LINE {name = hr00;}"
);
},
{
closed = 1;
nodes = (
"581 900 LINE",
"872 900 LINE",
"754 526 LINE",
"462 526 LINE"
);
}
);
width = 1317;
}
);
unicode = 0023;
},
{
glyphname = slash;
layers = (
{
layerId = "D92FDD0B-F694-41DD-AE46-0E4F694F0F38";
paths = (
{
closed = 1;
nodes = (
"90 -340 LINE",
"963 1547 LINE",
"826 1547 LINE",
"-45 -340 LINE {name = hr00;}"
);
}
);
width = 960;
}
);
unicode = 002F;
},
{
glyphname = backslash;
layers = (
{
layerId = "D92FDD0B-F694-41DD-AE46-0E4F694F0F38";
paths = (
{
closed = 1;
nodes = (
"805 -340 LINE",
"122 1547 LINE",
"259 1547 LINE",
"940 -340 LINE {name = hr00;}"
);
}
);
width = 960;
}
);
unicode = 005C;
},
{
glyphname = parenleft;
layers = (
{
layerId = "D92FDD0B-F694-41DD-AE46-0E4F694F0F38";
paths = (
{
closed = 1;
nodes = (
"64 -19 OFFCURVE",
"299 -299 OFFCURVE",
"518 -340 CURVE",
"533 -257 LINE",
"422 -199 OFFCURVE",
"262 -75 OFFCURVE",
"297 538 CURVE SMOOTH",
"329 1051 OFFCURVE",
"581 1498 OFFCURVE",
"863 1463 CURVE",
"899 1550 LINE {name = hr02;}",
"445 1601 OFFCURVE",
"132 1048 OFFCURVE",
"97 522 CURVE SMOOTH {name = hr01;}"
);
}
);
width = 768;
}
);
unicode = 0028;
},
{
glyphname = braceleft;
layers = (
{
layerId = "D92FDD0B-F694-41DD-AE46-0E4F694F0F38";
paths = (
{
closed = 1;
nodes = (
"223 -251 OFFCURVE",
"418 -328 OFFCURVE",
"558 -328 CURVE SMOOTH",
"671 -328 LINE",
"685 -241 LINE",
"572 -241 LINE SMOOTH",
"464 -241 OFFCURVE",
"440 -148 OFFCURVE",
"452 -72 CURVE SMOOTH",
"516 335 LINE SMOOTH",
"541 498 OFFCURVE",
"413 575 OFFCURVE",
"246 603 CURVE",
"422 630 OFFCURVE",
"574 710 OFFCURVE",
"600 873 CURVE SMOOTH",
"663 1280 LINE SMOOTH",
"676 1356 OFFCURVE",
"728 1449 OFFCURVE",
"836 1449 CURVE SMOOTH",
"949 1449 LINE",
"963 1536 LINE",
"850 1536 LINE SMOOTH",
"710 1536 OFFCURVE",
"491 1459 OFFCURVE",
"456 1237 CURVE SMOOTH",
"396 850 LINE SMOOTH",
"379 741 OFFCURVE",
"271 659 OFFCURVE",
"146 659 CURVE SMOOTH",
"116 659 LINE",
"100 549 LINE",
"130 549 LINE SMOOTH",
"255 549 OFFCURVE",
"335 467 OFFCURVE",
"319 358 CURVE SMOOTH",
"257 -29 LINE SMOOTH {name = hr00;}"
);
}
);
width = 881;
}
);
unicode = 007B;
},
{
glyphname = braceright;
layers = (
{
layerId = "D92FDD0B-F694-41DD-AE46-0E4F694F0F38";
paths = (
{
closed = 1;
nodes = (
"640 1459 OFFCURVE",
"445 1536 OFFCURVE",
"305 1536 CURVE SMOOTH",
"192 1536 LINE",
"178 1449 LINE",
"291 1449 LINE SMOOTH",
"399 1449 OFFCURVE",
"422 1356 OFFCURVE",
"411 1280 CURVE",
"347 873 LINE",
"322 710 OFFCURVE",
"450 633 OFFCURVE",
"617 605 CURVE",
"441 578 OFFCURVE",
"288 498 OFFCURVE",
"263 335 CURVE SMOOTH",
"199 -72 LINE SMOOTH",
"187 -148 OFFCURVE",
"135 -241 OFFCURVE",
"27 -241 CURVE SMOOTH",
"-85 -241 LINE",
"-99 -328 LINE",
"14 -328 LINE SMOOTH",
"153 -328 OFFCURVE",
"371 -251 OFFCURVE",
"407 -29 CURVE",
"467 358 LINE SMOOTH",
"484 467 OFFCURVE",
"591 549 OFFCURVE",
"716 549 CURVE SMOOTH",
"746 549 LINE",
"763 659 LINE",
"733 659 LINE SMOOTH",
"608 659 OFFCURVE",
"527 741 OFFCURVE",
"544 850 CURVE",
"605 1237 LINE {name = hr00;}"
);
}
);
width = 881;
}
);
unicode = 007D;
},
{
glyphname = bracketleft;
layers = (
{
layerId = "D92FDD0B-F694-41DD-AE46-0E4F694F0F38";
paths = (
{
closed = 1;
nodes = (
"514 -328 LINE",
"528 -231 LINE",
"279 -231 LINE",
"546 1439 LINE",
"795 1439 LINE",
"808 1536 LINE",
"364 1535 LINE",
"71 -327 LINE {name = hr00;}"
);
}
);
width = 768;
}
);
unicode = 005B;
},
{
glyphname = bracketright;
layers = (
{
layerId = "D92FDD0B-F694-41DD-AE46-0E4F694F0F38";
paths = (
{
closed = 1;
nodes = (
"213 1536 LINE {name = hr02;}",
"199 1439 LINE",
"448 1439 LINE",
"183 -231 LINE",
"-66 -231 LINE",
"-79 -328 LINE",
"365 -327 LINE",
"656 1535 LINE {name = hr01;}"
);
}
);
width = 768;
}
);
unicode = 005D;
},
{
glyphname = hyphen;
layers = (
{
layerId = "D92FDD0B-F694-41DD-AE46-0E4F694F0F38";
paths = (
{
closed = 1;
nodes = (
"640 496 LINE",
"658 622 LINE",
"102 622 LINE",
"84 496 LINE {name = hr00;}"
);
}
);
width = 766;
}
);
unicode = 002D;
},
{
glyphname = endash;
layers = (
{
layerId = "D92FDD0B-F694-41DD-AE46-0E4F694F0F38";
paths = (
{
closed = 1;
nodes = (
"1191 496 LINE",
"1209 622 LINE",
"102 622 LINE",
"84 496 LINE {name = hr00;}"
);
}
);
width = 1317;
}
);
unicode = 2013;
},
{
glyphname = emdash;
layers = (
{
layerId = "D92FDD0B-F694-41DD-AE46-0E4F694F0F38";
paths = (
{
closed = 1;
nodes = (
"1629 496 LINE",
"1647 622 LINE",
"102 622 LINE",
"84 496 LINE {name = hr00;}"
);
}
);
width = 1755;
}
);
unicode = 2014;
},
{
glyphname = underscore;
layers = (
{
layerId = "D92FDD0B-F694-41DD-AE46-0E4F694F0F38";
paths = (
{
closed = 1;
nodes = (
"-182 -296 LINE",
"1244 -296 LINE",
"1259 -190 LINE",
"-167 -190 LINE {name = hr00;}"
);
}
);
width = 1317;
}
);
unicode = 005F;
},
{
glyphname = quoteright;
layers = (
{
layerId = "D92FDD0B-F694-41DD-AE46-0E4F694F0F38";
paths = (
{
closed = 1;
nodes = (
"318 1109 OFFCURVE",
"506 1285 OFFCURVE",
"506 1524 CURVE SMOOTH",
"506 1601 OFFCURVE",
"446 1681 OFFCURVE",
"361 1681 CURVE SMOOTH",
"271 1681 OFFCURVE",
"220 1623 OFFCURVE",
"220 1532 CURVE SMOOTH",
"220 1433 OFFCURVE",
"325 1428 OFFCURVE",
"327 1417 CURVE",
"327 1373 OFFCURVE",
"321 1227 OFFCURVE",
"202 1127 CURVE SMOOTH",
"179 1108 OFFCURVE",
"172 1092 OFFCURVE",
"172 1078 CURVE SMOOTH",
"172 1059 OFFCURVE",
"192 1048 OFFCURVE",
"212 1048 CURVE SMOOTH",
"222 1048 OFFCURVE",
"232 1051 OFFCURVE",
"240 1056 CURVE SMOOTH {name = hr00;}"
);
}
);
width = 400;
}
);
unicode = 2019;
},
{
glyphname = quotereversed;
layers = (
{
layerId = "D92FDD0B-F694-41DD-AE46-0E4F694F0F38";
paths = (
{
closed = 1;
nodes = (
"211 1152 OFFCURVE",
"136 1278 OFFCURVE",
"136 1432 CURVE SMOOTH",
"136 1556 OFFCURVE",
"202 1681 OFFCURVE",
"337 1681 CURVE SMOOTH",
"411 1681 OFFCURVE",
"451 1632 OFFCURVE",
"451 1570 CURVE SMOOTH",
"451 1464 OFFCURVE",
"376 1432 OFFCURVE",
"289 1417 CURVE",
"286 1405 OFFCURVE",
"284 1387 OFFCURVE",
"284 1364 CURVE SMOOTH",
"284 1304 OFFCURVE",
"298 1214 OFFCURVE",
"355 1127 CURVE SMOOTH",
"370 1104 OFFCURVE",
"376 1092 OFFCURVE",
"373 1078 CURVE SMOOTH",
"369 1059 OFFCURVE",
"346 1048 OFFCURVE",
"326 1048 CURVE SMOOTH",
"316 1048 OFFCURVE",
"306 1050 OFFCURVE",
"300 1056 CURVE SMOOTH {name = hr00;}"
);
}
);
width = 400;
}
);
unicode = 201B;
},
{
glyphname = guilsinglleft;
layers = (
{
layerId = "D92FDD0B-F694-41DD-AE46-0E4F694F0F38";
paths = (
{
closed = 1;
nodes = (
"586 40 LINE",
"607 164 LINE",
"309 524 LINE",
"702 865 LINE",
"723 1011 LINE",
"130 594 LINE",
"113 475 LINE {name = hr00;}"
);
}
);
width = 850;
}
);
unicode = 2039;
},
{
glyphname = quotesingle;
layers = (
{
layerId = "D92FDD0B-F694-41DD-AE46-0E4F694F0F38";
paths = (
{
closed = 1;
nodes = (
"277 967 LINE",
"330 1154 OFFCURVE",
"443 1475 OFFCURVE",
"452 1542 CURVE SMOOTH",
"463 1620 OFFCURVE",
"434 1681 OFFCURVE",
"361 1681 CURVE SMOOTH",
"287 1681 OFFCURVE",
"241 1620 OFFCURVE",
"230 1542 CURVE SMOOTH",
"221 1475 OFFCURVE",
"218 1154 OFFCURVE",
"217 967 CURVE {name = hr00;}"
);
}
);
width = 441;
}
);
unicode = 0027;
},
{
glyphname = .notdef;
layers = (
{
layerId = "D92FDD0B-F694-41DD-AE46-0E4F694F0F38";
paths = (
{
closed = 1;
nodes = (
"1802 0 LINE",
"1802 1547 LINE",
"246 1547 LINE",
"246 0 LINE {name = hr00;}"
);
},
{
closed = 1;
nodes = (
"352 1457 LINE",
"1696 1457 LINE",
"1696 90 LINE",
"352 90 LINE"
);
},
{
closed = 1;
nodes = (
"663 312 LINE",
"1024 678 LINE",
"1385 312 LINE",
"1477 397 LINE",
"1112 767 LINE",
"1477 1138 LINE",
"1385 1224 LINE",
"1024 857 LINE",
"663 1224 LINE",
"571 1138 LINE",
"936 767 LINE",
"571 397 LINE"
);
}
);
width = 2048;
}
);
},
{
glyphname = cent;
layers = (
{
components = (
{
name = c;
transform = "{1, 0, 0, 1, 68, 0}";
}
);
layerId = "D92FDD0B-F694-41DD-AE46-0E4F694F0F38";
paths = (
{
closed = 1;
nodes = (
"646 1225 LINE",
"619 1006 LINE {name = hr02;}",
"589 1000 OFFCURVE",
"651 921 OFFCURVE",
"726 1013 CURVE",
"752 1225 LINE {name = hr01;}"
);
},
{
closed = 1;
nodes = (
"528 -228 LINE",
"554 -27 LINE",
"585 -25 OFFCURVE",
"519 34 OFFCURVE",
"448 -25 CURVE",
"422 -228 LINE"
);
}
);
width = 1137;
}
);
unicode = 00A2;
},
{
glyphname = currency;
layers = (
{
layerId = "D92FDD0B-F694-41DD-AE46-0E4F694F0F38";
paths = (
{
closed = 1;
nodes = (
"262 365 OFFCURVE",
"389 211 OFFCURVE",
"591 211 CURVE SMOOTH",
"793 211 OFFCURVE",
"922 365 OFFCURVE",
"922 555 CURVE SMOOTH",
"922 745 OFFCURVE",
"797 899 OFFCURVE",
"595 899 CURVE SMOOTH",
"393 899 OFFCURVE",
"262 745 OFFCURVE",
"262 555 CURVE SMOOTH {name = hr00;}"
);
},
{
closed = 1;
nodes = (
"779 400 OFFCURVE",
"711 324 OFFCURVE",
"593 324 CURVE SMOOTH",
"474 324 OFFCURVE",
"404 400 OFFCURVE",
"404 555 CURVE SMOOTH",
"404 710 OFFCURVE",
"471 786 OFFCURVE",
"590 786 CURVE SMOOTH",
"708 786 OFFCURVE",
"779 710 OFFCURVE",
"779 555 CURVE SMOOTH"
);
},
{
closed = 1;
nodes = (
"953 99 LINE",
"1045 184 LINE",
"820 412 LINE",
"742 313 LINE"
);
},
{
closed = 1;
nodes = (
"231 1011 LINE",
"139 925 LINE",
"362 699 LINE",
"443 796 LINE"
);
},
{
closed = 1;
nodes = (
"139 184 LINE",
"231 99 LINE",
"445 316 LINE",
"354 403 LINE"
);
},
{
closed = 1;
nodes = (
"1045 925 LINE",
"953 1011 LINE",
"741 796 LINE",
"821 698 LINE"
);
}
);
width = 1170;
}
);
unicode = 00A4;
},
{
glyphname = dollar;
layers = (
{
layerId = "D92FDD0B-F694-41DD-AE46-0E4F694F0F38";
paths = (
{
closed = 1;
nodes = (
"808 1342 LINE",
"848 1574 LINE",
"742 1574 LINE",
"702 1347 LINE {name = hr01;}"
);
},
{
closed = 1;
nodes = (
"548 -245 LINE",
"580 -16 LINE {name = hr02;}",
"475 -13 LINE {name = hr03;}",
"442 -245 LINE"
);
},
{
closed = 1;
nodes = (
"90 48 OFFCURVE",
"108 20 OFFCURVE",
"135 20 CURVE SMOOTH",
"155 20 OFFCURVE",
"187 32 OFFCURVE",
"209 61 CURVE SMOOTH",
"221 76 OFFCURVE",
"235 83 OFFCURVE",
"242 78 CURVE SMOOTH",
"303 38 OFFCURVE",
"428 -30 OFFCURVE",
"595 -30 CURVE SMOOTH",
"890 -30 OFFCURVE",
"1093 140 OFFCURVE",
"1092 358 CURVE SMOOTH",
"1091 538 OFFCURVE",
"901 658 OFFCURVE",
"731 763 CURVE SMOOTH",
"625 829 OFFCURVE",
"480 944 OFFCURVE",
"474 1071 CURVE SMOOTH",
"465 1231 OFFCURVE",
"594 1290 OFFCURVE",
"744 1290 CURVE SMOOTH",
"890 1290 OFFCURVE",
"1020 1185 OFFCURVE",
"1032 970 CURVE SMOOTH",
"1032 957 OFFCURVE",
"1053 948 OFFCURVE",
"1074 948 CURVE SMOOTH",
"1102 948 OFFCURVE",
"1126 952 OFFCURVE",
"1127 1007 CURVE SMOOTH",
"1129 1128 OFFCURVE",
"1150 1280 OFFCURVE",
"1149 1318 CURVE SMOOTH",
"1149 1336 OFFCURVE",
"1126 1352 OFFCURVE",
"1101 1352 CURVE SMOOTH",
"1063 1352 OFFCURVE",
"1054 1308 OFFCURVE",
"1013 1308 CURVE SMOOTH",
"1006 1308 OFFCURVE",
"997 1306 OFFCURVE",
"988 1311 CURVE SMOOTH",
"960 1325 OFFCURVE",
"844 1369 OFFCURVE",
"747 1369 CURVE SMOOTH",
"421 1369 OFFCURVE",
"261 1214 OFFCURVE",
"273 1018 CURVE SMOOTH",
"284 818 OFFCURVE",
"438 702 OFFCURVE",
"592 598 CURVE SMOOTH",
"730 505 OFFCURVE",
"882 429 OFFCURVE",
"891 296 CURVE SMOOTH",
"900 142 OFFCURVE",
"763 59 OFFCURVE",
"588 59 CURVE SMOOTH {name = hr04;}",
"454 59 OFFCURVE",
"333 134 OFFCURVE",
"283 257 CURVE SMOOTH",
"237 369 OFFCURVE",
"247 444 OFFCURVE",
"244 478 CURVE",
"244 505 OFFCURVE",
"217 520 OFFCURVE",
"194 520 CURVE SMOOTH",
"167 520 OFFCURVE",
"147 513 OFFCURVE",
"146 471 CURVE",
"144 391 OFFCURVE",
"124 214 OFFCURVE",
"94 72 CURVE SMOOTH"
);
}
);
width = 1249;
}
);
unicode = 0024;
},
{
glyphname = euro;
lastChange = "2018-05-12 15:43:05 +0000";
layers = (
{
layerId = "D92FDD0B-F694-41DD-AE46-0E4F694F0F38";
paths = (
{
closed = 1;
nodes = (
"146 124 OFFCURVE",
"397 -30 OFFCURVE",
"655 -30 CURVE SMOOTH",
"896 -30 OFFCURVE",
"1116 70 OFFCURVE",
"1125 98 CURVE SMOOTH",
"1195 369 LINE",
"1199 392 OFFCURVE",
"1162 413 OFFCURVE",
"1146 413 CURVE SMOOTH",
"1124 413 OFFCURVE",
"1100 406 OFFCURVE",
"1093 380 CURVE",
"1043 207 OFFCURVE",
"911 65 OFFCURVE",
"671 65 CURVE SMOOTH",
"548 65 OFFCURVE",
"369 145 OFFCURVE",
"362 529 CURVE SMOOTH",
"350 1205 OFFCURVE",
"720 1354 OFFCURVE",
"893 1354 CURVE SMOOTH",
"1106 1354 OFFCURVE",
"1172 1220 OFFCURVE",
"1183 1071 CURVE",
"1183 1045 OFFCURVE",
"1196 1040 OFFCURVE",
"1218 1042 CURVE SMOOTH",
"1235 1043 OFFCURVE",
"1261 1058 OFFCURVE",
"1262 1081 CURVE SMOOTH",
"1295 1362 LINE",
"1237 1393 OFFCURVE",
"1152 1450 OFFCURVE",
"911 1450 CURVE SMOOTH",
"602 1450 OFFCURVE",
"128 1161 OFFCURVE",
"138 575 CURVE SMOOTH {name = hr00;}"
);
},
{
closed = 1;
nodes = (
"25 920 OFFCURVE",
"12 883 OFFCURVE",
"10 858 CURVE",
"6 842 OFFCURVE",
"13 825 OFFCURVE",
"29 824 CURVE",
"937 824 LINE",
"952 830 OFFCURVE",
"965 867 OFFCURVE",
"968 892 CURVE",
"972 908 OFFCURVE",
"964 925 OFFCURVE",
"948 926 CURVE",
"39 926 LINE",
"40 926 LINE"
);
},
{
closed = 1;
nodes = (
"-16 587 OFFCURVE",
"-29 550 OFFCURVE",
"-31 525 CURVE",
"-34 509 OFFCURVE",
"-28 492 OFFCURVE",
"-12 491 CURVE",
"896 491 LINE",
"911 497 OFFCURVE",
"924 534 OFFCURVE",
"927 559 CURVE",
"930 575 OFFCURVE",
"923 592 OFFCURVE",
"907 593 CURVE",
"-2 593 LINE",
"-1 593 LINE"
);
}
);
width = 1315;
}
);
unicode = 20AC;
},
{
glyphname = florin;
layers = (
{
layerId = "D92FDD0B-F694-41DD-AE46-0E4F694F0F38";
paths = (
{
closed = 1;
nodes = (
"-87 -208 OFFCURVE",
"-198 -231 OFFCURVE",
"-209 -321 CURVE SMOOTH",
"-216 -390 OFFCURVE",
"-154 -460 OFFCURVE",
"-26 -460 CURVE SMOOTH",
"227 -460 OFFCURVE",
"386 -217 OFFCURVE",
"444 38 CURVE",
"567 509 LINE",
"815 509 LINE",
"830 515 OFFCURVE",
"841 537 OFFCURVE",
"844 562 CURVE SMOOTH",
"845 578 OFFCURVE",
"839 595 OFFCURVE",
"823 596 CURVE",
"589 596 LINE",
"657 851 LINE",
"729 1184 OFFCURVE",
"809 1221 OFFCURVE",
"896 1224 CURVE",
"929 1147 OFFCURVE",
"955 1093 OFFCURVE",
"980 1080 CURVE",
"1000 1065 OFFCURVE",
"1113 1088 OFFCURVE",
"1122 1178 CURVE SMOOTH",
"1130 1247 OFFCURVE",
"1070 1317 OFFCURVE",
"942 1317 CURVE SMOOTH",
"686 1317 OFFCURVE",
"524 1074 OFFCURVE",
"467 819 CURVE",
"408 596 LINE",
"215 596 LINE",
"200 590 OFFCURVE",
"189 568 OFFCURVE",
"186 543 CURVE SMOOTH",
"184 527 OFFCURVE",
"191 510 OFFCURVE",
"207 509 CURVE",
"386 509 LINE",
"253 6 LINE",
"182 -327 OFFCURVE",
"101 -364 OFFCURVE",
"16 -367 CURVE",
"-15 -290 OFFCURVE",
"-42 -236 OFFCURVE",
"-67 -223 CURVE {name = hr00;}"
);
}
);
width = 1063;
}
);
unicode = 0192;
},
{
glyphname = sterling;
layers = (
{
layerId = "D92FDD0B-F694-41DD-AE46-0E4F694F0F38";
paths = (
{
closed = 1;
nodes = (
"-21 23 OFFCURVE",
"43 0 OFFCURVE",
"76 0 CURVE SMOOTH",
"163 0 OFFCURVE",
"255 102 OFFCURVE",
"271 128 CURVE",
"353 141 OFFCURVE",
"492 -16 OFFCURVE",
"840 -16 CURVE SMOOTH {name = hr02;}",
"1026 -16 OFFCURVE",
"1221 54 OFFCURVE",
"1214 262 CURVE SMOOTH",
"1211 338 OFFCURVE",
"1163 408 OFFCURVE",
"1082 408 CURVE SMOOTH",
"1018 408 OFFCURVE",
"988 378 OFFCURVE",
"984 350 CURVE",
"1029 199 LINE",
"1001 134 OFFCURVE",
"918 88 OFFCURVE",
"797 88 CURVE SMOOTH",
"579 88 OFFCURVE",
"479 157 OFFCURVE",
"345 196 CURVE",
"395 256 OFFCURVE",
"481 406 OFFCURVE",
"512 603 CURVE SMOOTH",
"562 893 LINE SMOOTH",
"624 1251 OFFCURVE",
"702 1366 OFFCURVE",
"859 1366 CURVE SMOOTH",
"884 1366 OFFCURVE",
"941 1359 OFFCURVE",
"965 1334 CURVE",
"1043 1195 LINE",
"1053 1182 OFFCURVE",
"1081 1175 OFFCURVE",
"1096 1175 CURVE SMOOTH",
"1150 1175 OFFCURVE",
"1180 1222 OFFCURVE",
"1178 1282 CURVE SMOOTH",
"1175 1356 OFFCURVE",
"1095 1448 OFFCURVE",
"903 1448 CURVE SMOOTH",
"577 1448 OFFCURVE",
"416 1239 OFFCURVE",
"356 871 CURVE SMOOTH",
"291 472 OFFCURVE",
"266 271 OFFCURVE",
"237 223 CURVE",
"132 227 OFFCURVE",
"-27 188 OFFCURVE",
"-23 82 CURVE SMOOTH {name = hr01;}"
);
},
{
closed = 1;
nodes = (
"155 809 OFFCURVE",
"141 772 OFFCURVE",
"139 747 CURVE",
"135 731 OFFCURVE",
"142 714 OFFCURVE",
"158 713 CURVE",
"861 713 LINE",
"876 719 OFFCURVE",
"890 756 OFFCURVE",
"892 781 CURVE",
"896 797 OFFCURVE",
"889 814 OFFCURVE",
"873 815 CURVE",
"169 815 LINE",
"170 815 LINE {name = hr04;}"
);
}
);
width = 1274;
}
);
unicode = 00A3;
userData = {
com.typemytype.robofont.mark = (
0.6,
0.609,
1,
1
);
};
},
{
glyphname = yen;
layers = (
{
layerId = "D92FDD0B-F694-41DD-AE46-0E4F694F0F38";
paths = (
{
closed = 1;
nodes = (
"239 16 OFFCURVE",
"249 0 OFFCURVE",
"272 0 CURVE SMOOTH",
"797 0 LINE SMOOTH",
"819 0 OFFCURVE",
"832 16 OFFCURVE",
"835 31 CURVE SMOOTH",
"840 61 OFFCURVE",
"833 65 OFFCURVE",
"805 68 CURVE",
"739 73 OFFCURVE",
"616 79 OFFCURVE",
"631 165 CURVE SMOOTH",
"714 716 LINE",
"1208 1254 LINE SMOOTH",
"1272 1332 OFFCURVE",
"1330 1346 OFFCURVE",
"1379 1351 CURVE SMOOTH",
"1408 1354 OFFCURVE",
"1417 1358 OFFCURVE",
"1422 1388 CURVE SMOOTH",
"1425 1403 OFFCURVE",
"1416 1419 OFFCURVE",
"1394 1419 CURVE SMOOTH",
"999 1419 LINE SMOOTH",
"976 1419 OFFCURVE",
"962 1403 OFFCURVE",
"959 1388 CURVE SMOOTH",
"956 1367 OFFCURVE",
"960 1354 OFFCURVE",
"985 1351 CURVE",
"1076 1346 OFFCURVE",
"1128 1319 OFFCURVE",
"1095 1277 CURVE SMOOTH",
"664 806 LINE",
"436 1287 LINE SMOOTH",
"419 1331 OFFCURVE",
"514 1346 OFFCURVE",
"605 1351 CURVE",
"632 1354 OFFCURVE",
"642 1367 OFFCURVE",
"645 1388 CURVE SMOOTH",
"648 1403 OFFCURVE",
"640 1419 OFFCURVE",
"617 1419 CURVE SMOOTH",
"105 1419 LINE SMOOTH",
"83 1419 OFFCURVE",
"68 1403 OFFCURVE",
"65 1388 CURVE SMOOTH",
"60 1358 OFFCURVE",
"67 1354 OFFCURVE",
"94 1351 CURVE SMOOTH",
"143 1346 OFFCURVE",
"205 1336 OFFCURVE",
"239 1254 CURVE SMOOTH",
"531 706 LINE",
"451 152 LINE SMOOTH",
"439 81 OFFCURVE",
"349 73 OFFCURVE",
"281 68 CURVE",
"256 65 OFFCURVE",
"246 52 OFFCURVE",
"242 31 CURVE SMOOTH {name = hr00;}"
);
},
{
closed = 1;
nodes = (
"155 731 OFFCURVE",
"141 694 OFFCURVE",
"139 669 CURVE",
"135 653 OFFCURVE",
"142 636 OFFCURVE",
"158 635 CURVE",
"1066 635 LINE",
"1081 641 OFFCURVE",
"1095 678 OFFCURVE",
"1097 703 CURVE",
"1101 719 OFFCURVE",
"1094 736 OFFCURVE",
"1078 737 CURVE",
"169 737 LINE",
"170 737 LINE"
);
},
{
closed = 1;
nodes = (
"120 398 OFFCURVE",
"106 361 OFFCURVE",
"104 336 CURVE",
"100 320 OFFCURVE",
"107 303 OFFCURVE",
"123 302 CURVE",
"1031 302 LINE",
"1046 308 OFFCURVE",
"1059 345 OFFCURVE",
"1062 370 CURVE",
"1066 386 OFFCURVE",
"1058 403 OFFCURVE",
"1042 404 CURVE",
"133 404 LINE",
"134 404 LINE"
);
}
);
width = 1259;
}
);
unicode = 00A5;
},
{
glyphname = plus;
layers = (
{
layerId = "D92FDD0B-F694-41DD-AE46-0E4F694F0F38";
paths = (
{
closed = 1;
nodes = (
"728 1027 LINE",
"582 1027 LINE",
"582 40 LINE",
"728 40 LINE {name = hr00;}"
);
},
{
closed = 1;
nodes = (
"1117 492 LINE",
"1117 618 LINE",
"190 618 LINE",
"190 492 LINE"
);
}
);
width = 1317;
}
);
unicode = 002B;
},
{
glyphname = minus;
layers = (
{
layerId = "D92FDD0B-F694-41DD-AE46-0E4F694F0F38";
paths = (
{
closed = 1;
nodes = (
"1099 496 LINE",
"1117 622 LINE",
"208 622 LINE",
"190 496 LINE {name = hr00;}"
);
}
);
width = 1317;
}
);
unicode = 2212;
},
{
glyphname = multiply;
layers = (
{
layerId = "D92FDD0B-F694-41DD-AE46-0E4F694F0F38";
paths = (
{
closed = 1;
nodes = (
"586 531 LINE",
"635 499 LINE",
"1007 99 LINE",
"1099 194 LINE",
"734 587 LINE",
"676 628 LINE",
"305 1011 LINE",
"213 915 LINE {name = hr00;}"
);
},
{
closed = 1;
nodes = (
"650 622 LINE",
"595 577 LINE",
"213 194 LINE",
"305 99 LINE",
"682 487 LINE",
"738 533 LINE",
"1099 915 LINE",
"1007 1011 LINE"
);
}
);
width = 1317;
}
);
unicode = 00D7;
},
{
glyphname = divide;
layers = (
{
components = (
{
name = period;
transform = "{1, 0, 0, 1, 413, 837}";
},
{
name = period;
transform = "{1, 0, 0, 1, 413, 41}";
}
);
layerId = "D92FDD0B-F694-41DD-AE46-0E4F694F0F38";
paths = (
{
closed = 1;
nodes = (
"1117 492 LINE",
"1117 618 LINE",
"190 618 LINE",
"190 492 LINE {name = hr00;}"
);
}
);
width = 1317;
}
);
unicode = 00F7;
},
{
glyphname = equal;
layers = (
{
layerId = "D92FDD0B-F694-41DD-AE46-0E4F694F0F38";
paths = (
{
closed = 1;
nodes = (
"1117 693 LINE",
"1117 839 LINE",
"190 839 LINE",
"190 693 LINE {name = hr00;}"
);
},
{
closed = 1;
nodes = (
"1117 269 LINE",
"1117 415 LINE",
"190 415 LINE",
"190 269 LINE"
);
}
);
width = 1317;
}
);
unicode = 003D;
},
{
glyphname = notequal;
layers = (
{
components = (
{
name = equal;
}
);
layerId = "D92FDD0B-F694-41DD-AE46-0E4F694F0F38";
paths = (
{
closed = 1;
nodes = (
"323 0 LINE",
"458 0 LINE",
"957 1099 LINE",
"820 1099 LINE {name = hr00;}"
);
}
);
width = 1317;
}
);
unicode = 2260;
},
{
glyphname = less;
layers = (
{
layerId = "D92FDD0B-F694-41DD-AE46-0E4F694F0F38";
paths = (
{
closed = 1;
nodes = (
"187 614 LINE",
"187 495 LINE",
"1105 20 LINE",
"1105 164 LINE",
"335 554 LINE",
"1105 945 LINE",
"1105 1091 LINE {name = hr00;}"
);
}
);
width = 1317;
}
);
unicode = 003C;
},
{
glyphname = lessequal;
layers = (
{
layerId = "D92FDD0B-F694-41DD-AE46-0E4F694F0F38";
paths = (
{
closed = 1;
nodes = (
"203 704 LINE",
"203 585 LINE",
"1121 200 LINE",
"1121 344 LINE",
"351 644 LINE",
"1121 945 LINE",
"1121 1091 LINE {name = hr00;}"
);
},
{
closed = 1;
nodes = (
"1131 0 LINE",
"1131 126 LINE",
"204 126 LINE",
"204 0 LINE"
);
}
);
width = 1317;
}
);
unicode = 2264;
},
{
glyphname = plusminus;
layers = (
{
layerId = "D92FDD0B-F694-41DD-AE46-0E4F694F0F38";
paths = (
{
closed = 1;
nodes = (
"728 1032 LINE",
"582 1032 LINE",
"582 45 LINE",
"728 45 LINE {name = hr01;}"
);
},
{
closed = 1;
nodes = (
"1097 0 LINE",
"1097 126 LINE",
"210 126 LINE",
"210 0 LINE {name = hr02;}"
);
},
{
closed = 1;
nodes = (
"1117 492 LINE",
"1117 618 LINE",
"190 618 LINE",
"190 492 LINE"
);
}
);
width = 1317;
}
);
unicode = 00B1;
},
{
glyphname = asciitilde;
layers = (
{
layerId = "D92FDD0B-F694-41DD-AE46-0E4F694F0F38";
paths = (
{
closed = 1;
nodes = (
"1047 550 OFFCURVE",
"1067 593 OFFCURVE",
"1096 642 CURVE SMOOTH",
"1104 655 OFFCURVE",
"1104 671 OFFCURVE",
"1095 684 CURVE SMOOTH",
"1080 704 OFFCURVE",
"1067 705 OFFCURVE",
"1052 702 CURVE",
"1000 681 OFFCURVE",
"944 498 OFFCURVE",
"720 609 CURVE SMOOTH",
"629 648 OFFCURVE",
"561 705 OFFCURVE",
"452 705 CURVE SMOOTH {name = hr02;}",
"386 705 OFFCURVE",
"322 679 OFFCURVE",
"281 630 CURVE SMOOTH",
"241 590 OFFCURVE",
"211 537 OFFCURVE",
"182 488 CURVE SMOOTH",
"174 475 OFFCURVE",
"174 459 OFFCURVE",
"183 446 CURVE SMOOTH",
"198 426 OFFCURVE",
"211 425 OFFCURVE",
"226 428 CURVE",
"278 449 OFFCURVE",
"334 632 OFFCURVE",
"558 521 CURVE SMOOTH",
"652 482 OFFCURVE",
"722 425 OFFCURVE",
"836 425 CURVE SMOOTH {name = hr03;}",
"898 425 OFFCURVE",
"968 461 OFFCURVE",
"1007 510 CURVE SMOOTH {name = hr01;}"
);
}
);
width = 1317;
}
);
unicode = 007E;
},
{
glyphname = logicalnot;
layers = (
{
layerId = "D92FDD0B-F694-41DD-AE46-0E4F694F0F38";
paths = (
{
closed = 1;
nodes = (
"1080 496 LINE",
"1080 622 LINE",
"143 622 LINE",
"143 496 LINE {name = hr00;}"
);
},
{
closed = 1;
nodes = (
"1081 622 LINE",
"935 622 LINE",
"935 125 LINE",
"1081 125 LINE"
);
}
);
width = 1317;
}
);
unicode = 00AC;
},
{
glyphname = asciicircum;
layers = (
{
layerId = "D92FDD0B-F694-41DD-AE46-0E4F694F0F38";
paths = (
{
closed = 1;
nodes = (
"248 300 LINE",
"737 1270 LINE",
"1009 300 LINE",
"1155 300 LINE",
"817 1428 LINE",
"698 1428 LINE",
"84 300 LINE {name = hr00;}"
);
}
);
width = 1317;
}
);
unicode = 005E;
},
{
glyphname = infinity;
layers = (
{
layerId = "D92FDD0B-F694-41DD-AE46-0E4F694F0F38";
paths = (
{
closed = 1;
nodes = (
"196 1018 OFFCURVE",
"16 857 OFFCURVE",
"16 551 CURVE SMOOTH",
"16 245 OFFCURVE",
"180 114 OFFCURVE",
"374 114 CURVE SMOOTH {name = hr02;}",
"535 114 OFFCURVE",
"653 257 OFFCURVE",
"713 372 CURVE",
"804 230 OFFCURVE",
"922 114 OFFCURVE",
"1075 114 CURVE SMOOTH {name = hr03;}",
"1262 114 OFFCURVE",
"1442 275 OFFCURVE",
"1442 581 CURVE SMOOTH",
"1442 887 OFFCURVE",
"1278 1018 OFFCURVE",
"1084 1018 CURVE SMOOTH",
"921 1018 OFFCURVE",
"804 874 OFFCURVE",
"745 760 CURVE",
"653 902 OFFCURVE",
"535 1018 OFFCURVE",
"383 1018 CURVE SMOOTH {name = hr01;}"
);
},
{
closed = 1;
nodes = (
"1186 839 OFFCURVE",
"1326 788 OFFCURVE",
"1326 578 CURVE SMOOTH",
"1326 369 OFFCURVE",
"1253 281 OFFCURVE",
"1100 281 CURVE SMOOTH",
"958 281 OFFCURVE",
"800 584 OFFCURVE",
"794 667 CURVE",
"833 749 OFFCURVE",
"898 839 OFFCURVE",
"1095 839 CURVE SMOOTH {name = hr05;}"
);
},
{
closed = 1;
nodes = (
"272 293 OFFCURVE",
"141 344 OFFCURVE",
"141 554 CURVE SMOOTH",
"141 763 OFFCURVE",
"205 851 OFFCURVE",
"358 851 CURVE SMOOTH",
"513 851 OFFCURVE",
"606 585 OFFCURVE",
"662 465 CURVE",
"623 383 OFFCURVE",
"560 293 OFFCURVE",
"363 293 CURVE SMOOTH {name = hr06;}"
);
}
);
width = 1468;
}
);
unicode = 221E;
},
{
glyphname = integral;
layers = (
{
layerId = "D92FDD0B-F694-41DD-AE46-0E4F694F0F38";
paths = (
{
closed = 1;
nodes = (
"504 -18 LINE",
"602 45 LINE",
"602 1107 LINE",
"416 1075 LINE",
"416 13 LINE {name = hr00;}"
);
},
{
closed = 1;
nodes = (
"602 1467 OFFCURVE",
"699 1481 OFFCURVE",
"793 1481 CURVE SMOOTH",
"819 1481 OFFCURVE",
"873 1490 OFFCURVE",
"873 1493 CURVE SMOOTH",
"873 1499 OFFCURVE",
"847 1503 OFFCURVE",
"821 1503 CURVE SMOOTH",
"792 1503 OFFCURVE",
"762 1499 OFFCURVE",
"769 1486 CURVE SMOOTH",
"813 1406 OFFCURVE",
"836 1334 OFFCURVE",
"861 1320 CURVE",
"883 1305 OFFCURVE",
"993 1328 OFFCURVE",
"993 1418 CURVE SMOOTH",
"993 1487 OFFCURVE",
"935 1573 OFFCURVE",
"807 1573 CURVE SMOOTH",
"551 1573 OFFCURVE",
"416 1330 OFFCURVE",
"416 1075 CURVE",
"504 1044 LINE",
"602 1107 LINE"
);
},
{
closed = 1;
nodes = (
"416 -347 OFFCURVE",
"319 -361 OFFCURVE",
"225 -361 CURVE SMOOTH",
"199 -361 OFFCURVE",
"145 -370 OFFCURVE",
"145 -373 CURVE SMOOTH",
"145 -379 OFFCURVE",
"171 -383 OFFCURVE",
"197 -383 CURVE SMOOTH",
"226 -383 OFFCURVE",
"256 -379 OFFCURVE",
"249 -366 CURVE SMOOTH",
"205 -286 OFFCURVE",
"182 -214 OFFCURVE",
"157 -200 CURVE",
"135 -185 OFFCURVE",
"25 -208 OFFCURVE",
"25 -298 CURVE SMOOTH",
"25 -367 OFFCURVE",
"83 -453 OFFCURVE",
"211 -453 CURVE SMOOTH",
"467 -453 OFFCURVE",
"602 -210 OFFCURVE",
"602 45 CURVE",
"514 76 LINE",
"416 13 LINE"
);
}
);
width = 1023;
}
);
unicode = 222B;
},
{
glyphname = Delta;
layers = (
{
layerId = "D92FDD0B-F694-41DD-AE46-0E4F694F0F38";
paths = (
{
closed = 1;
nodes = (
"1299 0 LINE",
"1319 27 LINE",
"896 1508 LINE",
"864 1508 LINE",
"-65 22 LINE",
"-57 0 LINE {name = hr00;}"
);
},
{
closed = 1;
nodes = (
"785 1207 LINE",
"1072 119 LINE",
"120 119 LINE"
);
}
);
width = 1369;
}
);
unicode = 2206;
},
{
glyphname = product;
layers = (
{
layerId = "D92FDD0B-F694-41DD-AE46-0E4F694F0F38";
paths = (
{
closed = 1;
nodes = (
"1469 1331 OFFCURVE",
"1560 1346 OFFCURVE",
"1624 1351 CURVE",
"1650 1354 OFFCURVE",
"1657 1367 OFFCURVE",
"1657 1388 CURVE SMOOTH",
"1657 1403 OFFCURVE",
"1646 1419 OFFCURVE",
"1623 1419 CURVE SMOOTH",
"193 1419 LINE SMOOTH",
"170 1419 OFFCURVE",
"159 1403 OFFCURVE",
"159 1388 CURVE SMOOTH",
"159 1358 OFFCURVE",
"167 1354 OFFCURVE",
"195 1351 CURVE SMOOTH",
"256 1346 OFFCURVE",
"357 1340 OFFCURVE",
"357 1254 CURVE SMOOTH",
"356 -283 LINE SMOOTH",
"356 -327 OFFCURVE",
"265 -342 OFFCURVE",
"201 -347 CURVE",
"175 -350 OFFCURVE",
"168 -363 OFFCURVE",
"168 -384 CURVE SMOOTH",
"168 -399 OFFCURVE",
"179 -415 OFFCURVE",
"202 -415 CURVE SMOOTH",
"727 -415 LINE SMOOTH",
"750 -415 OFFCURVE",
"761 -399 OFFCURVE",
"761 -384 CURVE SMOOTH",
"761 -354 OFFCURVE",
"753 -350 OFFCURVE",
"725 -347 CURVE SMOOTH",
"664 -342 OFFCURVE",
"563 -336 OFFCURVE",
"563 -250 CURVE SMOOTH",
"564 1332 LINE",
"1262 1332 LINE",
"1261 -283 LINE SMOOTH",
"1261 -327 OFFCURVE",
"1170 -342 OFFCURVE",
"1106 -347 CURVE",
"1080 -350 OFFCURVE",
"1073 -363 OFFCURVE",
"1073 -384 CURVE SMOOTH",
"1073 -399 OFFCURVE",
"1084 -415 OFFCURVE",
"1107 -415 CURVE SMOOTH",
"1632 -415 LINE SMOOTH",
"1655 -415 OFFCURVE",
"1666 -399 OFFCURVE",
"1666 -384 CURVE SMOOTH",
"1666 -354 OFFCURVE",
"1658 -350 OFFCURVE",
"1630 -347 CURVE SMOOTH",
"1569 -342 OFFCURVE",
"1468 -336 OFFCURVE",
"1468 -250 CURVE SMOOTH",
"1469 1287 LINE SMOOTH {name = hr00;}"
);
}
);
width = 1709;
}
);
unicode = 220F;
},
{
glyphname = summation;
layers = (
{
layerId = "D92FDD0B-F694-41DD-AE46-0E4F694F0F38";
paths = (
{
closed = 1;
nodes = (
"890 535 LINE",
"257 -360 LINE",
"286 -253 LINE",
"1061 -253 LINE SMOOTH",
"1149 -253 OFFCURVE",
"1260 -59 OFFCURVE",
"1265 -16 CURVE SMOOTH",
"1268 10 OFFCURVE",
"1281 17 OFFCURVE",
"1302 17 CURVE SMOOTH",
"1317 17 OFFCURVE",
"1343 6 OFFCURVE",
"1343 -17 CURVE",
"1293 -375 LINE",
"1281 -402 OFFCURVE",
"1266 -415 OFFCURVE",
"1246 -416 CURVE",
"151 -416 LINE SMOOTH",
"135 -416 OFFCURVE",
"127 -411 OFFCURVE",
"127 -392 CURVE SMOOTH",
"127 -376 LINE SMOOTH",
"127 -363 OFFCURVE",
"133 -347 OFFCURVE",
"169 -293 CURVE",
"790 590 LINE {name = hr00;}"
);
},
{
closed = 1;
nodes = (
"157 1340 LINE SMOOTH",
"151 1350 OFFCURVE",
"147 1357 OFFCURVE",
"147 1368 CURVE SMOOTH",
"147 1395 LINE SMOOTH",
"147 1414 OFFCURVE",
"155 1419 OFFCURVE",
"171 1419 CURVE SMOOTH",
"1213 1419 LINE",
"1233 1418 OFFCURVE",
"1248 1405 OFFCURVE",
"1260 1378 CURVE",
"1289 1050 LINE",
"1289 1027 OFFCURVE",
"1273 1016 OFFCURVE",
"1258 1016 CURVE SMOOTH",
"1237 1016 OFFCURVE",
"1224 1023 OFFCURVE",
"1221 1049 CURVE SMOOTH",
"1216 1092 OFFCURVE",
"1102 1336 OFFCURVE",
"1014 1336 CURVE SMOOTH",
"342 1336 LINE",
"388 1367 LINE",
"890 559 LINE",
"890 559 OFFCURVE",
"890 535 OFFCURVE",
"890 535 CURVE",
"890 535 OFFCURVE",
"852 514 OFFCURVE",
"852 514 CURVE",
"714 417 LINE"
);
}
);
width = 1444;
}
);
unicode = 2211;
},
{
glyphname = radical;
layers = (
{
layerId = "D92FDD0B-F694-41DD-AE46-0E4F694F0F38";
paths = (
{
closed = 1;
nodes = (
"508 -127 LINE",
"1521 1801 LINE",
"1387 1801 LINE",
"564 175 LINE",
"416 815 LINE",
"171 815 LINE SMOOTH",
"149 815 OFFCURVE",
"134 799 OFFCURVE",
"132 784 CURVE SMOOTH",
"125 754 OFFCURVE",
"133 750 OFFCURVE",
"160 747 CURVE SMOOTH",
"208 742 OFFCURVE",
"236 716 OFFCURVE",
"264 650 CURVE",
"434 -127 LINE {name = hr00;}"
);
}
);
width = 1370;
}
);
unicode = 221A;
},
{
glyphname = partialdiff;
layers = (
{
layerId = "D92FDD0B-F694-41DD-AE46-0E4F694F0F38";
paths = (
{
closed = 1;
nodes = (
"534 1449 OFFCURVE",
"381 1428 OFFCURVE",
"306 1323 CURVE SMOOTH",
"217 1187 OFFCURVE",
"265 1107 OFFCURVE",
"320 1107 CURVE SMOOTH",
"390 1107 OFFCURVE",
"411 1155 OFFCURVE",
"431 1199 CURVE SMOOTH",
"452 1243 OFFCURVE",
"455 1291 OFFCURVE",
"480 1320 CURVE",
"480 1320 OFFCURVE",
"529 1354 OFFCURVE",
"604 1354 CURVE SMOOTH",
"829 1354 OFFCURVE",
"891 1123 OFFCURVE",
"891 862 CURVE SMOOTH",
"891 498 OFFCURVE",
"745 66 OFFCURVE",
"477 66 CURVE SMOOTH",
"268 66 OFFCURVE",
"289 301 OFFCURVE",
"289 324 CURVE SMOOTH",
"289 615 OFFCURVE",
"445 805 OFFCURVE",
"609 805 CURVE SMOOTH",
"749 805 OFFCURVE",
"767 783 OFFCURVE",
"881 612 CURVE",
"906 726 LINE",
"886 788 OFFCURVE",
"810 923 OFFCURVE",
"583 923 CURVE SMOOTH",
"290 923 OFFCURVE",
"93 662 OFFCURVE",
"93 385 CURVE SMOOTH",
"93 198 OFFCURVE",
"174 -29 OFFCURVE",
"480 -29 CURVE SMOOTH",
"856 -29 OFFCURVE",
"1083 455 OFFCURVE",
"1083 845 CURVE SMOOTH",
"1083 922 OFFCURVE",
"1137 1449 OFFCURVE",
"619 1449 CURVE SMOOTH {name = hr00;}"
);
}
);
width = 1180;
}
);
unicode = 2202;
},
{
glyphname = percent;
layers = (
{
components = (
{
name = fraction;
transform = "{1, 0, 0, 1, 520, 0}";
}
);
layerId = "D92FDD0B-F694-41DD-AE46-0E4F694F0F38";
paths = (
{
closed = 1;
nodes = (
"625 711 OFFCURVE",
"779 852 OFFCURVE",
"811 1076 CURVE SMOOTH",
"843 1305 OFFCURVE",
"733 1449 OFFCURVE",
"526 1449 CURVE SMOOTH {name = hr02;}",
"325 1449 OFFCURVE",
"173 1305 OFFCURVE",
"141 1076 CURVE SMOOTH",
"109 852 OFFCURVE",
"217 711 OFFCURVE",
"418 711 CURVE SMOOTH {name = hr01;}"
);
},
{
closed = 1;
nodes = (
"305 788 OFFCURVE",
"272 882 OFFCURVE",
"300 1076 CURVE SMOOTH",
"328 1274 OFFCURVE",
"385 1372 OFFCURVE",
"510 1372 CURVE SMOOTH",
"635 1372 OFFCURVE",
"669 1274 OFFCURVE",
"641 1076 CURVE SMOOTH {name = hr04;}",
"613 882 OFFCURVE",
"556 788 OFFCURVE",
"431 788 CURVE SMOOTH"
);
},
{
closed = 1;
nodes = (
"791 112 OFFCURVE",
"899 -29 OFFCURVE",
"1100 -29 CURVE SMOOTH",
"1307 -29 OFFCURVE",
"1461 112 OFFCURVE",
"1493 336 CURVE SMOOTH",
"1525 565 OFFCURVE",
"1415 709 OFFCURVE",
"1208 709 CURVE SMOOTH",
"1007 709 OFFCURVE",
"855 565 OFFCURVE",
"823 336 CURVE SMOOTH {name = hr06;}"
);
},
{
closed = 1;
nodes = (
"1010 534 OFFCURVE",
"1067 632 OFFCURVE",
"1192 632 CURVE SMOOTH",
"1317 632 OFFCURVE",
"1351 534 OFFCURVE",
"1323 336 CURVE SMOOTH",
"1295 142 OFFCURVE",
"1238 48 OFFCURVE",
"1113 48 CURVE SMOOTH",
"987 48 OFFCURVE",
"954 142 OFFCURVE",
"982 336 CURVE SMOOTH"
);
}
);
width = 1674;
}
);
unicode = 0025;
},
{
glyphname = perthousand;
layers = (
{
components = (
{
name = fraction;
transform = "{1, 0, 0, 1, 520, 0}";
}
);
layerId = "D92FDD0B-F694-41DD-AE46-0E4F694F0F38";
paths = (
{
closed = 1;
nodes = (
"1559 112 OFFCURVE",
"1667 -29 OFFCURVE",
"1868 -29 CURVE SMOOTH",
"2075 -29 OFFCURVE",
"2229 112 OFFCURVE",
"2261 336 CURVE SMOOTH",
"2293 565 OFFCURVE",
"2183 709 OFFCURVE",
"1976 709 CURVE SMOOTH",
"1775 709 OFFCURVE",
"1623 565 OFFCURVE",
"1591 336 CURVE SMOOTH {name = hr00;}"
);
},
{
closed = 1;
nodes = (
"1778 534 OFFCURVE",
"1835 632 OFFCURVE",
"1960 632 CURVE SMOOTH",
"2085 632 OFFCURVE",
"2119 534 OFFCURVE",
"2091 336 CURVE SMOOTH",
"2063 142 OFFCURVE",
"2006 48 OFFCURVE",
"1881 48 CURVE SMOOTH",
"1755 48 OFFCURVE",
"1722 142 OFFCURVE",
"1750 336 CURVE SMOOTH"
);
},
{
closed = 1;
nodes = (
"625 711 OFFCURVE",
"779 852 OFFCURVE",
"811 1076 CURVE SMOOTH",
"843 1305 OFFCURVE",
"733 1449 OFFCURVE",
"526 1449 CURVE SMOOTH",
"325 1449 OFFCURVE",
"173 1305 OFFCURVE",
"141 1076 CURVE SMOOTH",
"109 852 OFFCURVE",
"217 711 OFFCURVE",
"418 711 CURVE SMOOTH"
);
},
{
closed = 1;
nodes = (
"305 788 OFFCURVE",
"272 882 OFFCURVE",
"300 1076 CURVE SMOOTH",
"328 1274 OFFCURVE",
"385 1372 OFFCURVE",
"510 1372 CURVE SMOOTH",
"635 1372 OFFCURVE",
"669 1274 OFFCURVE",
"641 1076 CURVE SMOOTH",
"613 882 OFFCURVE",
"556 788 OFFCURVE",
"431 788 CURVE SMOOTH"
);
},
{
closed = 1;
nodes = (
"791 112 OFFCURVE",
"899 -29 OFFCURVE",
"1100 -29 CURVE SMOOTH",
"1307 -29 OFFCURVE",
"1461 112 OFFCURVE",
"1493 336 CURVE SMOOTH",
"1525 565 OFFCURVE",
"1415 709 OFFCURVE",
"1208 709 CURVE SMOOTH",
"1007 709 OFFCURVE",
"855 565 OFFCURVE",
"823 336 CURVE SMOOTH"
);
},
{
closed = 1;
nodes = (
"1010 534 OFFCURVE",
"1067 632 OFFCURVE",
"1192 632 CURVE SMOOTH",
"1317 632 OFFCURVE",
"1351 534 OFFCURVE",
"1323 336 CURVE SMOOTH",
"1295 142 OFFCURVE",
"1238 48 OFFCURVE",
"1113 48 CURVE SMOOTH",
"987 48 OFFCURVE",
"954 142 OFFCURVE",
"982 336 CURVE SMOOTH"
);
}
);
width = 2514;
}
);
unicode = 2030;
},
{
glyphname = lozenge;
layers = (
{
layerId = "D92FDD0B-F694-41DD-AE46-0E4F694F0F38";
paths = (
{
closed = 1;
nodes = (
"499 1146 LINE",
"118 558 LINE",
"497 0 LINE",
"611 0 LINE",
"995 558 LINE",
"618 1146 LINE {name = hr00;}"
);
},
{
closed = 1;
nodes = (
"841 558 LINE",
"556 138 LINE",
"276 558 LINE",
"558 1008 LINE"
);
}
);
width = 1150;
}
);
unicode = 25CA;
},
{
glyphname = at;
layers = (
{
layerId = "D92FDD0B-F694-41DD-AE46-0E4F694F0F38";
paths = (
{
closed = 1;
nodes = (
"127 -148 OFFCURVE",
"531 -318 OFFCURVE",
"849 -318 CURVE SMOOTH",
"1131 -318 OFFCURVE",
"1354 -190 OFFCURVE",
"1451 -92 CURVE",
"1410 -40 LINE",
"1410 -40 OFFCURVE",
"1238 -227 OFFCURVE",
"884 -227 CURVE SMOOTH",
"685 -227 OFFCURVE",
"255 -147 OFFCURVE",
"255 351 CURVE SMOOTH",
"255 860 OFFCURVE",
"619 1280 OFFCURVE",
"1141 1280 CURVE SMOOTH",
"1411 1280 OFFCURVE",
"1677 1132 OFFCURVE",
"1677 807 CURVE SMOOTH",
"1677 430 OFFCURVE",
"1375 201 OFFCURVE",
"1244 201 CURVE SMOOTH",
"1185 201 OFFCURVE",
"1168 238 OFFCURVE",
"1168 279 CURVE SMOOTH",
"1168 314 OFFCURVE",
"1181 352 OFFCURVE",
"1188 369 CURVE SMOOTH",
"1431 956 LINE",
"1259 956 LINE",
"1216 838 LINE",
"1218 892 OFFCURVE",
"1160 983 OFFCURVE",
"1045 983 CURVE SMOOTH",
"733 983 OFFCURVE",
"532 648 OFFCURVE",
"532 369 CURVE SMOOTH",
"532 189 OFFCURVE",
"657 120 OFFCURVE",
"775 120 CURVE SMOOTH",
"854 120 OFFCURVE",
"972 187 OFFCURVE",
"1011 259 CURVE",
"1013 190 OFFCURVE",
"1070 112 OFFCURVE",
"1213 112 CURVE SMOOTH",
"1400 112 OFFCURVE",
"1780 360 OFFCURVE",
"1780 822 CURVE SMOOTH",
"1780 1227 OFFCURVE",
"1458 1378 OFFCURVE",
"1161 1378 CURVE SMOOTH",
"676 1378 OFFCURVE",
"127 1015 OFFCURVE",
"127 351 CURVE SMOOTH {name = hr00;}"
);
},
{
closed = 1;
nodes = (
"731 504 OFFCURVE",
"855 894 OFFCURVE",
"1059 894 CURVE SMOOTH",
"1167 894 OFFCURVE",
"1162 787 OFFCURVE",
"1155 726 CURVE",
"1026 386 LINE SMOOTH",
"1002 323 OFFCURVE",
"905 211 OFFCURVE",
"814 211 CURVE SMOOTH",
"738 211 OFFCURVE",
"731 294 OFFCURVE",
"731 383 CURVE SMOOTH"
);
}
);
width = 1902;
}
);
unicode = 0040;
userData = {
com.typemytype.robofont.mark = (
0.6,
0.609,
1,
1
);
};
},
{
glyphname = ampersand;
layers = (
{
layerId = "D92FDD0B-F694-41DD-AE46-0E4F694F0F38";
paths = (
{
closed = 1;
nodes = (
"562 915 OFFCURVE",
"525 1000 OFFCURVE",
"525 1094 CURVE SMOOTH",
"525 1219 OFFCURVE",
"594 1371 OFFCURVE",
"734 1371 CURVE SMOOTH",
"837 1371 OFFCURVE",
"880 1270 OFFCURVE",
"880 1195 CURVE SMOOTH",
"880 1110 OFFCURVE",
"866 957 OFFCURVE",
"638 849 CURVE SMOOTH",
"616 838 LINE {name = hr00;}"
);
},
{
closed = 1;
nodes = (
"964 278 OFFCURVE",
"959 260 OFFCURVE",
"959 244 CURVE SMOOTH",
"959 221 OFFCURVE",
"969 202 OFFCURVE",
"989 202 CURVE SMOOTH",
"999 202 OFFCURVE",
"1010 205 OFFCURVE",
"1024 216 CURVE",
"1231 452 OFFCURVE",
"1236 642 OFFCURVE",
"1300 741 CURVE",
"1341 792 OFFCURVE",
"1378 818 OFFCURVE",
"1446 818 CURVE SMOOTH",
"1468 818 OFFCURVE",
"1482 831 OFFCURVE",
"1487 855 CURVE",
"1490 875 OFFCURVE",
"1483 896 OFFCURVE",
"1460 896 CURVE SMOOTH",
"1067 896 LINE SMOOTH",
"1044 896 OFFCURVE",
"1029 875 OFFCURVE",
"1026 855 CURVE SMOOTH",
"1022 834 OFFCURVE",
"1025 821 OFFCURVE",
"1049 818 CURVE SMOOTH",
"1091 814 OFFCURVE",
"1162 802 OFFCURVE",
"1155 748 CURVE SMOOTH",
"1153 733 OFFCURVE",
"1150 499 OFFCURVE",
"975 292 CURVE"
);
},
{
closed = 1;
nodes = (
"737 99 OFFCURVE",
"626 91 OFFCURVE",
"527 91 CURVE SMOOTH",
"324 91 OFFCURVE",
"237 226 OFFCURVE",
"237 350 CURVE SMOOTH",
"237 519 OFFCURVE",
"337 595 OFFCURVE",
"474 688 CURVE",
"967 0 LINE",
"1283 0 LINE SMOOTH",
"1305 0 OFFCURVE",
"1320 21 OFFCURVE",
"1324 41 CURVE SMOOTH",
"1329 71 OFFCURVE",
"1322 75 OFFCURVE",
"1295 78 CURVE SMOOTH",
"1234 86 OFFCURVE",
"1135 111 OFFCURVE",
"1096 162 CURVE SMOOTH",
"869 458 OFFCURVE",
"727 674 OFFCURVE",
"655 780 CURVE",
"667 787 OFFCURVE",
"681 795 OFFCURVE",
"695 802 CURVE SMOOTH",
"844 874 OFFCURVE",
"1052 978 OFFCURVE",
"1052 1209 CURVE SMOOTH",
"1052 1350 OFFCURVE",
"952 1448 OFFCURVE",
"764 1448 CURVE SMOOTH",
"460 1448 OFFCURVE",
"327 1268 OFFCURVE",
"327 1070 CURVE SMOOTH",
"327 963 OFFCURVE",
"375 854 OFFCURVE",
"429 758 CURVE",
"219 647 OFFCURVE",
"36 519 OFFCURVE",
"36 304 CURVE SMOOTH",
"36 108 OFFCURVE",
"201 -29 OFFCURVE",
"496 -29 CURVE SMOOTH",
"659 -29 OFFCURVE",
"827 41 OFFCURVE",
"925 127 CURVE",
"934 133 OFFCURVE",
"938 142 OFFCURVE",
"938 153 CURVE SMOOTH",
"938 185 OFFCURVE",
"903 227 OFFCURVE",
"877 198 CURVE"
);
}
);
width = 1455;
}
);
unicode = 0026;
userData = {
com.typemytype.robofont.mark = (
0.6,
0.609,
1,
1
);
};
},
{
glyphname = paragraph;
layers = (
{
layerId = "D92FDD0B-F694-41DD-AE46-0E4F694F0F38";
paths = (
{
closed = 1;
nodes = (
"9 -202 OFFCURVE",
"1 -206 OFFCURVE",
"-6 -236 CURVE SMOOTH",
"-9 -251 OFFCURVE",
"-5 -287 OFFCURVE",
"18 -287 CURVE SMOOTH",
"324 -287 LINE",
"611 1302 LINE",
"831 1302 LINE",
"544 -287 LINE",
"836 -287 LINE SMOOTH",
"859 -287 OFFCURVE",
"877 -251 OFFCURVE",
"880 -236 CURVE SMOOTH",
"884 -215 OFFCURVE",
"880 -202 OFFCURVE",
"855 -199 CURVE",
"791 -194 OFFCURVE",
"712 -179 OFFCURVE",
"721 -135 CURVE SMOOTH",
"965 1234 LINE SMOOTH",
"982 1320 OFFCURVE",
"1044 1326 OFFCURVE",
"1106 1331 CURVE SMOOTH",
"1134 1334 OFFCURVE",
"1144 1338 OFFCURVE",
"1149 1368 CURVE SMOOTH",
"1152 1383 OFFCURVE",
"1148 1419 OFFCURVE",
"1125 1419 CURVE SMOOTH",
"817 1419 LINE",
"602 1421 LINE",
"377 1421 OFFCURVE",
"139 1311 OFFCURVE",
"79 1000 CURVE SMOOTH",
"38 786 OFFCURVE",
"151 629 OFFCURVE",
"338 575 CURVE",
"208 -102 LINE SMOOTH",
"192 -188 OFFCURVE",
"102 -194 OFFCURVE",
"38 -199 CURVE {name = hr00;}"
);
}
);
width = 1024;
}
);
unicode = 00B6;
userData = {
com.typemytype.robofont.mark = (
0.6,
0.609,
1,
1
);
};
},
{
glyphname = section;
layers = (
{
layerId = "D92FDD0B-F694-41DD-AE46-0E4F694F0F38";
paths = (
{
closed = 1;
nodes = (
"140 -268 OFFCURVE",
"214 -360 OFFCURVE",
"342 -360 CURVE SMOOTH",
"551 -360 OFFCURVE",
"695 -228 OFFCURVE",
"697 -29 CURVE SMOOTH",
"698 45 OFFCURVE",
"677 113 OFFCURVE",
"639 179 CURVE",
"748 282 OFFCURVE",
"846 392 OFFCURVE",
"846 539 CURVE SMOOTH",
"846 793 OFFCURVE",
"481 987 OFFCURVE",
"481 1160 CURVE SMOOTH",
"481 1273 OFFCURVE",
"557 1351 OFFCURVE",
"660 1356 CURVE",
"741 1180 LINE",
"762 1165 OFFCURVE",
"880 1188 OFFCURVE",
"880 1278 CURVE SMOOTH",
"880 1360 OFFCURVE",
"817 1449 OFFCURVE",
"689 1449 CURVE SMOOTH",
"486 1449 OFFCURVE",
"332 1303 OFFCURVE",
"332 1108 CURVE SMOOTH",
"332 1033 OFFCURVE",
"351 965 OFFCURVE",
"390 899 CURVE",
"281 796 OFFCURVE",
"184 686 OFFCURVE",
"184 540 CURVE SMOOTH",
"184 286 OFFCURVE",
"549 92 OFFCURVE",
"549 -81 CURVE SMOOTH",
"549 -195 OFFCURVE",
"470 -266 OFFCURVE",
"358 -271 CURVE",
"278 -101 LINE",
"257 -86 OFFCURVE",
"140 -105 OFFCURVE",
"140 -199 CURVE SMOOTH {name = hr00;}"
);
},
{
closed = 1;
nodes = (
"407 500 OFFCURVE",
"383 545 OFFCURVE",
"383 613 CURVE SMOOTH",
"383 688 OFFCURVE",
"415 753 OFFCURVE",
"448 812 CURVE",
"495 748 OFFCURVE",
"550 687 OFFCURVE",
"594 622 CURVE SMOOTH",
"623 579 OFFCURVE",
"647 533 OFFCURVE",
"647 464 CURVE SMOOTH",
"647 390 OFFCURVE",
"613 325 OFFCURVE",
"581 265 CURVE",
"533 329 OFFCURVE",
"479 392 OFFCURVE",
"436 457 CURVE SMOOTH"
);
}
);
width = 1024;
}
);
unicode = 00A7;
userData = {
com.typemytype.robofont.mark = (
0.6,
0.609,
1,
1
);
};
},
{
glyphname = copyright;
layers = (
{
layerId = "D92FDD0B-F694-41DD-AE46-0E4F694F0F38";
paths = (
{
closed = 1;
nodes = (
"1043 1030 OFFCURVE",
"1082 1001 OFFCURVE",
"1082 1001 CURVE",
"1102 978 OFFCURVE",
"1105 939 OFFCURVE",
"1121 904 CURVE SMOOTH",
"1137 869 OFFCURVE",
"1154 830 OFFCURVE",
"1210 830 CURVE SMOOTH",
"1254 830 OFFCURVE",
"1293 894 OFFCURVE",
"1221 1003 CURVE SMOOTH",
"1166 1087 OFFCURVE",
"1056 1104 OFFCURVE",
"995 1104 CURVE SMOOTH",
"782 1104 OFFCURVE",
"617 985 OFFCURVE",
"617 718 CURVE SMOOTH",
"617 450 OFFCURVE",
"743 322 OFFCURVE",
"988 322 CURVE SMOOTH",
"1132 322 OFFCURVE",
"1233 393 OFFCURVE",
"1269 550 CURVE SMOOTH",
"1271 557 OFFCURVE",
"1270 569 OFFCURVE",
"1256 569 CURVE SMOOTH",
"1199 568 LINE SMOOTH",
"1189 568 OFFCURVE",
"1189 558 OFFCURVE",
"1187 551 CURVE SMOOTH",
"1160 427 OFFCURVE",
"1072 394 OFFCURVE",
"985 394 CURVE SMOOTH",
"894 394 OFFCURVE",
"764 452 OFFCURVE",
"764 710 CURVE SMOOTH",
"764 970 OFFCURVE",
"867 1030 OFFCURVE",
"997 1030 CURVE SMOOTH {name = hr00;}"
);
},
{
closed = 1;
nodes = (
"243 315 OFFCURVE",
"560 -5 OFFCURVE",
"956 -5 CURVE SMOOTH",
"1351 -5 OFFCURVE",
"1669 315 OFFCURVE",
"1669 710 CURVE SMOOTH",
"1669 1106 OFFCURVE",
"1351 1426 OFFCURVE",
"956 1426 CURVE SMOOTH",
"560 1426 OFFCURVE",
"243 1106 OFFCURVE",
"243 710 CURVE SMOOTH"
);
},
{
closed = 1;
nodes = (
"337 1054 OFFCURVE",
"610 1344 OFFCURVE",
"957 1344 CURVE SMOOTH",
"1304 1344 OFFCURVE",
"1577 1058 OFFCURVE",
"1577 710 CURVE SMOOTH",
"1577 367 OFFCURVE",
"1300 75 OFFCURVE",
"957 75 CURVE SMOOTH",
"613 75 OFFCURVE",
"337 367 OFFCURVE",
"337 710 CURVE SMOOTH"
);
}
);
width = 1929;
}
);
unicode = 00A9;
},
{
glyphname = registered;
layers = (
{
layerId = "D92FDD0B-F694-41DD-AE46-0E4F694F0F38";
paths = (
{
closed = 1;
nodes = (
"867 1072 LINE",
"825 1093 LINE",
"642 1093 LINE SMOOTH",
"630 1093 OFFCURVE",
"624 1085 OFFCURVE",
"624 1077 CURVE SMOOTH",
"624 1061 OFFCURVE",
"628 1059 OFFCURVE",
"642 1057 CURVE SMOOTH",
"674 1055 OFFCURVE",
"717 1052 OFFCURVE",
"717 1007 CURVE SMOOTH",
"717 416 LINE SMOOTH",
"717 393 OFFCURVE",
"688 385 OFFCURVE",
"655 383 CURVE",
"641 381 OFFCURVE",
"638 366 OFFCURVE",
"638 356 CURVE SMOOTH",
"638 348 OFFCURVE",
"643 331 OFFCURVE",
"655 331 CURVE SMOOTH",
"933 331 LINE SMOOTH",
"945 331 OFFCURVE",
"950 348 OFFCURVE",
"950 356 CURVE SMOOTH",
"950 371 OFFCURVE",
"946 381 OFFCURVE",
"931 383 CURVE",
"894 385 OFFCURVE",
"852 388 OFFCURVE",
"852 433 CURVE SMOOTH",
"852 1064 LINE {name = hr00;}"
);
},
{
closed = 1;
nodes = (
"831 1012 LINE",
"831 1012 OFFCURVE",
"850 1012 OFFCURVE",
"927 1012 CURVE SMOOTH",
"1027 1012 OFFCURVE",
"1103 1012 OFFCURVE",
"1103 884 CURVE SMOOTH",
"1103 788 OFFCURVE",
"1010 744 OFFCURVE",
"923 744 CURVE SMOOTH",
"886 744 OFFCURVE",
"818 744 OFFCURVE",
"818 744 CURVE",
"818 744 OFFCURVE",
"828 666 OFFCURVE",
"828 666 CURVE",
"828 666 OFFCURVE",
"916 666 OFFCURVE",
"962 666 CURVE SMOOTH",
"997 666 OFFCURVE",
"1002 675 OFFCURVE",
"1032 684 CURVE",
"1150 714 OFFCURVE",
"1239 786 OFFCURVE",
"1239 900 CURVE SMOOTH",
"1239 1046 OFFCURVE",
"1115 1092 OFFCURVE",
"967 1093 CURVE",
"825 1093 LINE"
);
},
{
closed = 1;
nodes = (
"1343 331 OFFCURVE",
"1350 348 OFFCURVE",
"1350 356 CURVE SMOOTH",
"1350 372 OFFCURVE",
"1338 381 OFFCURVE",
"1323 383 CURVE SMOOTH",
"1297 386 OFFCURVE",
"1270 399 OFFCURVE",
"1246 444 CURVE",
"1182 546 OFFCURVE",
"1180 693 OFFCURVE",
"1014 693 CURVE SMOOTH",
"984 693 LINE",
"949 666 LINE",
"1104 666 OFFCURVE",
"1060 331 OFFCURVE",
"1234 331 CURVE SMOOTH",
"1332 331 LINE SMOOTH"
);
},
{
closed = 1;
nodes = (
"243 315 OFFCURVE",
"560 -5 OFFCURVE",
"956 -5 CURVE SMOOTH",
"1351 -5 OFFCURVE",
"1669 315 OFFCURVE",
"1669 710 CURVE SMOOTH",
"1669 1106 OFFCURVE",
"1351 1426 OFFCURVE",
"956 1426 CURVE SMOOTH",
"560 1426 OFFCURVE",
"243 1106 OFFCURVE",
"243 710 CURVE SMOOTH"
);
},
{
closed = 1;
nodes = (
"337 1054 OFFCURVE",
"610 1344 OFFCURVE",
"957 1344 CURVE SMOOTH",
"1304 1344 OFFCURVE",
"1577 1058 OFFCURVE",
"1577 710 CURVE SMOOTH",
"1577 367 OFFCURVE",
"1300 75 OFFCURVE",
"957 75 CURVE SMOOTH",
"613 75 OFFCURVE",
"337 367 OFFCURVE",
"337 710 CURVE SMOOTH"
);
}
);
width = 1929;
}
);
unicode = 00AE;
},
{
glyphname = trademark;
layers = (
{
layerId = "D92FDD0B-F694-41DD-AE46-0E4F694F0F38";
paths = (
{
closed = 1;
nodes = (
"751 1338 OFFCURVE",
"792 1226 OFFCURVE",
"796 1193 CURVE SMOOTH",
"799 1170 OFFCURVE",
"811 1163 OFFCURVE",
"830 1163 CURVE SMOOTH",
"843 1163 OFFCURVE",
"867 1173 OFFCURVE",
"867 1194 CURVE",
"863 1274 OFFCURVE",
"844 1427 OFFCURVE",
"813 1427 CURVE SMOOTH",
"212 1427 LINE SMOOTH",
"181 1427 OFFCURVE",
"162 1274 OFFCURVE",
"158 1194 CURVE",
"158 1173 OFFCURVE",
"182 1163 OFFCURVE",
"195 1163 CURVE SMOOTH",
"214 1163 OFFCURVE",
"226 1170 OFFCURVE",
"228 1193 CURVE SMOOTH",
"233 1226 OFFCURVE",
"273 1338 OFFCURVE",
"376 1338 CURVE SMOOTH",
"438 1338 LINE",
"437 894 LINE SMOOTH",
"437 828 OFFCURVE",
"422 814 OFFCURVE",
"337 810 CURVE",
"314 807 OFFCURVE",
"308 795 OFFCURVE",
"308 776 CURVE SMOOTH",
"308 763 OFFCURVE",
"318 748 OFFCURVE",
"338 748 CURVE SMOOTH",
"704 748 LINE SMOOTH",
"724 748 OFFCURVE",
"734 763 OFFCURVE",
"734 776 CURVE SMOOTH",
"734 803 OFFCURVE",
"727 807 OFFCURVE",
"702 810 CURVE",
"629 814 OFFCURVE",
"596 820 OFFCURVE",
"596 897 CURVE SMOOTH",
"597 1338 LINE",
"649 1338 LINE SMOOTH {name = hr01;}"
);
},
{
closed = 1;
nodes = (
"1797 1348 OFFCURVE",
"1843 1361 OFFCURVE",
"1873 1366 CURVE",
"1897 1369 OFFCURVE",
"1903 1380 OFFCURVE",
"1903 1399 CURVE SMOOTH",
"1903 1413 OFFCURVE",
"1893 1427 OFFCURVE",
"1872 1427 CURVE SMOOTH",
"1750 1427 LINE",
"1606 1366 LINE {name = hr02;}",
"1646 1366 LINE",
"1645 868 LINE SMOOTH",
"1645 829 OFFCURVE",
"1609 815 OFFCURVE",
"1578 811 CURVE",
"1555 808 OFFCURVE",
"1548 803 OFFCURVE",
"1548 784 CURVE SMOOTH",
"1548 771 OFFCURVE",
"1558 749 OFFCURVE",
"1579 749 CURVE SMOOTH",
"1871 749 LINE SMOOTH",
"1892 749 OFFCURVE",
"1902 764 OFFCURVE",
"1902 777 CURVE SMOOTH",
"1902 804 OFFCURVE",
"1895 808 OFFCURVE",
"1870 811 CURVE SMOOTH",
"1836 815 OFFCURVE",
"1796 820 OFFCURVE",
"1796 898 CURVE SMOOTH",
"1797 1308 LINE SMOOTH"
);
},
{
closed = 1;
nodes = (
"942 1426 OFFCURVE",
"932 1413 OFFCURVE",
"932 1399 CURVE SMOOTH",
"932 1372 OFFCURVE",
"940 1369 OFFCURVE",
"965 1366 CURVE",
"1009 1361 OFFCURVE",
"1065 1356 OFFCURVE",
"1065 1279 CURVE SMOOTH",
"1065 897 LINE SMOOTH",
"1065 821 OFFCURVE",
"1014 815 OFFCURVE",
"970 811 CURVE",
"947 808 OFFCURVE",
"941 796 OFFCURVE",
"941 777 CURVE SMOOTH",
"941 764 OFFCURVE",
"950 749 OFFCURVE",
"971 749 CURVE SMOOTH",
"1255 749 LINE SMOOTH",
"1275 749 OFFCURVE",
"1285 764 OFFCURVE",
"1285 777 CURVE SMOOTH",
"1285 804 OFFCURVE",
"1278 808 OFFCURVE",
"1253 811 CURVE",
"1209 815 OFFCURVE",
"1152 820 OFFCURVE",
"1152 898 CURVE SMOOTH",
"1152 1303 LINE {name = hr04;}",
"1191 1303 LINE",
"1241 1313 OFFCURVE",
"1264 1345 OFFCURVE",
"1246 1427 CURVE {name = hr05;}",
"963 1427 LINE {name = hr03;}"
);
},
{
closed = 1;
nodes = (
"1374 915 LINE",
"1439 1068 LINE",
"1419 1142 LINE",
"1246 1427 LINE",
"1117 1355 LINE"
);
},
{
closed = 1;
nodes = (
"1419 915 LINE",
"1645 1375 LINE {name = hr06;}",
"1769 1366 LINE",
"1771 1427 LINE {name = hr07;}",
"1580 1427 LINE",
"1430 1142 LINE",
"1419 1142 LINE",
"1374 915 LINE"
);
}
);
width = 1930;
}
);
unicode = 2122;
},
{
glyphname = degree;
layers = (
{
layerId = "D92FDD0B-F694-41DD-AE46-0E4F694F0F38";
paths = (
{
closed = 1;
nodes = (
"149 912 OFFCURVE",
"286 774 OFFCURVE",
"488 774 CURVE SMOOTH",
"690 774 OFFCURVE",
"829 912 OFFCURVE",
"829 1113 CURVE SMOOTH",
"829 1314 OFFCURVE",
"694 1450 OFFCURVE",
"492 1450 CURVE SMOOTH",
"290 1450 OFFCURVE",
"149 1314 OFFCURVE",
"149 1113 CURVE SMOOTH {name = hr00;}"
);
},
{
closed = 1;
nodes = (
"291 1266 OFFCURVE",
"368 1340 OFFCURVE",
"487 1340 CURVE SMOOTH",
"605 1340 OFFCURVE",
"687 1266 OFFCURVE",
"687 1113 CURVE SMOOTH",
"687 960 OFFCURVE",
"608 884 OFFCURVE",
"490 884 CURVE SMOOTH",
"371 884 OFFCURVE",
"291 960 OFFCURVE",
"291 1113 CURVE SMOOTH"
);
}
);
width = 859;
}
);
unicode = 00B0;
},
{
glyphname = minute;
layers = (
{
layerId = "D92FDD0B-F694-41DD-AE46-0E4F694F0F38";
paths = (
{
closed = 1;
nodes = (
"440 1268 OFFCURVE",
"541 1397 OFFCURVE",
"558 1438 CURVE",
"578 1483 OFFCURVE",
"576 1546 OFFCURVE",
"508 1573 CURVE SMOOTH",
"440 1602 OFFCURVE",
"389 1556 OFFCURVE",
"369 1509 CURVE",
"354 1469 OFFCURVE",
"344 1295 OFFCURVE",
"262 1052 CURVE",
"336 1021 LINE {name = hr00;}"
);
}
);
width = 658;
}
);
unicode = 2032;
},
{
glyphname = bar;
layers = (
{
layerId = "D92FDD0B-F694-41DD-AE46-0E4F694F0F38";
paths = (
{
closed = 1;
nodes = (
"483 -367 LINE",
"338 -367 LINE",
"338 1535 LINE",
"483 1535 LINE {name = hr00;}"
);
}
);
width = 768;
}
);
unicode = 007C;
},
{
glyphname = brokenbar;
layers = (
{
layerId = "D92FDD0B-F694-41DD-AE46-0E4F694F0F38";
paths = (
{
closed = 1;
nodes = (
"483 765 LINE",
"338 765 LINE",
"338 1535 LINE",
"483 1535 LINE {name = hr00;}"
);
},
{
closed = 1;
nodes = (
"483 -369 LINE",
"338 -369 LINE",
"338 401 LINE",
"483 401 LINE"
);
}
);
width = 768;
}
);
unicode = 00A6;
},
{
glyphname = dagger;
layers = (
{
layerId = "D92FDD0B-F694-41DD-AE46-0E4F694F0F38";
paths = (
{
closed = 1;
nodes = (
"325 23 OFFCURVE",
"341 -28 OFFCURVE",
"408 -28 CURVE SMOOTH",
"473 -28 OFFCURVE",
"503 23 OFFCURVE",
"512 89 CURVE SMOOTH",
"516 116 OFFCURVE",
"592 995 OFFCURVE",
"595 1063 CURVE",
"657 1056 OFFCURVE",
"800 1002 OFFCURVE",
"855 1002 CURVE SMOOTH",
"920 1002 OFFCURVE",
"976 1035 OFFCURVE",
"985 1101 CURVE SMOOTH",
"995 1167 OFFCURVE",
"947 1191 OFFCURVE",
"882 1191 CURVE SMOOTH",
"819 1191 OFFCURVE",
"662 1125 OFFCURVE",
"604 1118 CURVE",
"621 1177 OFFCURVE",
"709 1413 OFFCURVE",
"713 1440 CURVE SMOOTH {name = hr02;}",
"722 1506 OFFCURVE",
"694 1557 OFFCURVE",
"629 1557 CURVE SMOOTH",
"562 1557 OFFCURVE",
"521 1506 OFFCURVE",
"512 1440 CURVE SMOOTH",
"508 1413 OFFCURVE",
"527 1178 OFFCURVE",
"529 1119 CURVE",
"474 1131 OFFCURVE",
"320 1191 OFFCURVE",
"272 1191 CURVE SMOOTH",
"206 1191 OFFCURVE",
"152 1167 OFFCURVE",
"142 1101 CURVE SMOOTH",
"133 1035 OFFCURVE",
"179 1002 OFFCURVE",
"245 1002 CURVE SMOOTH",
"293 1002 OFFCURVE",
"465 1053 OFFCURVE",
"522 1063 CURVE",
"505 995 OFFCURVE",
"338 116 OFFCURVE",
"334 89 CURVE SMOOTH {name = hr01;}"
);
}
);
width = 967;
}
);
unicode = 2020;
},
